<svg width="9" height="9" viewBox="0 0 9 9" fill="none" xmlns="http://www.w3.org/2000/svg">
<path d="M3.5 4.66667H0.583333C0.418056 4.66667 0.279514 4.61076 0.167708 4.49896C0.0559028 4.38715 0 4.24861 0 4.08333C0 3.91806 0.0559028 3.77951 0.167708 3.66771C0.279514 3.5559 0.418056 3.5 0.583333 3.5H3.5V0.583333C3.5 0.418056 3.5559 0.279514 3.66771 0.167708C3.77951 0.0559028 3.91806 0 4.08333 0C4.24861 0 4.38715 0.0559028 4.49896 0.167708C4.61076 0.279514 4.66667 0.418056 4.66667 0.583333V3.5H7.58333C7.74861 3.5 7.88715 3.5559 7.99896 3.66771C8.11076 3.77951 8.16667 3.91806 8.16667 4.08333C8.16667 4.24861 8.11076 4.38715 7.99896 4.49896C7.88715 4.61076 7.74861 4.66667 7.58333 4.66667H4.66667V7.58333C4.66667 7.74861 4.61076 7.88715 4.49896 7.99896C4.38715 8.11076 4.24861 8.16667 4.08333 8.16667C3.91806 8.16667 3.77951 8.11076 3.66771 7.99896C3.5559 7.88715 3.5 7.74861 3.5 7.58333V4.66667Z" fill="white"/>
</svg>
