<svg width="30" height="27" viewBox="0 0 30 27" fill="none" xmlns="http://www.w3.org/2000/svg">
<path d="M1.33333 26.6667C1.97778 25.0222 2.40556 23.3278 2.61667 21.5833C2.82778 19.8389 2.95556 18.0889 3 16.3333C2.13333 16 1.41667 15.4444 0.85 14.6667C0.283333 13.8889 0 13 0 12V9.33333C2.55556 8.48889 5.16111 7.2 7.81667 5.46667C10.4722 3.73333 12.7556 1.91111 14.6667 0C16.5778 1.91111 18.8611 3.73333 21.5167 5.46667C24.1722 7.2 26.7778 8.48889 29.3333 9.33333V12C29.3333 13 29.05 13.8889 28.4833 14.6667C27.9167 15.4444 27.2 16 26.3333 16.3333C26.3778 18.0889 26.5056 19.8389 26.7167 21.5833C26.9278 23.3278 27.3556 25.0222 28 26.6667H1.33333ZM6.53333 9.33333H22.8C21.0667 8.35556 19.5056 7.35 18.1167 6.31667C16.7278 5.28333 15.5778 4.37778 14.6667 3.6C13.7556 4.37778 12.6056 5.28333 11.2167 6.31667C9.82778 7.35 8.26667 8.35556 6.53333 9.33333ZM18 14C18.5556 14 19.0278 13.8056 19.4167 13.4167C19.8056 13.0278 20 12.5556 20 12H16C16 12.5556 16.1944 13.0278 16.5833 13.4167C16.9722 13.8056 17.4444 14 18 14ZM11.3333 14C11.8889 14 12.3611 13.8056 12.75 13.4167C13.1389 13.0278 13.3333 12.5556 13.3333 12H9.33333C9.33333 12.5556 9.52778 13.0278 9.91667 13.4167C10.3056 13.8056 10.7778 14 11.3333 14ZM4.66667 14C5.22222 14 5.69444 13.8056 6.08333 13.4167C6.47222 13.0278 6.66667 12.5556 6.66667 12H2.66667C2.66667 12.5556 2.86111 13.0278 3.25 13.4167C3.63889 13.8056 4.11111 14 4.66667 14ZM4.86667 24H8.43333C8.63333 22.6667 8.78889 21.3444 8.9 20.0333C9.01111 18.7222 9.1 17.4 9.16667 16.0667C8.96667 15.9556 8.76667 15.8389 8.56667 15.7167C8.36667 15.5944 8.17778 15.4444 8 15.2667C7.66667 15.6 7.30556 15.8722 6.91667 16.0833C6.52778 16.2944 6.11111 16.4556 5.66667 16.5667C5.62222 17.8333 5.54444 19.0833 5.43333 20.3167C5.32222 21.55 5.13333 22.7778 4.86667 24ZM11.1333 24H18.2C18.0222 22.7778 17.8833 21.5556 17.7833 20.3333C17.6833 19.1111 17.6 17.8778 17.5333 16.6333C16.9556 16.5889 16.4278 16.45 15.95 16.2167C15.4722 15.9833 15.0444 15.6778 14.6667 15.3C14.2889 15.6778 13.85 15.9833 13.35 16.2167C12.85 16.45 12.3333 16.5889 11.8 16.6333C11.7333 17.8778 11.65 19.1111 11.55 20.3333C11.45 21.5556 11.3111 22.7778 11.1333 24ZM20.9 24H24.4667C24.2 22.7778 24.0111 21.55 23.9 20.3167C23.7889 19.0833 23.7111 17.8333 23.6667 16.5667C23.2222 16.4556 22.8 16.2944 22.4 16.0833C22 15.8722 21.6444 15.6 21.3333 15.2667C21.1556 15.4444 20.9667 15.5944 20.7667 15.7167C20.5667 15.8389 20.3667 15.9556 20.1667 16.0667C20.2333 17.4 20.3278 18.7222 20.45 20.0333C20.5722 21.3444 20.7222 22.6667 20.9 24ZM24.6667 14C25.2222 14 25.6944 13.8056 26.0833 13.4167C26.4722 13.0278 26.6667 12.5556 26.6667 12H22.6667C22.6667 12.5556 22.8611 13.0278 23.25 13.4167C23.6389 13.8056 24.1111 14 24.6667 14Z" fill="#00205E"/>
</svg>
