<svg width="24" height="27" viewBox="0 0 24 27" fill="none" xmlns="http://www.w3.org/2000/svg">
<path d="M4 26.6667V14.4667C2.8 14.1556 1.83333 13.5222 1.1 12.5667C0.366667 11.6111 0 10.5333 0 9.33333V0H2.66667V8H4V0H6.66667V8H8V0H10.6667V9.33333C10.6667 10.5333 10.3 11.6111 9.56667 12.5667C8.83333 13.5222 7.86667 14.1556 6.66667 14.4667V26.6667H4ZM17.3333 26.6667V13.9667C16.1333 13.5667 15.1667 12.7278 14.4333 11.45C13.7 10.1722 13.3333 8.72222 13.3333 7.1C13.3333 5.12222 13.8556 3.44444 14.9 2.06667C15.9444 0.688889 17.2 0 18.6667 0C20.1333 0 21.3889 0.694444 22.4333 2.08333C23.4778 3.47222 24 5.15556 24 7.13333C24 8.75555 23.6333 10.2 22.9 11.4667C22.1667 12.7333 21.2 13.5667 20 13.9667V26.6667H17.3333Z" fill="white" fill-opacity="0.6"/>
</svg>
