<svg width="42" height="38" viewBox="0 0 42 38" fill="none" xmlns="http://www.w3.org/2000/svg">
<path d="M3.75 37.5C2.71875 37.5 1.83594 37.1328 1.10156 36.3984C0.367188 35.6641 0 34.7812 0 33.75V11.25C0 10.2187 0.367188 9.33594 1.10156 8.60156C1.83594 7.86719 2.71875 7.5 3.75 7.5H9.65625L12 4.96875C12.3438 4.59375 12.7578 4.29687 13.2422 4.07812C13.7266 3.85937 14.2344 3.75 14.7656 3.75H22.5C23.0313 3.75 23.4766 3.92969 23.8359 4.28906C24.1953 4.64844 24.375 5.09375 24.375 5.625C24.375 6.15625 24.1953 6.60156 23.8359 6.96094C23.4766 7.32031 23.0313 7.5 22.5 7.5H14.7656L11.3438 11.25H3.75V33.75H33.75V18.75C33.75 18.2187 33.9297 17.7734 34.2891 17.4141C34.6484 17.0547 35.0938 16.875 35.625 16.875C36.1563 16.875 36.6016 17.0547 36.9609 17.4141C37.3203 17.7734 37.5 18.2187 37.5 18.75V33.75C37.5 34.7812 37.1328 35.6641 36.3984 36.3984C35.6641 37.1328 34.7813 37.5 33.75 37.5H3.75ZM33.75 7.5H31.875C31.3438 7.5 30.8984 7.32031 30.5391 6.96094C30.1797 6.60156 30 6.15625 30 5.625C30 5.09375 30.1797 4.64844 30.5391 4.28906C30.8984 3.92969 31.3438 3.75 31.875 3.75H33.75V1.875C33.75 1.34375 33.9297 0.898437 34.2891 0.539062C34.6484 0.179687 35.0938 0 35.625 0C36.1563 0 36.6016 0.179687 36.9609 0.539062C37.3203 0.898437 37.5 1.34375 37.5 1.875V3.75H39.375C39.9063 3.75 40.3516 3.92969 40.7109 4.28906C41.0703 4.64844 41.25 5.09375 41.25 5.625C41.25 6.15625 41.0703 6.60156 40.7109 6.96094C40.3516 7.32031 39.9063 7.5 39.375 7.5H37.5V9.375C37.5 9.90625 37.3203 10.3516 36.9609 10.7109C36.6016 11.0703 36.1563 11.25 35.625 11.25C35.0938 11.25 34.6484 11.0703 34.2891 10.7109C33.9297 10.3516 33.75 9.90625 33.75 9.375V7.5ZM18.75 30.9375C21.0938 30.9375 23.0859 30.1172 24.7266 28.4766C26.3672 26.8359 27.1875 24.8437 27.1875 22.5C27.1875 20.1562 26.3672 18.1641 24.7266 16.5234C23.0859 14.8828 21.0938 14.0625 18.75 14.0625C16.4063 14.0625 14.4141 14.8828 12.7734 16.5234C11.1328 18.1641 10.3125 20.1562 10.3125 22.5C10.3125 24.8437 11.1328 26.8359 12.7734 28.4766C14.4141 30.1172 16.4063 30.9375 18.75 30.9375ZM18.75 27.1875C17.4375 27.1875 16.3281 26.7344 15.4219 25.8281C14.5156 24.9219 14.0625 23.8125 14.0625 22.5C14.0625 21.1875 14.5156 20.0781 15.4219 19.1719C16.3281 18.2656 17.4375 17.8125 18.75 17.8125C20.0625 17.8125 21.1719 18.2656 22.0781 19.1719C22.9844 20.0781 23.4375 21.1875 23.4375 22.5C23.4375 23.8125 22.9844 24.9219 22.0781 25.8281C21.1719 26.7344 20.0625 27.1875 18.75 27.1875Z" fill="white"/>
</svg>
