<svg width="28" height="28" viewBox="0 0 28 28" fill="none" xmlns="http://www.w3.org/2000/svg">
<path d="M13.75 5C13.3958 5 13.099 4.88021 12.8594 4.64063C12.6198 4.40104 12.5 4.10417 12.5 3.75V1.25C12.5 0.895833 12.6198 0.598958 12.8594 0.359375C13.099 0.119792 13.3958 0 13.75 0C14.1042 0 14.401 0.119792 14.6406 0.359375C14.8802 0.598958 15 0.895833 15 1.25V3.75C15 4.10417 14.8802 4.40104 14.6406 4.64063C14.401 4.88021 14.1042 5 13.75 5ZM19.9375 7.5625C19.7083 7.33333 19.5938 7.04688 19.5938 6.70313C19.5938 6.35938 19.7083 6.0625 19.9375 5.8125L21.6875 4.03125C21.9375 3.78125 22.2344 3.65625 22.5781 3.65625C22.9219 3.65625 23.2187 3.78125 23.4687 4.03125C23.6979 4.26042 23.8125 4.55208 23.8125 4.90625C23.8125 5.26042 23.6979 5.55208 23.4687 5.78125L21.6875 7.5625C21.4583 7.79167 21.1667 7.90625 20.8125 7.90625C20.4583 7.90625 20.1667 7.79167 19.9375 7.5625ZM23.75 15C23.3958 15 23.099 14.8802 22.8594 14.6406C22.6198 14.401 22.5 14.1042 22.5 13.75C22.5 13.3958 22.6198 13.099 22.8594 12.8594C23.099 12.6198 23.3958 12.5 23.75 12.5H26.25C26.6042 12.5 26.901 12.6198 27.1406 12.8594C27.3802 13.099 27.5 13.3958 27.5 13.75C27.5 14.1042 27.3802 14.401 27.1406 14.6406C26.901 14.8802 26.6042 15 26.25 15H23.75ZM13.75 27.5C13.3958 27.5 13.099 27.3802 12.8594 27.1406C12.6198 26.901 12.5 26.6042 12.5 26.25V23.75C12.5 23.3958 12.6198 23.099 12.8594 22.8594C13.099 22.6198 13.3958 22.5 13.75 22.5C14.1042 22.5 14.401 22.6198 14.6406 22.8594C14.8802 23.099 15 23.3958 15 23.75V26.25C15 26.6042 14.8802 26.901 14.6406 27.1406C14.401 27.3802 14.1042 27.5 13.75 27.5ZM5.8125 7.5625L4.03125 5.8125C3.78125 5.5625 3.65625 5.26042 3.65625 4.90625C3.65625 4.55208 3.78125 4.26042 4.03125 4.03125C4.26042 3.80208 4.55208 3.6875 4.90625 3.6875C5.26042 3.6875 5.55208 3.80208 5.78125 4.03125L7.5625 5.8125C7.79167 6.04167 7.90625 6.33333 7.90625 6.6875C7.90625 7.04167 7.79167 7.33333 7.5625 7.5625C7.3125 7.79167 7.02083 7.90625 6.6875 7.90625C6.35417 7.90625 6.0625 7.79167 5.8125 7.5625ZM21.6875 23.4687L19.9375 21.6875C19.7083 21.4375 19.5938 21.1406 19.5938 20.7969C19.5938 20.4531 19.7083 20.1667 19.9375 19.9375C20.1667 19.7083 20.4531 19.5938 20.7969 19.5938C21.1406 19.5938 21.4375 19.7083 21.6875 19.9375L23.4687 21.6875C23.7187 21.9167 23.8385 22.2083 23.8281 22.5625C23.8177 22.9167 23.6979 23.2187 23.4687 23.4687C23.2187 23.7187 22.9167 23.8438 22.5625 23.8438C22.2083 23.8438 21.9167 23.7187 21.6875 23.4687ZM1.25 15C0.895833 15 0.598958 14.8802 0.359375 14.6406C0.119792 14.401 0 14.1042 0 13.75C0 13.3958 0.119792 13.099 0.359375 12.8594C0.598958 12.6198 0.895833 12.5 1.25 12.5H3.75C4.10417 12.5 4.40104 12.6198 4.64063 12.8594C4.88021 13.099 5 13.3958 5 13.75C5 14.1042 4.88021 14.401 4.64063 14.6406C4.40104 14.8802 4.10417 15 3.75 15H1.25ZM4.03125 23.4687C3.80208 23.2396 3.6875 22.9479 3.6875 22.5938C3.6875 22.2396 3.80208 21.9479 4.03125 21.7188L5.8125 19.9375C6.04167 19.7083 6.32813 19.5938 6.67188 19.5938C7.01563 19.5938 7.3125 19.7083 7.5625 19.9375C7.8125 20.1875 7.9375 20.4844 7.9375 20.8281C7.9375 21.1719 7.8125 21.4687 7.5625 21.7188L5.8125 23.4687C5.5625 23.7187 5.26042 23.8438 4.90625 23.8438C4.55208 23.8438 4.26042 23.7187 4.03125 23.4687ZM13.75 21.25C11.6667 21.25 9.89583 20.5208 8.4375 19.0625C6.97917 17.6042 6.25 15.8333 6.25 13.75C6.25 11.6667 6.97917 9.89583 8.4375 8.4375C9.89583 6.97917 11.6667 6.25 13.75 6.25C15.8333 6.25 17.6042 6.97917 19.0625 8.4375C20.5208 9.89583 21.25 11.6667 21.25 13.75C21.25 15.8333 20.5208 17.6042 19.0625 19.0625C17.6042 20.5208 15.8333 21.25 13.75 21.25ZM13.75 18.75C15.125 18.75 16.3021 18.2604 17.2812 17.2812C18.2604 16.3021 18.75 15.125 18.75 13.75C18.75 12.375 18.2604 11.1979 17.2812 10.2188C16.3021 9.23958 15.125 8.75 13.75 8.75C12.375 8.75 11.1979 9.23958 10.2188 10.2188C9.23958 11.1979 8.75 12.375 8.75 13.75C8.75 15.125 9.23958 16.3021 10.2188 17.2812C11.1979 18.2604 12.375 18.75 13.75 18.75Z" fill="white"/>
</svg>
