<svg width="18" height="15" viewBox="0 0 18 15" fill="none" xmlns="http://www.w3.org/2000/svg">
<path d="M1 2.00628C0.716667 2.00628 0.479167 1.91015 0.2875 1.71788C0.0958333 1.52561 0 1.28737 0 1.00314C0 0.718919 0.0958333 0.480672 0.2875 0.288403C0.479167 0.0961345 0.716667 0 1 0H17C17.2833 0 17.5208 0.0961345 17.7125 0.288403C17.9042 0.480672 18 0.718919 18 1.00314C18 1.28737 17.9042 1.52561 17.7125 1.71788C17.5208 1.91015 17.2833 2.00628 17 2.00628H1ZM1 14.044C0.716667 14.044 0.479167 13.9479 0.2875 13.7556C0.0958333 13.5633 0 13.3251 0 13.0409C0 12.7566 0.0958333 12.5184 0.2875 12.3261C0.479167 12.1338 0.716667 12.0377 1 12.0377H17C17.2833 12.0377 17.5208 12.1338 17.7125 12.3261C17.9042 12.5184 18 12.7566 18 13.0409C18 13.3251 17.9042 13.5633 17.7125 13.7556C17.5208 13.9479 17.2833 14.044 17 14.044H1ZM1 8.02514C0.716667 8.02514 0.479167 7.92901 0.2875 7.73674C0.0958333 7.54447 0 7.30622 0 7.022C0 6.73777 0.0958333 6.49953 0.2875 6.30726C0.479167 6.11499 0.716667 6.01885 1 6.01885H17C17.2833 6.01885 17.5208 6.11499 17.7125 6.30726C17.9042 6.49953 18 6.73777 18 7.022C18 7.30622 17.9042 7.54447 17.7125 7.73674C17.5208 7.92901 17.2833 8.02514 17 8.02514H1Z" fill="white"/>
</svg>
