<svg width="14" height="8" viewBox="0 0 14 8" fill="none" xmlns="http://www.w3.org/2000/svg">
<g opacity="0.5">
<path d="M7.00286 5.92267L1.30007 0.219887C1.14967 0.0694837 0.970621 -0.00376274 0.762933 0.000148753C0.555245 0.00406025 0.376135 0.0812181 0.225605 0.231622C0.0752016 0.382026 0 0.561072 0 0.76876C0 0.976449 0.0752016 1.15556 0.225605 1.30609L6.03325 7.10199C6.17015 7.23877 6.32352 7.34015 6.49335 7.40615C6.66319 7.47226 6.83302 7.50532 7.00286 7.50532C7.17269 7.50532 7.34253 7.47226 7.51236 7.40615C7.6822 7.34015 7.83557 7.23877 7.97247 7.10199L13.7801 1.29435C13.9305 1.14395 14.0038 0.966859 13.9999 0.763082C13.9959 0.559179 13.9188 0.382026 13.7684 0.231622C13.618 0.0812186 13.4389 0.00601652 13.2312 0.00601651C13.0236 0.0060165 12.8444 0.0812186 12.6939 0.231622L7.00286 5.92267Z" fill="white"/>
</g>
</svg>
