<svg width="93" height="31" viewBox="0 0 93 31" fill="none" xmlns="http://www.w3.org/2000/svg">
<path d="M27.2052 23.5715C26.5697 23.3433 26.4493 23.1912 26.4493 22.9295C26.4493 22.6678 26.6321 22.4598 27.0669 22.4598C27.3858 22.4598 27.5976 22.5649 27.8295 22.7573L28.0569 22.4777C27.7894 22.263 27.5173 22.1377 27.0892 22.1377C26.4961 22.1377 26.0948 22.4419 26.0948 22.9519C26.0948 23.4127 26.3267 23.6364 27.0134 23.8824C27.5954 24.0927 27.7715 24.2604 27.7715 24.5557C27.7715 24.8934 27.5084 25.1037 27.087 25.1037C26.7592 25.1037 26.4827 24.9516 26.2419 24.7212L26.0078 24.9852C26.2575 25.2402 26.6433 25.428 27.0759 25.428C27.7381 25.428 28.1283 25.0388 28.1283 24.54C28.1283 24.0412 27.912 23.8287 27.2074 23.5737L27.2052 23.5715Z" fill="white"/>
<path d="M29.5687 22.9361C29.2588 22.9361 28.9778 23.0122 28.7682 23.1262L28.8975 23.4036C29.0915 23.2895 29.2967 23.2202 29.5464 23.2202C29.8942 23.2202 30.0637 23.3924 30.0637 23.7503V24.0322C29.9232 23.9539 29.7069 23.8935 29.4684 23.8935C28.9979 23.8935 28.5564 24.1216 28.5564 24.6585C28.5564 25.2356 28.9466 25.4235 29.3167 25.4235C29.6601 25.4235 29.8942 25.2624 30.0637 25.0812V25.3742H30.4026V23.7056C30.4026 23.1508 30.0815 22.9316 29.5687 22.9316V22.9361ZM30.0615 24.7904C29.9165 24.9895 29.6846 25.1483 29.3769 25.1483C29.0848 25.1483 28.8886 24.994 28.8886 24.6383C28.8886 24.3386 29.0982 24.1686 29.4483 24.1686C29.7382 24.1686 29.9054 24.2223 30.0615 24.3073V24.7927V24.7904Z" fill="white"/>
<path d="M33.8231 23.9766V25.3769H34.162V23.9207C34.162 23.2228 33.8588 22.9365 33.3727 22.9365C32.9847 22.9365 32.7907 23.1177 32.6503 23.3459C32.5365 23.1177 32.3336 22.9365 31.997 22.9365C31.716 22.9365 31.5153 23.073 31.3927 23.2788V22.988H31.0493V25.3791H31.3927V23.9789C31.3927 23.4488 31.5956 23.2318 31.9234 23.2318C32.2511 23.2318 32.4362 23.4309 32.4362 23.9789V25.3791H32.7774V23.9789C32.7774 23.4488 32.9847 23.2318 33.308 23.2318C33.6514 23.2318 33.8209 23.4309 33.8209 23.9789L33.8231 23.9766Z" fill="white"/>
<path d="M35.5289 23.9849C35.1253 23.8015 35.0049 23.7232 35.0049 23.5196C35.0049 23.3452 35.1476 23.2244 35.3995 23.2244C35.6515 23.2244 35.8076 23.2915 35.9927 23.4391L36.1822 23.1864C36.0016 23.0365 35.7474 22.9336 35.4218 22.9336C34.987 22.9336 34.6771 23.1796 34.6771 23.542C34.6771 23.9245 34.8756 24.0699 35.355 24.2757C35.7764 24.4569 35.9168 24.5665 35.9168 24.7633C35.9168 24.9959 35.763 25.1324 35.4352 25.1324C35.1989 25.1324 34.9759 25.0362 34.7864 24.8684L34.5857 25.1167C34.8131 25.3001 35.0985 25.4232 35.4263 25.4232C35.8388 25.4232 36.2424 25.2196 36.2424 24.7476C36.2424 24.3204 35.9793 24.1884 35.5266 23.9827L35.5289 23.9849Z" fill="white"/>
<path d="M38.2312 24.3834C38.2312 24.9068 37.9703 25.1282 37.6425 25.1282C37.259 25.1282 37.0784 24.8978 37.0784 24.3834V22.9854H36.7395V24.4415C36.7395 25.1282 37.0717 25.4257 37.5734 25.4257C37.8744 25.4257 38.0952 25.2848 38.2312 25.0835V25.3765H38.5723V22.9854H38.2312V24.3834Z" fill="white"/>
<path d="M40.9806 25.3769V23.9207C40.9806 23.2318 40.6483 22.9365 40.1444 22.9365C39.8456 22.9365 39.6227 23.0774 39.4889 23.2788V22.988H39.1455V25.3791H39.4889V23.9789C39.4889 23.4555 39.7453 23.2318 40.0753 23.2318C40.4566 23.2318 40.6394 23.4644 40.6394 23.9789V25.3791H40.9806V25.3769Z" fill="white"/>
<path d="M42.0529 25.9936L42.1621 26.253C43.0474 26.2262 43.3684 25.8795 43.3684 25.1592V22.9828H43.0273V23.2512C42.8601 23.0589 42.6549 22.9336 42.3561 22.9336C41.8567 22.9336 41.4553 23.3698 41.4553 24.2175C41.4553 25.0653 41.8344 25.4232 42.3093 25.4232C42.6326 25.4232 42.8601 25.2621 43.0273 25.0809V25.204C43.0273 25.7609 42.8467 25.9712 42.0507 25.9913L42.0529 25.9936ZM42.3985 25.1279C42.0217 25.1279 41.7942 24.8148 41.7942 24.2131C41.7942 23.5711 41.9882 23.2289 42.3851 23.2289C42.6683 23.2289 42.898 23.3877 43.0295 23.5867V24.7834C42.8623 24.9937 42.6527 25.1279 42.3985 25.1279Z" fill="white"/>
<path d="M47.1278 23.759C47.1278 22.6652 46.5124 22.1865 45.6785 22.1865H44.8379V25.3762H45.6161C46.4656 25.3762 47.1278 24.9154 47.1278 23.759ZM45.1924 22.5086H45.6517C46.3831 22.5086 46.7733 22.956 46.7733 23.7702C46.7733 24.6873 46.3452 25.0519 45.6607 25.0519H45.1924V22.5086Z" fill="white"/>
<path d="M48.0352 23.2807V22.9854H47.6941V25.3766H48.0352V23.9719C48.0352 23.5156 48.2225 23.2494 48.5548 23.2494C48.7131 23.2494 48.8156 23.2852 48.9115 23.3411L48.9963 22.9966C48.916 22.9608 48.8023 22.9385 48.6239 22.9385C48.3675 22.9385 48.1423 23.0928 48.0352 23.2829V23.2807Z" fill="white"/>
<path d="M51.0344 25.1484L50.8738 24.9024C50.6553 25.0478 50.4925 25.1306 50.2138 25.1306C49.8259 25.1306 49.5828 24.8062 49.5516 24.2985H51.1392C51.1503 24.2425 51.1548 24.1933 51.1548 24.1128C51.1548 23.4306 50.8159 22.9385 50.1938 22.9385C49.6274 22.9385 49.2104 23.4104 49.2104 24.1687C49.2104 25.1104 49.7411 25.428 50.1782 25.428C50.5371 25.428 50.7467 25.3319 51.0344 25.1507V25.1484ZM50.1938 23.2315C50.6107 23.2315 50.8114 23.5558 50.8382 24.0189H49.5516C49.5917 23.4843 49.8392 23.2315 50.1938 23.2315Z" fill="white"/>
<path d="M52.2919 25.4254C52.6331 25.4254 52.8672 25.2644 53.0344 25.0832V25.3762H53.3756V23.7075C53.3756 23.1528 53.0545 22.9336 52.5417 22.9336C52.2317 22.9336 51.9508 23.0096 51.7412 23.1237L51.8683 23.4011C52.0645 23.287 52.2674 23.2177 52.5171 23.2177C52.8672 23.2177 53.0344 23.3899 53.0344 23.7478V24.0296C52.894 23.9513 52.6799 23.8909 52.4413 23.8909C51.9686 23.8909 51.5249 24.1191 51.5249 24.6559C51.5249 25.233 51.9173 25.4209 52.2897 25.4209L52.2919 25.4254ZM52.4235 24.1661C52.7134 24.1661 52.8828 24.2198 53.0367 24.3048V24.7901C52.8917 24.9892 52.6598 25.148 52.3521 25.148C52.0623 25.148 51.8638 24.9937 51.8638 24.638C51.8638 24.3383 52.0756 24.1683 52.4235 24.1683V24.1661Z" fill="white"/>
<path d="M56.7959 23.9766V25.3769H57.137V23.9207C57.137 23.2228 56.8338 22.9365 56.3477 22.9365C55.962 22.9365 55.7657 23.1177 55.6275 23.3459C55.5138 23.1177 55.3109 22.9365 54.9742 22.9365C54.691 22.9365 54.4926 23.073 54.3699 23.2788V22.988H54.031V25.3791H54.3699V23.9789C54.3699 23.4488 54.5751 23.2318 54.9028 23.2318C55.2306 23.2318 55.4179 23.4309 55.4179 23.9789V25.3791H55.7568V23.9789C55.7568 23.4488 55.9642 23.2318 56.2897 23.2318C56.6331 23.2318 56.8026 23.4309 56.8026 23.9789L56.7959 23.9766Z" fill="white"/>
<path d="M27.2052 28.3153C26.5675 28.0872 26.4515 27.9373 26.4515 27.6734C26.4515 27.4094 26.6344 27.2059 27.0692 27.2059C27.388 27.2059 27.6021 27.3088 27.8317 27.5011L28.0592 27.2238C27.7916 27.0113 27.5173 26.8838 27.0915 26.8838C26.4961 26.8838 26.097 27.1835 26.097 27.698C26.097 28.1588 26.3289 28.3802 27.0157 28.6263C27.5976 28.8388 27.7738 29.0043 27.7738 29.3018C27.7738 29.6373 27.5107 29.8476 27.087 29.8476C26.7592 29.8476 26.4827 29.6955 26.2419 29.4651L26.0078 29.729C26.2575 29.984 26.6433 30.1697 27.0759 30.1697C27.7381 30.1697 28.1261 29.7827 28.1261 29.2817C28.1261 28.7806 27.9098 28.5703 27.2074 28.3153H27.2052Z" fill="white"/>
<path d="M29.5732 27.9752C29.8141 27.9752 29.9724 28.0602 30.1441 28.2168L30.3492 27.9618C30.1619 27.7963 29.9144 27.6777 29.5955 27.6777C29.0961 27.6777 28.5676 28.0513 28.5676 28.9348C28.5676 29.7692 29.047 30.1673 29.571 30.1673C29.9055 30.1673 30.1374 30.0398 30.338 29.834L30.1329 29.6171C29.9701 29.7759 29.8163 29.8698 29.5844 29.8698C29.163 29.8698 28.911 29.4918 28.911 28.9035C28.911 28.3152 29.1986 27.9708 29.571 27.9708L29.5732 27.9752Z" fill="white"/>
<path d="M31.8051 27.6801C31.5063 27.6801 31.2811 27.821 31.1451 28.0223V26.8994H30.8062V30.1249H31.1451V28.7247C31.1451 28.2012 31.406 27.9776 31.736 27.9776C32.1195 27.9776 32.3001 28.2079 32.3001 28.7247V30.1249H32.6412V28.6643C32.6412 27.9776 32.309 27.6801 31.8051 27.6801Z" fill="white"/>
<path d="M34.1619 27.6797C33.5822 27.6797 33.1206 28.1159 33.1206 28.9278C33.1206 29.7398 33.5643 30.1715 34.1441 30.1715C34.7238 30.1715 35.1898 29.7219 35.1898 28.9099C35.1898 28.098 34.7416 27.6797 34.1619 27.6797ZM34.1552 29.874C33.7405 29.874 33.4618 29.5474 33.4618 28.9189C33.4618 28.2903 33.7405 27.9772 34.1552 27.9772C34.5699 27.9772 34.8486 28.2903 34.8486 28.9189C34.8486 29.5474 34.5677 29.874 34.1552 29.874Z" fill="white"/>
<path d="M36.0438 26.8975H35.7026V30.1229H36.0438V26.8975Z" fill="white"/>
<path d="M37.6024 27.6797C37.2924 27.6797 37.0115 27.758 36.8041 27.8721L36.9312 28.1517C37.1274 28.0376 37.3326 27.9682 37.5823 27.9682C37.9301 27.9682 38.0996 28.1427 38.0996 28.4961V28.7802C37.9591 28.7019 37.7451 28.6415 37.5065 28.6415C37.0338 28.6415 36.5923 28.8697 36.5923 29.4087C36.5923 29.9858 36.9825 30.1715 37.3549 30.1715C37.696 30.1715 37.9301 30.0127 38.0996 29.8315V30.1245H38.4407V28.4581C38.4407 27.8989 38.1174 27.6819 37.6046 27.6819L37.6024 27.6797ZM38.0974 29.534C37.9547 29.7308 37.7183 29.8919 37.4128 29.8919C37.123 29.8919 36.9267 29.7376 36.9267 29.3819C36.9267 29.0799 37.1363 28.9144 37.4864 28.9144C37.7763 28.9144 37.9435 28.9636 38.0974 29.0509V29.534Z" fill="white"/>
<path d="M39.4286 28.027V27.7272H39.0874V30.1206H39.4286V28.7159C39.4286 28.2618 39.6114 27.9912 39.9458 27.9912C40.1064 27.9912 40.209 28.027 40.3048 28.0829L40.3918 27.7362C40.3093 27.7004 40.1978 27.6758 40.0194 27.6758C39.7652 27.6758 39.5356 27.8301 39.4308 28.0247L39.4286 28.027Z" fill="white"/>
<path d="M41.6983 28.731C41.2948 28.5476 41.1721 28.4648 41.1721 28.2657C41.1721 28.0935 41.3171 27.9705 41.5668 27.9705C41.8165 27.9705 41.9771 28.0398 42.1621 28.1852L42.3516 27.9347C42.1688 27.7848 41.9169 27.6797 41.5891 27.6797C41.1565 27.6797 40.8421 27.9257 40.8421 28.2903C40.8421 28.6549 41.0428 28.8182 41.52 29.0218C41.9414 29.203 42.0818 29.3148 42.0818 29.5094C42.0818 29.7443 41.928 29.8785 41.6025 29.8785C41.3639 29.8785 41.1431 29.7823 40.9514 29.6145L40.7529 29.8651C40.9804 30.0485 41.2658 30.1693 41.5935 30.1693C42.006 30.1693 42.4096 29.9635 42.4096 29.496C42.4096 29.0665 42.1465 28.9368 41.6961 28.731H41.6983Z" fill="white"/>
<path d="M43.966 27.6801C43.6627 27.6801 43.442 27.821 43.306 28.0223V26.8994H42.9648V30.1249H43.306V28.7247C43.306 28.2012 43.5646 27.9776 43.8969 27.9776C44.2782 27.9776 44.4588 28.2079 44.4588 28.7247V30.1249H44.7999V28.6643C44.7999 27.9776 44.4699 27.6801 43.966 27.6801Z" fill="white"/>
<path d="M45.8123 27.7275H45.4734V30.1209H45.8123V27.7275Z" fill="white"/>
<path d="M45.6496 26.8145C45.5114 26.8145 45.4021 26.9241 45.4021 27.0627C45.4021 27.2014 45.5114 27.3043 45.6496 27.3043C45.7767 27.3043 45.886 27.1925 45.886 27.0627C45.886 26.9241 45.7767 26.8145 45.6496 26.8145Z" fill="white"/>
<path d="M47.5581 27.6797C47.2371 27.6797 47.0096 27.8407 46.8402 28.0219V27.7289H46.499V31.0014H46.8402V29.8539C47.0074 30.044 47.2125 30.1715 47.5136 30.1715C48.0108 30.1715 48.4121 29.7331 48.4121 28.8876C48.4121 28.042 48.0331 27.6797 47.5581 27.6797ZM47.4846 29.874C47.2036 29.874 46.9717 29.7152 46.8402 29.5139V28.3194C47.0074 28.1114 47.217 27.9749 47.4712 27.9749C47.8502 27.9749 48.0777 28.2881 48.0777 28.8898C48.0777 29.5318 47.8815 29.8718 47.4868 29.8718L47.4846 29.874Z" fill="white"/>
<path d="M50.2161 27.2547H51.7279V26.9326H49.8616V30.1223H50.2161V28.6348H51.0879V28.3127H50.2161V27.2547Z" fill="white"/>
<path d="M52.7625 27.6797C52.1828 27.6797 51.719 28.1159 51.719 28.9278C51.719 29.7398 52.1649 30.1715 52.7447 30.1715C53.3244 30.1715 53.7904 29.7219 53.7904 28.9099C53.7904 28.098 53.3467 27.6797 52.7625 27.6797ZM52.7558 29.874C52.3411 29.874 52.0668 29.5474 52.0668 28.9189C52.0668 28.2903 52.3433 27.9772 52.7558 27.9772C53.1683 27.9772 53.4515 28.2903 53.4515 28.9189C53.4515 29.5474 53.1706 29.874 52.7558 29.874Z" fill="white"/>
<path d="M55.6699 29.1278C55.6699 29.6512 55.4135 29.8749 55.0813 29.8749C54.7 29.8749 54.5171 29.6445 54.5171 29.1278V27.7275H54.1782V29.1859C54.1782 29.8726 54.5105 30.1701 55.0144 30.1701C55.3109 30.1701 55.5339 30.0315 55.6699 29.8301V30.1232H56.0133V27.7298H55.6699V29.13V29.1278Z" fill="white"/>
<path d="M57.5831 27.68C57.2844 27.68 57.0614 27.8209 56.9254 28.0222V27.7292H56.5842V30.1226H56.9254V28.7223C56.9254 28.1989 57.184 27.9752 57.5163 27.9752C57.8975 27.9752 58.0781 28.2056 58.0781 28.7223V30.1226H58.4193V28.6619C58.4193 27.9752 58.0871 27.6777 57.5831 27.6777V27.68Z" fill="white"/>
<path d="M60.4684 28.0002C60.299 27.8078 60.0961 27.6781 59.7951 27.6781C59.2956 27.6781 58.8965 28.1143 58.8965 28.9643C58.8965 29.8143 59.2733 30.1699 59.7505 30.1699C60.0738 30.1699 60.299 30.0111 60.4662 29.8299V30.1229H60.8074V26.8975H60.4662V28.0002H60.4684ZM60.4684 29.5302C60.299 29.7382 60.0916 29.8747 59.8374 29.8747C59.4606 29.8747 59.2332 29.5615 59.2332 28.9598C59.2332 28.3156 59.4272 27.9756 59.824 27.9756C60.105 27.9756 60.3347 28.1344 60.4684 28.3357V29.528V29.5302Z" fill="white"/>
<path d="M62.2523 27.6797C61.9446 27.6797 61.6637 27.758 61.4541 27.8721L61.5789 28.1517C61.7752 28.0376 61.9803 27.9682 62.23 27.9682C62.5779 27.9682 62.7451 28.1427 62.7451 28.4961V28.7802C62.6046 28.7019 62.3906 28.6415 62.1498 28.6415C61.6793 28.6415 61.2378 28.8697 61.2378 29.4087C61.2378 29.9858 61.6302 30.1715 62.0026 30.1715C62.3437 30.1715 62.5779 30.0127 62.7451 29.8315V30.1245H63.0862V28.4581C63.0862 27.8989 62.7652 27.6819 62.2501 27.6819L62.2523 27.6797ZM62.7473 29.534C62.6024 29.7308 62.3727 29.8919 62.0606 29.8919C61.7729 29.8919 61.5789 29.7376 61.5789 29.3819C61.5789 29.0799 61.7863 28.9144 62.1364 28.9144C62.4262 28.9144 62.5957 28.9636 62.7473 29.0509V29.534Z" fill="white"/>
<path d="M64.1743 26.8975H63.8309V27.7273H63.5366V28.0159H63.8309V29.6286C63.8309 30.0245 63.9915 30.1677 64.288 30.1677C64.4664 30.1677 64.5935 30.1408 64.7251 30.0872L64.7496 29.7919C64.6403 29.8366 64.5511 29.859 64.4129 29.859C64.2323 29.859 64.1743 29.7852 64.1743 29.5727V28.0159H64.7652V27.7273H64.1743V26.8975Z" fill="white"/>
<path d="M65.5386 26.8145C65.3981 26.8145 65.2866 26.9241 65.2866 27.0627C65.2866 27.2014 65.3981 27.3043 65.5386 27.3043C65.6657 27.3043 65.7727 27.1925 65.7727 27.0627C65.7727 26.9241 65.6634 26.8145 65.5386 26.8145Z" fill="white"/>
<path d="M65.7015 27.7275H65.3604V30.1209H65.7015V27.7275Z" fill="white"/>
<path d="M67.2579 27.6797C66.6781 27.6797 66.2144 28.1159 66.2144 28.9278C66.2144 29.7398 66.6581 30.1715 67.24 30.1715C67.822 30.1715 68.2835 29.7219 68.2835 28.9099C68.2835 28.098 67.8376 27.6797 67.2579 27.6797ZM67.249 29.874C66.8365 29.874 66.5577 29.5474 66.5577 28.9189C66.5577 28.2903 66.8365 27.9772 67.249 27.9772C67.6615 27.9772 67.9446 28.2903 67.9446 28.9189C67.9446 29.5474 67.6637 29.874 67.249 29.874Z" fill="white"/>
<path d="M69.7751 27.68C69.4763 27.68 69.2533 27.8209 69.1151 28.0222V27.7292H68.7739V30.1226H69.1151V28.7223C69.1151 28.1989 69.3737 27.9752 69.706 27.9752C70.0872 27.9752 70.2701 28.2056 70.2701 28.7223V30.1226H70.609V28.6619C70.609 27.9752 70.2768 27.6777 69.7751 27.6777V27.68Z" fill="white"/>
<path d="M39.1252 15.9082C37.7562 15.9104 36.6279 16.9841 36.6279 18.3307C36.6279 19.6772 37.7562 20.7397 39.1252 20.7442C40.5077 20.7397 41.6248 19.6638 41.6248 18.3307C41.6248 16.9975 40.5077 15.9104 39.1252 15.9082ZM39.0918 19.6392C38.376 19.6392 37.8364 19.0532 37.8364 18.3307C37.8364 17.6082 38.4139 17.011 39.1275 17.011C39.841 17.011 40.3984 17.597 40.3984 18.3307C40.3984 19.0643 39.8142 19.6392 39.094 19.6392H39.0918Z" fill="white"/>
<path d="M27.6666 14.2412C28.0478 14.6192 28.4849 14.9503 28.9152 15.1628L28.9598 15.1874L29.6978 14.3128L29.6265 14.2725C28.9263 13.8923 28.3778 13.4113 28.0188 12.8052C27.6621 12.2079 27.4793 11.5145 27.4793 10.6847V9.90625H26.1592V10.6019C26.1592 11.5011 25.9563 12.2079 25.5751 12.8275C25.1492 13.5142 24.5182 14.0667 23.711 14.579L23.6396 14.6237L24.4401 15.4558L24.4847 15.4312C24.9619 15.1717 25.468 14.7713 25.9073 14.324C26.2886 13.9325 26.6186 13.5142 26.8193 13.1183C27.0132 13.5075 27.3098 13.9034 27.6666 14.2434V14.2412Z" fill="white"/>
<path d="M26.2373 20.1717H31.7626V16.3848H26.2373V20.1717ZM27.4793 17.454H30.5206V19.1025H27.4793V17.454Z" fill="white"/>
<path d="M44.6594 20.1717H50.9071V16.3848H44.6594V20.1717ZM45.888 17.454H49.6808V19.1025H45.888V17.454Z" fill="white"/>
<path d="M31.785 9.68262H30.5564V15.9502H31.785V13.1765H33.2232V12.0626H31.785V9.68262Z" fill="white"/>
<path d="M57.2574 14.5618C57.661 14.913 58.1226 15.2083 58.5574 15.3984L58.602 15.4185L59.2664 14.5171L59.1951 14.4813C58.5618 14.157 57.9977 13.7543 57.5919 13.2622C57.1794 12.7612 56.9341 12.1573 56.9341 11.4303V11.2178H58.7625V10.1396H53.7991V11.2178H55.6253V11.4773C55.6253 12.1394 55.4067 12.7567 55.0433 13.2913C54.6174 13.9333 53.9953 14.45 53.3911 14.7855L53.3108 14.828L54.1269 15.6758L54.1715 15.6534C54.6107 15.4029 55.0968 15.0248 55.5115 14.5999C55.8438 14.2509 56.1426 13.8818 56.3254 13.5128C56.5461 13.8707 56.8851 14.2285 57.2596 14.5618H57.2574Z" fill="white"/>
<path d="M66.1431 17.4784H70.6092V20.1693H71.849V16.4092H66.1431V17.4784Z" fill="white"/>
<path d="M69.2244 13.1679C69.2244 12.5752 68.9591 12.0294 68.5666 11.6134H69.793V10.5464H67.4517V9.37207H66.1206V10.5464H63.7236V11.6134H64.9767C64.5932 12.0294 64.3279 12.5707 64.3279 13.1679C64.3279 14.4899 65.4138 15.5636 66.7717 15.568C68.1296 15.5636 69.2222 14.4899 69.2244 13.1679ZM65.5119 13.1187C65.5119 12.3873 66.1273 11.7677 66.7717 11.7677C67.4161 11.7677 68.0292 12.3895 68.0315 13.1187C68.0315 13.839 67.4161 14.4608 66.7717 14.4631C66.1251 14.4608 65.5141 13.839 65.5119 13.1187Z" fill="white"/>
<path d="M71.8489 9.68262H70.6226V15.9725H71.8489V13.5724H73.2916V12.4585H71.8489V9.68262Z" fill="white"/>
<path d="M61.4427 9.68262H60.2163V15.9725H61.4427V13.1765H62.8831V12.0626H61.4427V9.68262Z" fill="white"/>
<path d="M40.6258 11.5481H38.6948V12.6509H40.6258V16.1716H41.8544V9.68262H40.6258V11.5481Z" fill="white"/>
<path d="M37.5064 14.4045C37.89 14.7803 38.3381 15.1113 38.7662 15.335L38.8131 15.3618L39.5511 14.4872L39.4798 14.447C38.7796 14.0779 38.2423 13.5992 37.881 13.002C37.5154 12.4092 37.3325 11.689 37.3325 10.8591V9.90625H36.0103V10.7786C36.0103 11.6778 35.8096 12.3824 35.4372 12.9908C35.0136 13.6887 34.3692 14.2457 33.562 14.7534L33.4929 14.7982L34.2979 15.6325L34.338 15.6057C34.8129 15.3439 35.3079 14.9659 35.7472 14.5342C36.1441 14.1383 36.4741 13.7066 36.6747 13.2928C36.8643 13.6708 37.1541 14.0555 37.5064 14.4067V14.4045Z" fill="white"/>
<path d="M58.8093 15.9082C57.4403 15.9104 56.312 16.9841 56.3098 18.3307C56.312 19.6638 57.4381 20.7397 58.8093 20.7442C60.1896 20.7397 61.3089 19.6638 61.3089 18.3307C61.3089 16.9975 60.1896 15.9104 58.8093 15.9082ZM58.7737 19.6392C58.0602 19.6392 57.5161 19.0532 57.5161 18.3307C57.5161 17.6082 58.0914 17.011 58.8093 17.011C59.5273 17.011 60.0781 17.597 60.0803 18.3307C60.0803 19.0509 59.4939 19.6392 58.7737 19.6392Z" fill="white"/>
<path d="M46.1554 13.278H47.384V10.0771H44.0684V11.1419H46.1554V13.278Z" fill="white"/>
<path d="M49.8436 13.278H51.0744V10.0771H47.7588V11.1419H49.8436V13.278Z" fill="white"/>
<path d="M81.1599 12.5167H80.1275V9.85709H78.9658V19.9004H80.1275V13.7245H81.1599V20.1688H82.3639V9.68262H81.1599V12.5167Z" fill="white"/>
<path d="M77.2627 13.9062C76.9862 13.3 76.8725 12.6223 76.8725 11.7902V11.3942H78.2661V10.2646H74.2169V11.3942H75.6551V11.8125C75.6551 12.5999 75.5525 13.2441 75.305 13.8413C75.0174 14.528 74.5335 15.1454 73.762 15.8075L73.7085 15.8567L74.4711 16.615L74.5179 16.5792C74.9014 16.2951 75.3028 15.8835 75.6372 15.4585C75.9204 15.1006 76.159 14.7293 76.3084 14.4028C76.4622 14.7204 76.703 15.085 76.984 15.425C77.3095 15.8231 77.6774 16.2012 78.0297 16.4271L78.0765 16.4584L78.7187 15.6889L78.6674 15.6419C77.9762 15.038 77.5481 14.4989 77.2672 13.9039L77.2627 13.9062Z" fill="white"/>
<path d="M43.0405 14.7677H47.1187V15.9622H48.4499V14.7677H52.5927V13.6963H43.0405V14.7677Z" fill="white"/>
<path d="M89.3589 14.4254H85.2071V11.2558H88.3688V10.1396H83.9629V15.508H89.3589V14.4254Z" fill="white"/>
<path d="M87.011 16.8271H85.769V20.1689H91.5775V19.0684H87.011V16.8271Z" fill="white"/>
<path d="M91.5486 12.5863V9.68066H90.3223V17.4178H91.5486V13.7002H93.0002V12.5863H91.5486Z" fill="white"/>
<path d="M26.0455 6.4465L22.8637 5.12454L26.0455 3.80258L25.4791 2.43589L22.2995 3.75785L23.6173 0.565914L22.2527 0L20.9372 3.19193L19.6194 0L18.2548 0.565914L19.5726 3.75785L16.393 2.43589L15.8289 3.80258L19.0085 5.12454L15.8289 6.4465L16.393 7.81319L19.5726 6.49123L18.2548 9.68317L19.6194 10.2491L20.9372 7.05938L22.2527 10.2491L23.6173 9.68093L22.2995 6.49123L25.4791 7.81319L26.0455 6.4465Z" fill="white"/>
<path d="M5.45834 15.3517H7.57436V9.68359H0.338867V11.5938H5.45834V15.3517Z" fill="white"/>
<path d="M13.713 15.3517H15.829V9.68359H8.59351V11.5938H13.713V15.3517Z" fill="white"/>
<path d="M0 18.2843H13.7129V21.2033H15.8289V16.374H0V18.2843Z" fill="white"/>
<path d="M5.11938 30.124H15.8288V22.1855H5.11938V30.124ZM7.23317 24.098H13.7128V28.216H7.23317V24.098Z" fill="white"/>
</svg>
