<svg width="65" height="65" viewBox="0 0 65 65" fill="none" xmlns="http://www.w3.org/2000/svg">
<path d="M56.4924 29.3821C56.4199 29.3821 56.3473 29.4077 56.2748 29.4332C56.2748 29.4332 40.4382 36.249 36.3521 61.7859H36.3763C36.3763 61.7859 36.3521 61.8498 36.3521 61.8754C36.3521 62.1695 36.5818 62.4125 36.8599 62.4125C36.884 62.4125 36.8961 62.4125 36.9203 62.3997H36.9324C36.9324 62.3997 55.8638 62.7194 57.0001 29.9192C57.0001 29.6251 56.7705 29.3821 56.4924 29.3821Z" fill="black"/>
<path d="M40.0036 38.9976C39.8344 38.9976 39.6772 39.036 39.5442 39.1127C39.4113 39.151 36.9693 39.8543 32.0732 39.8543H32.0491C27.1651 39.8543 24.7111 39.151 24.5781 39.1127C24.433 39.0487 24.2759 38.9976 24.1187 38.9976C23.5143 38.9976 23.0307 39.5219 23.0307 40.1485C23.0307 40.4426 23.1395 40.6983 23.2966 40.9029C29.9093 52.5525 30.4412 61.2864 30.4412 61.2864C30.4412 62.2327 31.1666 62.9999 32.0611 62.9999C32.9557 62.9999 33.6932 62.2327 33.6932 61.2864C33.6932 61.2864 34.2251 52.5525 40.8257 40.9029C40.9949 40.6983 41.0916 40.4426 41.0916 40.1485C41.0916 39.5091 40.6081 38.9976 40.0036 38.9976Z" fill="black"/>
<path d="M7.72547 29.4452C7.66502 29.4196 7.59246 29.394 7.50784 29.394C7.22979 29.394 7.00012 29.637 7.00012 29.9311C8.13649 62.7313 27.0679 62.4244 27.0679 62.4244C27.0679 62.4244 27.1162 62.4244 27.1404 62.4244C27.4184 62.4244 27.6481 62.1815 27.6481 61.8874C27.6481 61.8618 27.636 61.8362 27.636 61.8107H27.6481C23.562 36.261 7.72547 29.4452 7.72547 29.4452Z" fill="black"/>
<path d="M52.6367 10.5839C46.8702 0.353845 31.9041 3.43563 31.9041 3.43563C31.9041 3.43563 16.9379 0.353845 11.1714 10.5839C11.1714 10.5839 0.787004 20.6222 13.5651 29.3817C13.5651 29.3817 20.1294 37.195 31.9041 37.195C43.6788 37.195 50.231 29.3817 50.231 29.3817C63.0211 20.6094 52.6367 10.5839 52.6367 10.5839ZM48.6231 13.2821C47.7044 13.5762 42.3852 15.4304 38.6135 19.369C38.5409 19.4202 38.4684 19.4969 38.42 19.5736C38.3112 19.7271 38.2508 19.9189 38.2508 20.1235C38.2508 20.5711 38.553 20.9291 38.9519 21.0058C39.4718 21.1721 42.7358 22.323 46.29 25.5582C46.3867 25.6605 46.4592 25.8012 46.4592 25.9546C46.4592 26.2488 46.2295 26.4917 45.9515 26.4917C45.8669 26.4917 45.7822 26.4661 45.7097 26.4278C45.4679 26.2743 41.4181 23.7807 31.9282 23.7807C22.4384 23.7807 18.3886 26.2743 18.1347 26.4278C18.0622 26.4661 17.9896 26.4917 17.905 26.4917C17.6149 26.4917 17.3973 26.2488 17.3973 25.9546C17.3973 25.8012 17.4698 25.6605 17.5665 25.5582C21.1207 22.323 24.3847 21.1721 24.8924 21.0058C25.2914 20.9291 25.6057 20.5711 25.6057 20.1235C25.6057 19.9189 25.5332 19.7271 25.4244 19.5864C25.3639 19.5097 25.3035 19.4329 25.2309 19.3818C21.4592 15.4432 16.14 13.589 15.2213 13.2949C14.9795 13.2565 14.7981 13.0392 14.7981 12.7706C14.7981 12.4765 15.0278 12.2335 15.3059 12.2335C22.7285 12.2335 27.5158 15.9291 28.4224 16.6836C28.4708 16.7348 28.5071 16.7731 28.5675 16.8115C28.7005 16.901 28.8455 16.9521 29.0148 16.9521C29.3775 16.9521 29.6918 16.6964 29.8127 16.3384H29.8248C30.5018 14.6504 31.4205 8.60183 31.4205 8.60183C31.4205 8.30772 31.6502 8.06478 31.9282 8.06478C32.2063 8.06478 32.436 8.30772 32.436 8.60183C32.436 8.60183 33.3547 14.6504 34.0317 16.3384C34.1526 16.6964 34.4548 16.9521 34.8296 16.9521C34.9867 16.9521 35.1439 16.901 35.2769 16.8115C35.3252 16.7731 35.3736 16.7348 35.4219 16.6836C36.3165 15.9291 41.1038 12.2335 48.5385 12.2335C48.8165 12.2335 49.0463 12.4765 49.0463 12.7706C49.0463 13.0392 48.8649 13.2438 48.6231 13.2949V13.2821Z" fill="black"/>
</svg>
