<svg width="48" height="48" viewBox="0 0 48 48" fill="none" xmlns="http://www.w3.org/2000/svg">
<path d="M47 23.9792C47 24.4332 46.6503 24.4332 45.4129 24.8071C44.9018 24.9674 44.6327 25.7685 44.2292 27.0504C43.3415 29.7478 40.517 34.1009 34.6526 34.1009C28.7883 34.1009 25.6947 29.1335 25.4795 28.8665C25.1836 28.4659 24.6994 28.092 24.2959 28.092C24.0269 28.092 23.8386 28.1988 23.6772 28.3056C21.552 29.7478 19.2386 31.3769 19.2386 35.1157C19.2386 37.5727 21.3099 40.3769 24.807 40.3769C27.793 40.3769 29.7567 37.5727 30.3754 35.6231C30.5906 34.9555 30.5368 34.6884 30.8865 34.6884C31.3439 34.6884 31.5053 35.7033 32.124 35.7033C32.6351 35.7033 32.4737 35.4362 33.1462 35.4362C33.7649 35.4362 33.9263 36.2641 34.4374 36.2641C35.1637 36.2641 36.1322 35.6498 36.6164 35.6498C36.7778 35.6498 37.0199 35.6498 37.0199 35.8101C37.0199 36.0771 36.5626 36.3175 36.1322 36.6914C35.2444 37.4659 34.5988 37.9199 33.9263 39.0415C31.5591 43.0208 28.8152 43.7418 27.4164 44.1691C26.9053 44.3294 26.3942 44.5697 26.1789 45.0504C25.3988 46.7864 24.9415 47 24.7263 47C24.4573 47 24.3766 46.7062 24.3228 46.0386C24.269 45.3175 23.8655 44.4896 22.4667 44.2493C18.9158 43.5816 14.531 40.003 14.531 34.3679C14.531 29.2938 18.4047 27.3175 20.3684 25.368C20.6374 25.1009 20.8257 24.8071 20.8257 24.3531V24.1929C20.8257 23.9525 20.7719 23.632 20.4491 23.2315C18.4854 20.7745 17.0058 19.1454 14.3158 19.1454C11.3836 19.1454 8.80117 21.549 8.80117 25.0208C8.80117 28.7596 10.6573 30.0415 12.5135 30.4955C13.1322 30.6558 13.3474 30.7092 13.3474 30.8961C13.3474 31.2967 12.9439 31.2166 12.9439 31.8309C12.9439 32.2849 13.2936 32.2315 13.2936 32.9525C13.2936 33.4599 12.8363 33.6202 12.8363 34.3947C12.8363 35.0089 13.1322 35.2226 13.1322 35.5697C13.1322 36.0237 13.4012 35.9703 13.4012 36.9585C13.4012 37.2255 13.5088 37.4125 13.2936 37.4125C13.0784 37.4125 12.8363 37.0653 12.5135 36.5846C11.7871 35.5163 11.007 34.8487 10.4421 34.4214C5.94971 31.1899 5.7883 29.7745 4.65848 27.5579C4.38947 27.0504 4.30877 26.1691 3.77076 25.9288C2.12982 25.1009 1 24.8605 1 23.5252C1 22.911 1.72632 23.5252 2.85614 23.5252C3.47485 23.5252 4.20117 23.632 4.55088 22.3501C5.33099 19.6261 8.55906 15.273 14.2351 15.273C20.2608 15.273 23.2468 20.2404 23.462 20.5074C23.8655 21.0682 24.2421 21.2819 24.6456 21.2819C24.9146 21.2819 25.1029 21.2819 25.5602 20.8813C29.3801 17.5163 29.676 16.0208 29.676 14.0712C29.676 11.6142 27.7123 8.75668 24.2152 8.75668C20.7181 8.75668 19.0503 11.5074 18.593 13.5638C18.4316 14.2315 18.324 14.5786 18.0281 14.5786C17.5708 14.5786 17.5708 13.9644 17.0596 13.9644C16.2257 13.9644 16.145 14.3116 15.7146 14.3116C15.1497 14.3116 15.1497 13.2967 14.3158 13.2967C14.1006 13.2967 13.6433 13.5638 13.3474 13.5638C12.5673 13.5638 12.5135 13.724 12.1637 13.724C11.7602 13.724 11.3298 13.5104 11.3298 13.2166C11.3298 12.9228 11.5988 12.7092 12.4058 12.3086C13.4819 11.7478 14.4772 11.3472 14.9883 10.1988C16.5754 6.67359 20.0994 5.55193 21.4444 5.04451C21.9556 4.83086 22.2246 4.64392 22.4667 4.1632C23.5427 2.21365 24.0269 2 24.3228 2C24.6187 2 24.5918 2.50742 24.7263 3.12166C24.8877 3.84273 24.8877 4.40356 26.0713 4.69733C29.4339 5.57864 34.3567 8.64985 34.3567 14.2582C34.3567 19.8665 28.7883 23.4184 28.5193 23.632C27.9006 24.0861 27.6854 24.4599 27.6854 24.8071C27.6854 25.0742 27.8468 25.368 28.0082 25.6884C29.3532 28.359 31.6667 30.095 34.3567 30.095C37.5579 30.095 40.0327 27.1306 40.0327 24.0593C40.0327 20.9881 37.9614 19.1454 36.1591 18.5846C35.4866 18.3709 35.1906 18.3709 35.1906 18.0237C35.1906 17.6231 35.648 17.7567 35.648 17.1424C35.648 16.6884 35.4327 16.7953 35.4327 16.0742C35.4327 15.5668 36.0515 15.4065 36.0515 14.632C36.0515 14.0178 35.7556 13.8042 35.7556 13.457C35.7556 13.003 35.5942 13.0564 35.5942 12.0682C35.5942 11.8012 35.4866 11.6142 35.7018 11.6142C35.9708 11.6142 36.2129 11.9614 36.5357 12.4421C37.262 13.5104 37.8269 14.3383 38.3918 14.6855C42.4538 17.2493 43.3415 18.8783 44.283 21.1751C44.4982 21.6825 44.6865 22.5638 45.3053 22.911C45.8164 23.2315 46.9462 23.5786 46.9462 23.9792" fill="#231815"/>
</svg>
