<svg width="27" height="19" viewBox="0 0 27 19" fill="none" xmlns="http://www.w3.org/2000/svg">
<path d="M0 18.6667V10.6667C0 10.0667 0.122222 9.52222 0.366667 9.03333C0.611111 8.54444 0.933333 8.11111 1.33333 7.73333V4C1.33333 2.88889 1.72222 1.94444 2.5 1.16667C3.27778 0.388889 4.22222 0 5.33333 0H10.6667C11.1778 0 11.6556 0.0944444 12.1 0.283333C12.5444 0.472222 12.9556 0.733333 13.3333 1.06667C13.7111 0.733333 14.1222 0.472222 14.5667 0.283333C15.0111 0.0944444 15.4889 0 16 0H21.3333C22.4444 0 23.3889 0.388889 24.1667 1.16667C24.9444 1.94444 25.3333 2.88889 25.3333 4V7.73333C25.7333 8.11111 26.0556 8.54444 26.3 9.03333C26.5444 9.52222 26.6667 10.0667 26.6667 10.6667V18.6667H24V16H2.66667V18.6667H0ZM14.6667 6.66667H22.6667V4C22.6667 3.62222 22.5389 3.30556 22.2833 3.05C22.0278 2.79444 21.7111 2.66667 21.3333 2.66667H16C15.6222 2.66667 15.3056 2.79444 15.05 3.05C14.7944 3.30556 14.6667 3.62222 14.6667 4V6.66667ZM4 6.66667H12V4C12 3.62222 11.8722 3.30556 11.6167 3.05C11.3611 2.79444 11.0444 2.66667 10.6667 2.66667H5.33333C4.95556 2.66667 4.63889 2.79444 4.38333 3.05C4.12778 3.30556 4 3.62222 4 4V6.66667ZM2.66667 13.3333H24V10.6667C24 10.2889 23.8722 9.97222 23.6167 9.71667C23.3611 9.46111 23.0444 9.33333 22.6667 9.33333H4C3.62222 9.33333 3.30556 9.46111 3.05 9.71667C2.79444 9.97222 2.66667 10.2889 2.66667 10.6667V13.3333Z" fill="#00205E"/>
</svg>
