<svg width="190" height="30" viewBox="0 0 190 30" fill="none" xmlns="http://www.w3.org/2000/svg">
<g clip-path="url(#clip0_42_138)">
<path d="M189.84 15.2127L184.273 15.1417V18.9183C184.273 23.7765 183.423 27.3403 183.015 28.4041C182.749 28.7056 182.128 28.8829 181.756 28.7765C181.526 27.9254 181.047 25.2836 181.047 20.8864V3.9006C181.047 3.19138 179.043 1.71974 178.299 1.48925C178.104 1.41833 178.742 0.673645 178.937 0.673645C180.462 0.673645 184.469 1.59563 184.38 2.30485C184.309 2.78357 184.273 3.35095 184.273 3.97152V13.6878L188.493 12.0212C188.865 11.8793 190.532 15.2127 189.858 15.2127M178.281 17.0566C178.866 17.8722 177.288 21.3297 176.721 20.5141C175.905 19.3616 173.672 15.9573 171.668 13.6878C168.991 17.429 165.658 20.4431 162.662 22.0389C162.29 22.0034 161.847 21.4538 161.847 21.1169C165.552 17.819 169.736 12.0389 171.491 6.77294C171.597 6.47152 170.339 5.54953 169.789 5.21265C169.612 5.10627 170.374 4.53889 170.569 4.53889C171.58 4.53889 174.381 5.69138 175.055 6.1701C175.427 6.43606 175.462 6.61336 175.285 7.05662C174.54 8.98925 173.548 10.8332 172.431 12.5353C174.948 14.2729 177.732 16.2765 178.281 17.0566ZM160.286 15.5318L154.684 15.4254V18.9183C154.684 23.7765 153.904 27.3403 153.461 28.4041C153.195 28.7056 152.574 28.8829 152.237 28.7765C151.972 27.9254 151.528 25.2836 151.528 20.8864V3.9006C151.528 3.19138 149.525 1.79067 148.78 1.48925C148.603 1.41833 149.224 0.673645 149.419 0.673645C150.943 0.673645 154.861 1.59563 154.79 2.30485C154.755 2.78357 154.684 3.35095 154.684 3.97152V13.9892L158.921 12.358C159.329 12.1807 160.996 15.5141 160.286 15.5141M142.079 17.1985C143.639 17.1985 144.791 16.1169 144.791 14.4502C144.791 12.7836 143.71 11.6666 142.079 11.6666C140.448 11.6666 139.366 12.7836 139.366 14.4502C139.366 16.1169 140.448 17.1985 142.079 17.1985ZM136.778 3.0318C136.742 2.88996 136.92 2.42896 137.115 2.4467C138.232 2.65946 139.366 2.8545 140.785 3.0318L144.242 3.40414C144.543 3.4396 145.873 5.26584 144.986 5.26584H139.756C138.87 5.26584 136.831 3.33322 136.76 3.0318M133.303 7.16301C133.268 7.05662 133.48 6.68428 133.569 6.71974C134.154 6.93251 136.228 6.9857 138.196 6.95024L145.27 6.87932C147.309 6.84386 147.912 5.83322 148.231 5.83322C148.568 5.83322 149.862 7.624 149.862 8.45733C149.862 8.59918 149.72 8.68783 149.49 8.68783C149.153 8.68783 147.185 8.58145 145.625 8.58145L138.019 8.61691C136.796 8.61691 135.98 8.88286 135.608 9.21974C134.65 8.95379 133.463 7.51762 133.339 7.14528M150.199 21.0637C147.149 22.4644 141.299 23.28 137.292 23.7765C136.211 23.9183 135.555 24.1134 134.916 24.4857C133.888 24.2197 132.399 22.7127 132.257 22.1453C132.293 21.968 132.434 21.8084 132.523 21.702C133.64 21.702 135.271 21.7375 137.239 21.6311C138.462 21.5602 139.615 21.4892 140.661 21.4006L140.466 18.4751C137.877 18.0318 136.282 16.507 136.282 14.397C136.282 12.0921 138.285 10.5318 141.441 10.3545C141.476 10.2127 141.512 10.124 141.512 9.98216C141.512 9.7162 141.441 9.39705 141.068 9.13109C141.068 8.49279 143.107 9.13109 143.107 9.46797C143.107 9.60982 142.93 10.0176 142.841 10.3545C145.926 10.5673 147.876 12.1275 147.876 14.397C147.876 16.507 146.21 18.0318 143.657 18.4751L143.515 21.1169C146.742 20.7446 148.922 20.2304 150.376 19.7517C150.677 19.6453 150.553 20.8687 150.181 21.046M111.568 4.52116L111.532 10.1949H119.439L119.634 4.52116H111.55H111.568ZM106.444 3.2623C106.408 3.08499 106.887 2.51762 107.118 2.51762C107.703 2.51762 109.724 2.58854 111.053 2.81904H118.588C119.545 2.81904 120.042 2.67719 120.414 2.34031C120.822 2.19847 123.464 2.60627 123.41 3.04953L122.293 9.87577C122.772 10.319 123.41 11.2056 123.41 11.6843C123.41 11.8261 123.269 11.9148 123.038 11.9148C122.701 11.9148 121.442 11.8793 119.545 11.8793H111.195C110.982 12.2517 110.717 12.5885 110.415 12.9431C110.114 13.2446 109.564 13.3864 109.156 13.28C108.82 12.4644 108.536 10.9041 108.305 8.08499L108.004 4.55662C107.969 4.21974 107.011 3.47506 106.444 3.2623ZM125.254 27.3758C125.254 27.5176 125.148 27.6063 124.882 27.6063H121.389L111 27.6417C108.11 27.6417 107.543 26.6488 107.543 24.7162V21.8261C107.543 21.3119 106.462 20.4254 105.841 20.3368C105.646 20.3013 106.32 19.4502 106.586 19.4502C107.774 19.4502 109.546 19.7162 110.433 20.0531C110.61 20.124 110.876 20.2304 110.805 20.6027C110.734 21.046 110.734 21.6843 110.734 22.2339V24.7517C110.734 25.7978 111.107 25.9396 112.028 25.9396L120.751 25.9041C122.595 25.9041 123.198 24.8758 123.428 24.8758C123.907 24.8758 125.254 26.5779 125.254 27.358M128.552 16.3829C128.552 16.5602 128.41 16.6488 128.179 16.6488H117.418V18.6169C117.418 20.6205 116.673 22.358 116.159 23.1382C115.893 23.4396 115.308 23.5814 114.936 23.4751C114.635 22.5531 114.191 21.3297 114.191 19.0956V16.6488H106.958C105.735 16.6488 104.919 16.9857 104.547 17.3226C103.59 17.0566 101.657 15.5495 101.657 15.2127C101.657 15.0708 101.834 14.6985 101.923 14.7339C102.508 14.9467 104.582 14.9644 106.55 14.9644L123.198 14.929C125.307 14.929 126.017 13.741 126.282 13.741C126.655 13.741 128.552 15.5495 128.552 16.3651M81.1271 7.78357C81.1271 9.96443 82.5454 11.4183 84.6906 11.4183C86.8358 11.4183 88.4668 9.96443 88.4668 7.78357C88.4668 5.60272 86.9421 4.14882 84.726 4.14882C82.5099 4.14882 81.1271 5.62045 81.1271 7.78357ZM77.9004 7.88996C77.9004 4.84031 80.347 2.80131 84.1233 2.58854C84.1587 2.48216 84.1942 2.3935 84.1942 2.28712C84.1942 1.9857 84.1233 1.64882 83.68 1.32967C83.68 0.655915 85.9493 1.32967 85.9493 1.70201C85.9493 1.84386 85.772 2.25166 85.6834 2.58854C89.2824 2.8545 91.658 4.8935 91.658 7.88996C91.658 11.046 88.91 13.1205 84.797 13.1205C80.6839 13.1205 77.9004 11.046 77.9004 7.88996ZM98.2177 17.163C98.2177 17.3049 98.0759 17.3935 97.8454 17.3935H90.4702V19.0247C90.4702 23.6169 89.6547 27.1807 89.2114 28.2268C88.9455 28.5283 88.325 28.6701 87.9882 28.5992C87.7222 27.7481 87.2435 25.1063 87.2435 20.9928V17.3935L82.049 17.429V18.4573C82.049 23.0141 81.2335 26.5779 80.8257 27.624C80.5598 27.9254 79.9393 28.0673 79.5669 27.9963C79.3365 27.1453 78.8578 24.5034 78.8578 20.4254V17.429H76.624C75.4007 17.429 74.5851 17.7658 74.2128 18.1027C73.2555 17.8368 71.323 16.3297 71.323 15.9573C71.323 15.8509 71.5003 15.4786 71.589 15.5141C72.174 15.7091 74.2483 15.7446 76.2162 15.7446L92.8636 15.6736C94.9733 15.6736 95.6825 14.4857 95.9484 14.4857C96.3207 14.4857 98.2177 16.3119 98.2177 17.1275M51.059 6.41833C51.059 8.28003 52.4596 9.60982 54.5516 9.60982C56.6436 9.60982 58.0441 8.28003 58.0441 6.41833C58.0441 4.55662 56.6436 3.29776 54.5516 3.29776C52.4596 3.29776 51.059 4.59208 51.059 6.41833ZM47.8323 6.56017C47.8323 3.88286 50.1725 1.93251 53.8069 1.70201C53.8424 1.52471 53.9133 1.4006 53.9133 1.22329C53.9133 0.921872 53.8069 0.602723 53.3992 0.301305C53.3992 -0.407915 55.6685 0.301305 55.6685 0.638184C55.6685 0.85095 55.438 1.31194 55.2962 1.68428C58.8951 1.91478 61.3062 3.86513 61.3062 6.54244C61.3062 9.36159 58.5583 11.3651 54.5516 11.3651C50.5448 11.3651 47.8323 9.36159 47.8323 6.54244M63.9301 27.9254C63.9301 28.1027 63.7883 28.1559 63.5578 28.1559H50.3498C48.0805 28.1559 47.2827 27.3758 47.2295 25.6027L47.1586 23.3332C47.1586 22.9963 46.2722 22.5531 45.7049 22.3048C45.6694 22.1275 46.1835 21.5602 46.4495 21.5602C47.0877 21.5602 49.5166 21.702 50.3853 22.0034H58.9838L59.0192 19.2552H50.4207C49.3747 19.2552 48.6833 19.5212 48.311 19.8758C47.0877 19.6985 46.0949 18.1027 46.0772 17.8722C46.0417 17.6949 46.219 17.358 46.3786 17.3935C47.46 17.5885 48.8251 17.5885 50.793 17.5885H57.8314C58.7887 17.5885 59.2852 17.4822 59.6575 17.1098C60.0652 17.0744 62.7777 17.3758 62.6891 17.819L61.8381 21.8261C62.4763 22.3049 62.8841 23.1205 62.8841 23.3155C62.8841 23.4928 62.7777 23.6169 62.6182 23.6169C62.3168 23.6169 60.3843 23.5814 58.8065 23.5814H50.3853V25.0708C50.3853 26.2233 50.7221 26.4538 52.2468 26.4538H59.6929C61.8026 26.4538 62.104 25.5673 62.3345 25.5673C62.8132 25.5673 63.9301 27.163 63.9301 27.8722M67.8127 14.7871C67.8127 14.929 67.6709 15.0176 67.4404 15.0176H62.6536L46.2367 15.0531C45.0489 15.0531 44.2334 15.39 43.8611 15.6914C42.8682 15.4254 41.1131 13.9538 40.9713 13.5814C40.9358 13.4751 41.1486 13.1027 41.2372 13.1382C41.8222 13.3509 43.8788 13.3864 45.8644 13.3864L62.4763 13.3155C64.5506 13.3155 65.2598 12.1275 65.5612 12.1275C65.9335 12.1275 67.795 13.9538 67.795 14.7694M30.2985 14.7162C30.2985 15.0176 30.068 15.0176 29.2525 15.2658C28.9156 15.3722 28.7384 15.9041 28.4724 16.7552C27.8874 18.546 26.0258 21.4361 22.161 21.4361C18.2961 21.4361 16.2573 18.1382 16.1154 17.9609C15.9204 17.6949 15.6013 17.4467 15.3354 17.4467C15.1581 17.4467 15.034 17.5176 14.9276 17.5885C13.527 18.546 12.0023 19.6275 12.0023 22.1098C12.0023 23.741 13.3675 25.6027 15.6722 25.6027C17.6401 25.6027 18.9343 23.741 19.3421 22.4467C19.4839 22.0034 19.4484 21.8261 19.6789 21.8261C19.9803 21.8261 20.0867 22.4999 20.4944 22.4999C20.8313 22.4999 20.7249 22.3226 21.1681 22.3226C21.5759 22.3226 21.6823 22.8722 22.0191 22.8722C22.4978 22.8722 23.136 22.4644 23.4552 22.4644C23.5615 22.4644 23.7211 22.4644 23.7211 22.5708C23.7211 22.7481 23.4197 22.9077 23.136 23.1559C22.551 23.6701 22.1255 23.9715 21.6823 24.7162C20.1221 27.358 18.3138 27.8368 17.3919 28.1205C17.0551 28.2268 16.7182 28.3864 16.5764 28.7056C16.0622 29.858 15.7608 29.9999 15.619 29.9999C15.4417 29.9999 15.3885 29.8049 15.3531 29.3616C15.3176 28.8829 15.0517 28.3332 14.1298 28.1736C11.7896 27.7304 8.89979 25.3545 8.89979 21.6134C8.89979 18.2446 11.4527 16.9325 12.7469 15.6382C12.9242 15.4609 13.0483 15.2658 13.0483 14.9644V14.858C13.0483 14.6985 13.0129 14.4857 12.8001 14.2197C11.5059 12.5885 10.5308 11.507 8.75796 11.507C6.82551 11.507 5.12354 13.1027 5.12354 15.4077C5.12354 17.89 6.34683 18.741 7.57012 19.0424C7.97789 19.1488 8.11972 19.1843 8.11972 19.3084C8.11972 19.5744 7.85378 19.5212 7.85378 19.929C7.85378 20.2304 8.08426 20.1949 8.08426 20.6736C8.08426 21.0105 7.78287 21.1169 7.78287 21.6311C7.78287 22.0389 7.97789 22.1807 7.97789 22.4112C7.97789 22.7127 8.15517 22.6772 8.15517 23.3332C8.15517 23.5105 8.22609 23.6346 8.08426 23.6346C7.94243 23.6346 7.78287 23.4041 7.57012 23.085C7.09144 22.3758 6.57731 21.9325 6.205 21.6488C3.24428 19.5034 3.13791 18.5637 2.3933 17.0921C2.21601 16.7552 2.16283 16.1701 1.80825 16.0105C0.726789 15.4609 -0.0178223 15.3013 -0.0178223 14.4148C-0.0178223 14.007 0.460856 14.4148 1.20547 14.4148C1.61323 14.4148 2.09191 14.4857 2.32238 13.6346C2.83652 11.8261 4.96398 8.93606 8.70477 8.93606C12.676 8.93606 14.6439 12.2339 14.7858 12.4112C15.0517 12.7836 15.2999 12.9254 15.5658 12.9254C15.7431 12.9254 15.8672 12.9254 16.1686 12.6595C18.6861 10.4254 18.8811 9.43251 18.8811 8.13818C18.8811 6.50698 17.5869 4.60982 15.2822 4.60982C12.9774 4.60982 11.8782 6.43606 11.5768 7.8013C11.4705 8.24457 11.3996 8.47506 11.2045 8.47506C10.9031 8.47506 10.9031 8.06726 10.5663 8.06726C10.0167 8.06726 9.96352 8.29776 9.67986 8.29776C9.30755 8.29776 9.30755 7.624 8.75796 7.624C8.61612 7.624 8.31473 7.8013 8.11972 7.8013C7.60558 7.8013 7.57012 7.90769 7.33965 7.90769C7.07371 7.90769 6.79005 7.76584 6.79005 7.57081C6.79005 7.37577 6.96734 7.23393 7.49921 6.96797C8.20836 6.59563 8.86433 6.32967 9.20118 5.56726C10.2472 3.22684 12.5697 2.48216 13.4561 2.14528C13.7929 2.00343 13.9702 1.87932 14.1298 1.56017C14.8389 0.265844 15.1581 0.124 15.3531 0.124C15.5481 0.124 15.5304 0.460879 15.619 0.868681C15.7254 1.3474 15.7254 1.71974 16.5055 1.91478C18.7216 2.49989 21.9659 4.53889 21.9659 8.2623C21.9659 11.9857 18.2961 14.3439 18.1188 14.4857C17.711 14.7871 17.5692 15.0353 17.5692 15.2658C17.5692 15.4431 17.6756 15.6382 17.7819 15.8509C18.6684 17.624 20.1931 18.7765 21.9659 18.7765C24.0757 18.7765 25.7067 16.8084 25.7067 14.7694C25.7067 12.7304 24.3416 11.507 23.1538 11.1346C22.7106 10.9928 22.5155 10.9928 22.5155 10.7623C22.5155 10.4963 22.8169 10.585 22.8169 10.1772C22.8169 9.87577 22.6751 9.94669 22.6751 9.46797C22.6751 9.13109 23.0829 9.02471 23.0829 8.51052C23.0829 8.10272 22.8878 7.96088 22.8878 7.73038C22.8878 7.42896 22.7815 7.46443 22.7815 6.8084C22.7815 6.63109 22.7106 6.50698 22.8524 6.50698C23.0297 6.50698 23.1892 6.73747 23.402 7.05662C23.8807 7.76584 24.253 8.31549 24.6253 8.54599C27.3023 10.2481 27.8874 11.3297 28.5079 12.8545C28.6497 13.1914 28.7738 13.7765 29.1816 14.007C29.5184 14.2197 30.263 14.4502 30.263 14.7162" fill="white"/>
</g>
<defs>
<clipPath id="clip0_42_138">
<rect width="190" height="30" fill="white"/>
</clipPath>
</defs>
</svg>
