<svg width="190" height="30" viewBox="0 0 190 30" fill="none" xmlns="http://www.w3.org/2000/svg">
<g clip-path="url(#clip0_45_79)">
<path d="M189.841 15.2127L184.274 15.1417V18.9183C184.274 23.7765 183.423 27.3403 183.015 28.4041C182.749 28.7056 182.129 28.8829 181.756 28.7765C181.526 27.9254 181.047 25.2836 181.047 20.8864V3.9006C181.047 3.19138 179.044 1.71974 178.299 1.48925C178.104 1.41833 178.742 0.673645 178.937 0.673645C180.462 0.673645 184.469 1.59563 184.38 2.30485C184.309 2.78357 184.274 3.35095 184.274 3.97152V13.6878L188.493 12.0212C188.866 11.8793 190.532 15.2127 189.858 15.2127M178.281 17.0566C178.866 17.8722 177.289 21.3297 176.721 20.5141C175.906 19.3616 173.672 15.9573 171.669 13.6878C168.991 17.429 165.658 20.4431 162.662 22.0389C162.29 22.0034 161.847 21.4538 161.847 21.1169C165.552 17.819 169.736 12.0389 171.491 6.77294C171.598 6.47152 170.339 5.54953 169.789 5.21265C169.612 5.10627 170.374 4.53889 170.569 4.53889C171.58 4.53889 174.381 5.69138 175.055 6.1701C175.427 6.43606 175.463 6.61336 175.285 7.05662C174.541 8.98925 173.548 10.8332 172.431 12.5353C174.948 14.2729 177.732 16.2765 178.281 17.0566ZM160.287 15.5318L154.684 15.4254V18.9183C154.684 23.7765 153.904 27.3403 153.461 28.4041C153.195 28.7056 152.575 28.8829 152.238 28.7765C151.972 27.9254 151.529 25.2836 151.529 20.8864V3.9006C151.529 3.19138 149.525 1.79067 148.781 1.48925C148.603 1.41833 149.224 0.673645 149.419 0.673645C150.944 0.673645 154.862 1.59563 154.791 2.30485C154.755 2.78357 154.684 3.35095 154.684 3.97152V13.9892L158.921 12.358C159.329 12.1807 160.996 15.5141 160.287 15.5141M142.079 17.1985C143.639 17.1985 144.792 16.1169 144.792 14.4502C144.792 12.7836 143.71 11.6666 142.079 11.6666C140.448 11.6666 139.367 12.7836 139.367 14.4502C139.367 16.1169 140.448 17.1985 142.079 17.1985ZM136.778 3.0318C136.743 2.88996 136.92 2.42896 137.115 2.4467C138.232 2.65946 139.367 2.8545 140.785 3.0318L144.242 3.40414C144.543 3.4396 145.873 5.26584 144.987 5.26584H139.757C138.87 5.26584 136.831 3.33322 136.76 3.0318M133.303 7.16301C133.268 7.05662 133.481 6.68428 133.569 6.71974C134.154 6.93251 136.229 6.9857 138.196 6.95024L145.27 6.87932C147.309 6.84386 147.912 5.83322 148.231 5.83322C148.568 5.83322 149.862 7.624 149.862 8.45733C149.862 8.59918 149.72 8.68783 149.49 8.68783C149.153 8.68783 147.185 8.58145 145.625 8.58145L138.019 8.61691C136.796 8.61691 135.98 8.88286 135.608 9.21974C134.651 8.95379 133.463 7.51762 133.339 7.14528M150.199 21.0637C147.15 22.4644 141.299 23.28 137.292 23.7765C136.211 23.9183 135.555 24.1134 134.917 24.4857C133.888 24.2197 132.399 22.7127 132.257 22.1453C132.293 21.968 132.435 21.8084 132.523 21.702C133.64 21.702 135.271 21.7375 137.239 21.6311C138.462 21.5602 139.615 21.4892 140.661 21.4006L140.466 18.4751C137.877 18.0318 136.282 16.507 136.282 14.397C136.282 12.0921 138.285 10.5318 141.441 10.3545C141.476 10.2127 141.512 10.124 141.512 9.98216C141.512 9.7162 141.441 9.39705 141.069 9.13109C141.069 8.49279 143.107 9.13109 143.107 9.46797C143.107 9.60982 142.93 10.0176 142.841 10.3545C145.926 10.5673 147.876 12.1275 147.876 14.397C147.876 16.507 146.21 18.0318 143.657 18.4751L143.515 21.1169C146.742 20.7446 148.922 20.2304 150.376 19.7517C150.678 19.6453 150.553 20.8687 150.181 21.046M111.568 4.52116L111.532 10.1949H119.439L119.634 4.52116H111.55H111.568ZM106.444 3.2623C106.409 3.08499 106.887 2.51762 107.118 2.51762C107.703 2.51762 109.724 2.58854 111.054 2.81904H118.588C119.546 2.81904 120.042 2.67719 120.414 2.34031C120.822 2.19847 123.464 2.60627 123.411 3.04953L122.294 9.87577C122.772 10.319 123.411 11.2056 123.411 11.6843C123.411 11.8261 123.269 11.9148 123.038 11.9148C122.701 11.9148 121.443 11.8793 119.546 11.8793H111.195C110.983 12.2517 110.717 12.5885 110.415 12.9431C110.114 13.2446 109.564 13.3864 109.157 13.28C108.82 12.4644 108.536 10.9041 108.306 8.08499L108.004 4.55662C107.969 4.21974 107.011 3.47506 106.444 3.2623ZM125.254 27.3758C125.254 27.5176 125.148 27.6063 124.882 27.6063H121.39L111 27.6417C108.111 27.6417 107.543 26.6488 107.543 24.7162V21.8261C107.543 21.3119 106.462 20.4254 105.841 20.3368C105.646 20.3013 106.32 19.4502 106.586 19.4502C107.774 19.4502 109.547 19.7162 110.433 20.0531C110.61 20.124 110.876 20.2304 110.805 20.6027C110.734 21.046 110.734 21.6843 110.734 22.2339V24.7517C110.734 25.7978 111.107 25.9396 112.029 25.9396L120.751 25.9041C122.595 25.9041 123.198 24.8758 123.428 24.8758C123.907 24.8758 125.254 26.5779 125.254 27.358M128.552 16.3829C128.552 16.5602 128.41 16.6488 128.18 16.6488H117.418V18.6169C117.418 20.6205 116.674 22.358 116.16 23.1382C115.894 23.4396 115.309 23.5814 114.936 23.4751C114.635 22.5531 114.192 21.3297 114.192 19.0956V16.6488H106.958C105.735 16.6488 104.919 16.9857 104.547 17.3226C103.59 17.0566 101.657 15.5495 101.657 15.2127C101.657 15.0708 101.835 14.6985 101.923 14.7339C102.508 14.9467 104.583 14.9644 106.55 14.9644L123.198 14.929C125.308 14.929 126.017 13.741 126.283 13.741C126.655 13.741 128.552 15.5495 128.552 16.3651M81.1273 7.78357C81.1273 9.96443 82.5456 11.4183 84.6908 11.4183C86.836 11.4183 88.4671 9.96443 88.4671 7.78357C88.4671 5.60272 86.9424 4.14882 84.7263 4.14882C82.5102 4.14882 81.1273 5.62045 81.1273 7.78357ZM77.9007 7.88996C77.9007 4.84031 80.3473 2.80131 84.1235 2.58854C84.159 2.48216 84.1944 2.3935 84.1944 2.28712C84.1944 1.9857 84.1235 1.64882 83.6803 1.32967C83.6803 0.655915 85.9496 1.32967 85.9496 1.70201C85.9496 1.84386 85.7723 2.25166 85.6836 2.58854C89.2826 2.8545 91.6583 4.8935 91.6583 7.88996C91.6583 11.046 88.9103 13.1205 84.7972 13.1205C80.6841 13.1205 77.9007 11.046 77.9007 7.88996ZM98.2179 17.163C98.2179 17.3049 98.0761 17.3935 97.8456 17.3935H90.4704V19.0247C90.4704 23.6169 89.6549 27.1807 89.2117 28.2268C88.9457 28.5283 88.3252 28.6701 87.9884 28.5992C87.7225 27.7481 87.2438 25.1063 87.2438 20.9928V17.3935L82.0492 17.429V18.4573C82.0492 23.0141 81.2337 26.5779 80.8259 27.624C80.56 27.9254 79.9395 28.0673 79.5672 27.9963C79.3367 27.1453 78.858 24.5034 78.858 20.4254V17.429H76.6242C75.4009 17.429 74.5854 17.7658 74.2131 18.1027C73.2557 17.8368 71.3233 16.3297 71.3233 15.9573C71.3233 15.8509 71.5006 15.4786 71.5892 15.5141C72.1743 15.7091 74.2485 15.7446 76.2164 15.7446L92.8638 15.6736C94.9736 15.6736 95.6827 14.4857 95.9486 14.4857C96.3209 14.4857 98.2179 16.3119 98.2179 17.1275M51.0592 6.41833C51.0592 8.28003 52.4598 9.60982 54.5518 9.60982C56.6438 9.60982 58.0444 8.28003 58.0444 6.41833C58.0444 4.55662 56.6438 3.29776 54.5518 3.29776C52.4598 3.29776 51.0592 4.59208 51.0592 6.41833ZM47.8326 6.56017C47.8326 3.88286 50.1728 1.93251 53.8072 1.70201C53.8426 1.52471 53.9136 1.4006 53.9136 1.22329C53.9136 0.921872 53.8072 0.602723 53.3994 0.301305C53.3994 -0.407915 55.6687 0.301305 55.6687 0.638184C55.6687 0.85095 55.4382 1.31194 55.2964 1.68428C58.8954 1.91478 61.3065 3.86513 61.3065 6.54244C61.3065 9.36159 58.5585 11.3651 54.5518 11.3651C50.5451 11.3651 47.8326 9.36159 47.8326 6.54244M63.9304 27.9254C63.9304 28.1027 63.7885 28.1559 63.558 28.1559H50.3501C48.0808 28.1559 47.283 27.3758 47.2298 25.6027L47.1589 23.3332C47.1589 22.9963 46.2724 22.5531 45.7051 22.3048C45.6697 22.1275 46.1838 21.5602 46.4497 21.5602C47.088 21.5602 49.5168 21.702 50.3855 22.0034H58.984L59.0195 19.2552H50.421C49.375 19.2552 48.6836 19.5212 48.3112 19.8758C47.088 19.6985 46.0951 18.1027 46.0774 17.8722C46.042 17.6949 46.2192 17.358 46.3788 17.3935C47.4603 17.5885 48.8254 17.5885 50.7933 17.5885H57.8316C58.789 17.5885 59.2854 17.4822 59.6577 17.1098C60.0655 17.0744 62.778 17.3758 62.6893 17.819L61.8384 21.8261C62.4766 22.3049 62.8844 23.1205 62.8844 23.3155C62.8844 23.4928 62.778 23.6169 62.6184 23.6169C62.317 23.6169 60.3846 23.5814 58.8067 23.5814H50.3855V25.0708C50.3855 26.2233 50.7224 26.4538 52.247 26.4538H59.6932C61.8029 26.4538 62.1043 25.5673 62.3348 25.5673C62.8134 25.5673 63.9304 27.163 63.9304 27.8722M67.813 14.7871C67.813 14.929 67.6711 15.0176 67.4407 15.0176H62.6539L46.237 15.0531C45.0491 15.0531 44.2336 15.39 43.8613 15.6914C42.8685 15.4254 41.1133 13.9538 40.9715 13.5814C40.9361 13.4751 41.1488 13.1027 41.2374 13.1382C41.8225 13.3509 43.879 13.3864 45.8647 13.3864L62.4766 13.3155C64.5509 13.3155 65.26 12.1275 65.5614 12.1275C65.9337 12.1275 67.7952 13.9538 67.7952 14.7694M30.2987 14.7162C30.2987 15.0176 30.0683 15.0176 29.2527 15.2658C28.9159 15.3722 28.7386 15.9041 28.4727 16.7552C27.8876 18.546 26.0261 21.4361 22.1612 21.4361C18.2963 21.4361 16.2575 18.1382 16.1157 17.9609C15.9207 17.6949 15.6015 17.4467 15.3356 17.4467C15.1583 17.4467 15.0342 17.5176 14.9278 17.5885C13.5273 18.546 12.0026 19.6275 12.0026 22.1098C12.0026 23.741 13.3677 25.6027 15.6724 25.6027C17.6404 25.6027 18.9346 23.741 19.3423 22.4467C19.4841 22.0034 19.4487 21.8261 19.6792 21.8261C19.9806 21.8261 20.0869 22.4999 20.4947 22.4999C20.8315 22.4999 20.7252 22.3226 21.1684 22.3226C21.5762 22.3226 21.6825 22.8722 22.0194 22.8722C22.4981 22.8722 23.1363 22.4644 23.4554 22.4644C23.5618 22.4644 23.7213 22.4644 23.7213 22.5708C23.7213 22.7481 23.42 22.9077 23.1363 23.1559C22.5512 23.6701 22.1257 23.9715 21.6825 24.7162C20.1224 27.358 18.314 27.8368 17.3921 28.1205C17.0553 28.2268 16.7185 28.3864 16.5766 28.7056C16.0625 29.858 15.7611 29.9999 15.6193 29.9999C15.442 29.9999 15.3888 29.8049 15.3533 29.3616C15.3179 28.8829 15.0519 28.3332 14.13 28.1736C11.7898 27.7304 8.90003 25.3545 8.90003 21.6134C8.90003 18.2446 11.453 16.9325 12.7472 15.6382C12.9245 15.4609 13.0486 15.2658 13.0486 14.9644V14.858C13.0486 14.6985 13.0131 14.4857 12.8004 14.2197C11.5062 12.5885 10.5311 11.507 8.7582 11.507C6.82576 11.507 5.12379 13.1027 5.12379 15.4077C5.12379 17.89 6.34708 18.741 7.57037 19.0424C7.97813 19.1488 8.11996 19.1843 8.11996 19.3084C8.11996 19.5744 7.85403 19.5212 7.85403 19.929C7.85403 20.2304 8.0845 20.1949 8.0845 20.6736C8.0845 21.0105 7.78311 21.1169 7.78311 21.6311C7.78311 22.0389 7.97813 22.1807 7.97813 22.4112C7.97813 22.7127 8.15542 22.6772 8.15542 23.3332C8.15542 23.5105 8.22633 23.6346 8.0845 23.6346C7.94267 23.6346 7.78311 23.4041 7.57037 23.085C7.09169 22.3758 6.57755 21.9325 6.20525 21.6488C3.24453 19.5034 3.13816 18.5637 2.39354 17.0921C2.21626 16.7552 2.16307 16.1701 1.80849 16.0105C0.727033 15.4609 -0.0175781 15.3013 -0.0175781 14.4148C-0.0175781 14.007 0.461101 14.4148 1.20571 14.4148C1.61348 14.4148 2.09215 14.4857 2.32263 13.6346C2.83677 11.8261 4.96423 8.93606 8.70501 8.93606C12.6763 8.93606 14.6442 12.2339 14.786 12.4112C15.0519 12.7836 15.3001 12.9254 15.5661 12.9254C15.7434 12.9254 15.8675 12.9254 16.1689 12.6595C18.6864 10.4254 18.8814 9.43251 18.8814 8.13818C18.8814 6.50698 17.5872 4.60982 15.2824 4.60982C12.9777 4.60982 11.8785 6.43606 11.5771 7.8013C11.4707 8.24457 11.3998 8.47506 11.2048 8.47506C10.9034 8.47506 10.9034 8.06726 10.5665 8.06726C10.0169 8.06726 9.96376 8.29776 9.6801 8.29776C9.30779 8.29776 9.30779 7.624 8.7582 7.624C8.61637 7.624 8.31498 7.8013 8.11996 7.8013C7.60582 7.8013 7.57037 7.90769 7.33989 7.90769C7.07396 7.90769 6.7903 7.76584 6.7903 7.57081C6.7903 7.37577 6.96759 7.23393 7.49945 6.96797C8.2086 6.59563 8.86457 6.32967 9.20142 5.56726C10.2474 3.22684 12.5699 2.48216 13.4563 2.14528C13.7932 2.00343 13.9705 1.87932 14.13 1.56017C14.8392 0.265844 15.1583 0.124 15.3533 0.124C15.5483 0.124 15.5306 0.460879 15.6193 0.868681C15.7256 1.3474 15.7256 1.71974 16.5057 1.91478C18.7218 2.49989 21.9662 4.53889 21.9662 8.2623C21.9662 11.9857 18.2963 14.3439 18.119 14.4857C17.7113 14.7871 17.5694 15.0353 17.5694 15.2658C17.5694 15.4431 17.6758 15.6382 17.7822 15.8509C18.6686 17.624 20.1933 18.7765 21.9662 18.7765C24.0759 18.7765 25.707 16.8084 25.707 14.7694C25.707 12.7304 24.3419 11.507 23.154 11.1346C22.7108 10.9928 22.5158 10.9928 22.5158 10.7623C22.5158 10.4963 22.8172 10.585 22.8172 10.1772C22.8172 9.87577 22.6753 9.94669 22.6753 9.46797C22.6753 9.13109 23.0831 9.02471 23.0831 8.51052C23.0831 8.10272 22.8881 7.96088 22.8881 7.73038C22.8881 7.42896 22.7817 7.46443 22.7817 6.8084C22.7817 6.63109 22.7108 6.50698 22.8526 6.50698C23.0299 6.50698 23.1895 6.73747 23.4022 7.05662C23.8809 7.76584 24.2532 8.31549 24.6255 8.54599C27.3026 10.2481 27.8876 11.3297 28.5081 12.8545C28.65 13.1914 28.7741 13.7765 29.1818 14.007C29.5187 14.2197 30.2633 14.4502 30.2633 14.7162" fill="#231815"/>
</g>
<defs>
<clipPath id="clip0_45_79">
<rect width="190" height="30" fill="white"/>
</clipPath>
</defs>
</svg>
