<svg width="150" height="150" viewBox="0 0 150 150" fill="none" xmlns="http://www.w3.org/2000/svg">
<path d="M134.539 53.1605C139.855 59.2033 142.378 66.2702 143.234 74.0601C143.606 77.4481 143.509 80.832 143.479 84.2195C143.471 85.1578 143.725 85.8161 144.455 86.4473C149.188 90.5436 150.951 95.6181 149.513 101.798C149.142 103.395 148.864 105.038 149.208 106.749C149.694 109.172 148.192 110.468 145.773 109.757C141.595 108.528 138.698 105.761 136.868 101.88C134.829 97.5576 134.733 93.1288 136.667 88.7598C137.324 87.2766 137.395 85.9611 136.91 84.4426C132.802 71.5811 125.484 61.149 113.964 53.8667C113.691 53.6945 113.408 53.5387 113.124 53.3862C112.984 53.3114 112.831 53.2616 112.453 53.3752C113.068 54.1091 113.682 54.8433 114.297 55.5769C122.398 65.2379 128.261 76.0142 130.152 88.617C131.99 100.867 129.765 112.091 120.979 121.418C114.784 127.995 107.112 132.048 98.5099 134.446C89.4704 136.966 80.2243 137.863 70.8814 137.328C60.2886 136.722 49.9323 134.934 40.5229 129.623C30.2898 123.846 23.1845 115.61 20.8225 103.814C19.3233 96.3268 20.0236 88.9442 22.1566 81.6591C25.0823 71.6666 30.2711 62.951 37.0487 55.1239C37.8058 54.2496 38.6898 53.4588 39.3818 51.9038C36.7932 53.2004 34.7185 54.4795 32.7605 55.9374C22.9588 63.2354 16.6252 72.9326 13.0357 84.5333C12.6058 85.9227 12.5839 87.1267 13.1902 88.5404C16.8452 97.0634 12.7947 104.92 7.74016 108.146C6.59636 108.877 5.36726 109.426 4.06548 109.775C1.98328 110.334 0.600958 109.308 0.698136 107.173C0.816544 104.572 0.430377 102.039 0.115844 99.4721C-0.498701 94.4576 1.35765 90.2682 5.07051 86.9417C6.143 85.9807 6.53683 85.0075 6.48768 83.5957C6.28129 77.6664 6.49643 71.7936 8.30076 66.0382C12.4808 52.7049 21.857 45.4113 35.1389 42.5646C38.0858 41.933 41.0769 41.5899 44.0983 41.559C44.5665 41.5543 45.077 41.6554 45.4983 41.2332C45.4328 40.4681 44.7858 40.0895 44.3348 39.5979C40.5518 35.4744 36.7386 31.3784 32.9665 27.245C30.9906 25.0799 31.2541 23.2585 33.7594 21.6712C39.9504 17.7489 46.5813 16.3027 53.8039 18.1194C55.5715 18.564 57.3799 18.8509 59.1745 19.1832C61.3998 19.5951 63.3948 19.0791 65.3019 17.8408C68.3279 15.8759 71.47 14.1123 74.9418 13.0169C79.7089 11.5129 84.2649 11.7614 88.5392 14.5662C89.7891 15.3864 90.7969 16.4146 91.2518 17.8645C91.5495 18.8133 92.086 19.1323 93.059 18.9377C99.9685 17.5555 106.641 18.865 113.231 20.8337C116.882 21.9245 117.712 24.5026 115.457 27.6196C112.328 31.9439 108.629 35.7928 105.145 39.8207C104.799 40.2201 104.464 40.6286 104.031 41.1434C104.997 41.7824 105.979 41.5258 106.895 41.5639C115.655 41.9286 123.724 44.3098 130.773 49.7027C132.102 50.7196 133.315 51.8604 134.539 53.1605ZM31.992 88.0915C34.6124 89.6901 37.3042 91.1508 40.1554 92.3008C41.121 92.6902 41.8508 93.2222 41.7176 94.4348C41.2635 98.5693 41.2976 102.702 41.8543 106.825C42.7007 113.093 44.872 118.823 49.0615 123.631C52.8258 127.952 57.3848 131.277 63.112 132.196C70.1843 133.331 77.3496 133.445 84.4912 132.597C86.614 132.345 88.7667 132.306 90.8051 131.446C99.9461 127.591 105.496 120.638 108.095 111.241C109.496 106.177 109.805 100.975 109.191 95.7328C108.895 93.2 108.987 93.1009 111.272 92.0585C114.951 90.3811 118.49 88.4654 121.726 86.0156C124.833 83.6631 124.83 83.6808 123.518 79.9707C119.361 68.2124 112.006 58.6988 103.061 50.2025C100.971 48.2169 99.1299 47.3959 96.4452 48.4319C95.3432 48.8571 94.0115 48.5909 92.8884 49.4603C94.0917 51.3358 95.4087 53.0433 96.2435 55.0363C96.9751 56.7829 97.5397 58.5699 97.7575 60.4561C97.8201 60.9984 97.8868 61.5961 97.2497 61.8401C96.611 62.0848 96.2818 61.5545 95.9364 61.15C95.7974 60.9872 95.675 60.8066 95.5669 60.6213C93.549 57.1619 90.9698 54.1354 88.3576 51.1245C87.5045 50.1411 86.6335 49.7127 85.3045 49.8085C78.4897 50.3 71.6674 50.4781 64.849 49.8518C63.6666 49.7432 62.8248 50.154 62.0343 51.034C59.368 54.0023 56.8867 57.1024 54.7569 60.484C54.3594 61.1151 54.0064 62.1925 52.9981 61.7583C52.0063 61.3312 52.542 60.3155 52.6739 59.5852C53.1276 57.0724 54.0763 54.7314 55.4112 52.5576C56.0733 51.4793 56.8066 50.4447 57.5827 49.2776C55.6745 48.9092 53.9073 48.6844 52.2135 48.2018C51.0034 47.857 50.178 48.1709 49.3029 48.9455C45.6309 52.1958 42.1688 55.6392 39.0793 59.461C33.6859 66.1328 29.3518 73.3709 26.8154 81.6288C26.3517 83.1385 26.2957 84.2615 27.8448 85.1743C29.2291 85.99 30.4832 87.0268 31.992 88.0915ZM66.6085 40.9031C66.9034 42.1687 67.7301 42.5746 68.9815 42.5604C71.2933 42.5342 73.6065 42.663 75.9188 42.6527C82.9734 42.6212 89.9756 42.0395 96.8973 40.6071C98.326 40.3115 99.4461 39.7076 100.393 38.5358C102.286 36.1939 104.336 33.98 106.3 31.6957C108.107 29.5948 110.04 27.5915 111.581 25.2424C111.335 25.0598 111.223 24.9227 111.083 24.88C106.222 23.4021 101.277 22.3735 96.1736 22.7771C93.3057 23.004 91.0261 24.115 89.9039 27.2122C88.5134 31.0503 86.6194 34.6968 84.7173 38.3185C84.4763 38.7774 84.2184 39.4085 83.5529 39.2283C82.7708 39.0165 82.9208 38.2795 83.0375 37.7335C83.4304 35.8942 83.849 34.0576 84.344 32.2435C85.2918 28.7702 86.326 25.3199 87.0385 21.7862C87.5051 19.4725 87.0632 18.5881 84.9444 17.5181C82.6783 16.3737 80.2831 16.2787 77.8635 16.7612C74.2622 17.4793 71.1953 19.4238 68.0908 21.2437C64.6109 23.2837 61.2171 25.4932 57.1926 26.3613C55.1907 26.793 53.1838 27.1957 51.1369 26.6183C50.558 26.455 49.9006 26.2902 49.8907 25.5689C49.8811 24.8748 50.5638 24.8558 51.06 24.6783C52.4091 24.1958 53.8867 24.0357 55.1322 23.1343C49.801 20.6462 40.7996 21.6219 37.1921 25.0411C37.2388 25.7007 37.7706 26.0405 38.1635 26.4638C41.7505 30.3279 45.4044 34.1322 48.9023 38.0752C50.0822 39.4051 51.3601 40.2378 53.0796 40.5124C55.0415 40.8256 56.9849 41.2822 58.9559 41.5002C59.9705 41.6124 61.0487 42.0773 62.2286 41.4261C61.6302 38.913 60.3889 36.7497 58.954 34.6727C58.5253 34.0522 57.9704 33.3621 58.6987 32.6626C59.4556 31.9356 60.1057 32.6078 60.6711 33.0641C63.2291 35.1287 65.1352 37.7034 66.6085 40.9031ZM30.0388 48.543C16.3734 53.537 10.9687 66.4695 11.2409 76.4183C17.3927 62.9843 26.7116 53.1189 39.5639 46.608C36.2809 46.5956 33.2563 47.4162 30.0388 48.543ZM131.196 56.0117C125.838 50.0913 116.126 46.3297 109.69 46.5177C122.914 52.7946 132.36 62.6814 138.669 75.7327C138.472 68.3006 136.186 61.7547 131.196 56.0117ZM8.43619 89.9993C3.7213 93.6746 3.76404 98.2261 5.61951 104.06C8.49938 102.216 9.76004 99.4273 10.1781 96.2883C10.4726 94.0778 10.2913 91.8065 8.43619 89.9993ZM143.828 103.636C144.71 103.896 144.649 103.152 144.759 102.696C144.986 101.76 145.072 100.789 145.322 99.8618C146.019 97.2875 145.317 94.9605 144.039 92.7826C143.383 91.6646 142.677 90.4801 141.298 90.0623C138.442 93.5315 139.597 99.9961 143.828 103.636Z" fill="#4D1A00"/>
<path d="M98.3339 110.838C98.3119 113.649 97.6076 114.635 95.6698 114.777C94.6456 114.852 93.8537 114.604 93.5879 113.488C93.3455 112.47 92.6827 112.19 91.685 112.197C86.9569 112.233 82.2283 112.215 77.4999 112.211C76.5346 112.211 75.8605 112.255 75.6631 113.597C75.4182 115.262 73.8502 115.127 72.5543 115.1C71.2467 115.073 70.9143 114.184 71.0253 113.115C71.615 107.434 71.1931 101.738 71.3424 96.0509C71.3837 94.4799 71.1135 92.9571 70.8136 91.4373C70.6889 90.8057 70.6913 90.2795 71.1619 89.8056C71.6976 89.2661 72.2233 89.6443 72.5999 89.9393C74.8916 91.7349 77.5466 91.6989 80.253 91.6513C84.1206 91.5833 87.9904 91.6119 91.8587 91.6483C92.8873 91.658 93.7684 91.4894 94.4293 90.6333C94.7349 90.2376 95.1205 90.0087 95.6692 90.0159C96.6855 90.0293 99.5336 92.0241 99.8381 93.0039C100.167 94.0609 99.5424 94.7772 98.8538 95.379C98.2782 95.8821 98.0101 96.4041 98.0158 97.1758C98.0446 101.047 98.016 104.919 98.0432 108.791C98.0476 109.425 98.23 110.058 98.3339 110.838ZM88.4811 95.0948C87.1984 94.9338 86.6635 95.4078 86.7047 96.7869C86.825 100.811 86.2122 100.336 90.1663 100.347C93.621 100.357 93.2067 100.75 93.3132 97.1146C93.3572 95.6129 92.9435 94.9007 91.3455 95.0798C90.5002 95.1745 89.6356 95.0953 88.4811 95.0948ZM88.7931 103.817C88.6325 103.818 88.4715 103.811 88.3114 103.82C87.6894 103.857 86.8166 103.696 86.8047 104.589C86.7855 106.04 86.3007 107.557 87.1484 108.934C87.224 109.057 87.5459 109.062 87.7537 109.063C89.2523 109.073 90.7509 109.068 92.2496 109.066C93.004 109.065 93.282 108.634 93.2786 107.934C93.2552 103.059 93.8452 103.895 89.5751 103.816C89.4146 103.813 89.254 103.816 88.7931 103.817ZM79.3296 100.354C80.2356 100.102 81.634 101.04 81.9536 99.3715C82.6579 95.6937 82.1549 95.0965 78.5071 95.0959C77.9726 95.0958 77.4377 95.1139 76.9035 95.1C76.0985 95.0791 75.7433 95.4493 75.7493 96.2615C75.7829 100.816 75.2867 100.326 79.3296 100.354ZM81.6082 104C79.9657 103.608 78.304 103.867 76.6508 103.863C76.0816 103.862 75.8456 104.203 75.7506 104.779C75.1313 108.534 75.5637 109.081 79.2426 109.078C79.7791 109.077 80.3157 109.064 80.8522 109.068C81.5571 109.074 81.9973 108.786 81.9693 108.029C81.9219 106.749 82.1683 105.457 81.6082 104Z" fill="#4D1A00"/>
<path d="M53.2345 78.0387C56.7801 78.6831 60.2272 78.25 63.6555 78.3923C64.9329 78.4454 65.5429 77.4922 66.3178 76.7872C67.6998 75.53 68.3453 75.5162 69.751 76.7413C70.4774 77.3744 71.302 77.9056 71.9688 78.5931C72.5628 79.2056 73.0823 79.9589 72.6332 80.9079C72.2203 81.7803 71.4231 81.8607 70.5817 81.8565C68.9681 81.8486 67.3538 81.8904 65.7407 81.8603C64.521 81.8374 64.0923 82.3086 64.0991 83.5883C64.1513 93.2782 64.1347 102.968 64.1232 112.659C64.1208 114.729 62.7173 115.849 60.7524 115.386C59.5925 115.112 58.8961 114.315 59.1255 113.162C59.584 110.857 59.3483 108.549 59.3719 106.246C59.4227 101.294 59.3873 96.3409 59.3862 91.3882C59.3862 91.0114 59.4 90.6328 59.369 90.2583C59.3311 89.7988 59.4317 89.1553 58.7173 89.1978C58.1048 89.2343 57.9935 89.8163 58.0374 90.3055C58.1929 92.0357 57.6543 93.7127 57.6754 95.4246C57.7324 100.049 56.6208 104.348 54.1645 108.276C53.7588 108.925 53.3633 109.926 52.3664 109.366C51.495 108.878 50.6289 108.144 51.1644 106.88C53.432 101.529 53.331 95.8781 53.2371 90.2368C53.2177 89.0708 52.9886 87.9042 52.8054 86.7459C52.574 85.2828 52.9429 84.8649 54.3519 85.0842C55.9229 85.3288 57.4941 85.5717 59.0489 85.8128C59.6084 84.8188 59.3167 83.8906 59.3698 83.0013C59.4194 82.1713 58.9615 81.83 58.1771 81.8594C56.7852 81.9116 55.393 81.7449 53.999 82.0347C52.8321 82.2774 51.7803 81.0294 51.6829 79.3498C51.6275 78.3934 51.9447 77.7316 53.2345 78.0387Z" fill="#4D1A00"/>
<path d="M77.604 90.0509C76.9064 90.1621 76.3147 90.2664 75.7346 90.2216C74.5705 90.1316 73.8855 89.5985 73.9031 88.2762C73.9495 84.7812 73.9288 81.2851 73.9104 77.7896C73.9056 76.8802 73.831 75.9697 73.7535 75.0626C73.6506 73.8577 74.6376 73.0451 75.528 73.8102C78.5746 76.4282 82.1657 75.7328 85.6483 75.798C86.7764 75.8192 87.9079 75.7535 89.033 75.8149C90.081 75.8722 90.9217 75.6022 91.5611 74.7322C92.3555 73.6512 93.365 73.6527 94.3773 74.3509C95.1227 74.8649 95.8783 75.4235 96.4533 76.11C97.1507 76.9424 97.4682 77.994 96.4203 78.8017C95.5761 79.4525 95.4235 80.2457 95.4363 81.2039C95.4636 83.2472 95.4163 85.2916 95.4552 87.3344C95.4747 88.3565 95.4203 89.4472 94.3691 89.7894C93.3278 90.1284 92.049 90.2475 91.1726 89.3646C90.5531 88.7405 89.9195 88.6348 89.1544 88.6363C86.5213 88.6416 83.8854 88.7076 81.2561 88.6065C79.8197 88.5513 78.6178 88.7966 77.604 90.0509ZM83.2318 78.9394C82.3202 78.9402 81.4061 78.9829 80.4975 78.9308C79.4267 78.8694 78.8926 79.2254 78.9653 80.3901C79.0355 81.5127 79.0242 82.6453 78.9688 83.7695C78.9175 84.8101 79.3239 85.2149 80.3725 85.1868C82.3016 85.135 84.2332 85.1732 86.1637 85.1737C91.0606 85.175 91.0392 85.1763 90.7157 80.2681C90.6524 79.3074 90.2846 78.925 89.3442 78.9373C87.414 78.9624 85.4832 78.9417 83.2318 78.9394Z" fill="#4D1A00"/>
<path d="M93.0186 67.7728C94.9337 66.0155 95.6165 66.0357 97.3905 67.8261C97.9578 68.3987 98.5066 68.99 99.0794 69.557C99.6424 70.1142 99.7655 70.7471 99.4659 71.4696C99.1845 72.1481 98.6257 72.4093 97.9382 72.4617C97.7243 72.4781 97.5086 72.4747 97.2937 72.4748C89.5014 72.4784 81.7091 72.4747 73.9169 72.4931C72.9561 72.4953 72.07 72.4562 71.7171 71.3618C70.9958 71.4383 70.4812 71.8528 69.8064 71.8556C65.1417 71.8746 60.476 71.7099 55.8133 72.1187C53.8568 72.2903 52.9457 71.2116 52.9697 69.1963C52.986 67.8271 54.0144 67.9606 54.8203 68.1045C57.095 68.5107 59.3708 68.7133 61.6835 68.7268C62.9246 68.7341 63.8292 68.3453 64.6494 67.4517C66.2626 65.6942 67.3523 65.6738 69.1006 67.3204C69.7178 67.9016 70.2583 68.5642 70.9213 69.2848C71.7795 68.4302 72.7625 68.5272 73.8475 68.67C79.5128 69.4154 85.2109 68.8572 90.8931 69.0036C91.8167 69.0274 92.3416 68.3968 93.0186 67.7728Z" fill="#4D1A00"/>
<path d="M71.5379 87.5844C71.5486 88.1003 71.556 88.5608 71.1926 88.7319C69.7611 89.4059 69.9337 90.668 69.9361 91.8936C69.9442 96.1349 69.9489 100.376 69.938 104.617C69.9336 106.295 69.1511 107.036 67.4628 107.027C65.9448 107.019 65.205 106.244 65.202 104.577C65.1917 98.6713 65.1898 92.7658 65.2042 86.8603C65.2083 85.1993 65.6286 84.8735 67.2628 85.2099C68.1513 85.3929 69.0363 85.608 69.9044 85.87C70.6992 86.1099 71.3859 86.5173 71.5379 87.5844Z" fill="#4D1A00"/>
</svg>
