<svg width="22" height="12" viewBox="0 0 22 12" fill="none" xmlns="http://www.w3.org/2000/svg">
<path d="M10.8804 3.12919L2.44024 11.5694C2.15316 11.8565 1.81823 11.9952 1.43545 11.9856C1.05268 11.9761 0.717751 11.8278 0.43067 11.5407C0.143587 11.2536 4.76837e-05 10.9187 4.76837e-05 10.5359C4.76837e-05 10.1531 0.143587 9.81818 0.43067 9.5311L9.24407 0.688995C9.47373 0.45933 9.73211 0.287081 10.0192 0.172248C10.3063 0.0574158 10.5934 -4.84852e-07 10.8804 -4.72404e-07C11.1675 -4.59957e-07 11.4546 0.0574158 11.7417 0.172248C12.0288 0.287081 12.2871 0.45933 12.5168 0.688995L21.3589 9.5311C21.646 9.81818 21.7847 10.1579 21.7752 10.5502C21.7656 10.9426 21.6173 11.2823 21.3302 11.5694C21.0431 11.8565 20.7082 12 20.3254 12C19.9426 12 19.6077 11.8565 19.3206 11.5694L10.8804 3.12919Z" fill="white"/>
</svg>
