<svg width="24" height="24" viewBox="0 0 24 24" fill="none" xmlns="http://www.w3.org/2000/svg">
<path d="M12 21.6C12.36 21.6 12.705 21.58 13.035 21.54C13.365 21.5 13.7 21.44 14.04 21.36L12.6 19.2H8.4V18C8.4 17.34 8.635 16.775 9.105 16.305C9.575 15.835 10.14 15.6 10.8 15.6H13.2V12H10.8C10.46 12 10.175 11.885 9.945 11.655C9.715 11.425 9.6 11.14 9.6 10.8V8.4H9.06C8.54 8.4 8.1 8.225 7.74 7.875C7.38 7.525 7.2 7.09 7.2 6.57C7.2 6.39 7.225 6.21 7.275 6.03C7.325 5.85 7.4 5.68 7.5 5.52L9.36 2.79C7.34 3.37 5.675 4.5 4.365 6.18C3.055 7.86 2.4 9.8 2.4 12H3.6V10.8C3.6 10.46 3.715 10.175 3.945 9.945C4.175 9.715 4.46 9.6 4.8 9.6H7.2C7.54 9.6 7.825 9.715 8.055 9.945C8.285 10.175 8.4 10.46 8.4 10.8V12C8.4 12.34 8.285 12.625 8.055 12.855C7.825 13.085 7.54 13.2 7.2 13.2V14.4C7.2 15.06 6.965 15.625 6.495 16.095C6.025 16.565 5.46 16.8 4.8 16.8H3.69C4.53 18.24 5.68 19.4 7.14 20.28C8.6 21.16 10.22 21.6 12 21.6ZM21.12 14.94C21.28 14.48 21.4 14.005 21.48 13.515C21.56 13.025 21.6 12.52 21.6 12C21.6 9.76 20.92 7.785 19.56 6.075C18.2 4.365 16.48 3.24 14.4 2.7V6C15.06 6 15.625 6.235 16.095 6.705C16.565 7.175 16.8 7.74 16.8 8.4V10.8C17.18 10.8 17.52 10.845 17.82 10.935C18.12 11.025 18.41 11.21 18.69 11.49L21.12 14.94ZM12 24C10.34 24 8.78 23.685 7.32 23.055C5.86 22.425 4.59 21.57 3.51 20.49C2.43 19.41 1.575 18.14 0.945 16.68C0.315 15.22 0 13.66 0 12C0 10.34 0.315 8.78 0.945 7.32C1.575 5.86 2.43 4.59 3.51 3.51C4.59 2.43 5.86 1.575 7.32 0.945C8.78 0.315 10.34 0 12 0C13.66 0 15.22 0.315 16.68 0.945C18.14 1.575 19.41 2.43 20.49 3.51C21.57 4.59 22.425 5.86 23.055 7.32C23.685 8.78 24 10.34 24 12C24 13.66 23.685 15.22 23.055 16.68C22.425 18.14 21.57 19.41 20.49 20.49C19.41 21.57 18.14 22.425 16.68 23.055C15.22 23.685 13.66 24 12 24Z" fill="white"/>
</svg>
