<svg width="147" height="30" viewBox="0 0 147 30" fill="none" xmlns="http://www.w3.org/2000/svg">
<path fill-rule="evenodd" clip-rule="evenodd" d="M3.84305 0.338153C0.801703 1.25856 -0.0386686 3.3795 0.00134912 10.3426C0.00134912 16.8655 0.361508 18.9063 1.68209 20.2269L2.68253 21.2274L12.4068 21.3474C18.1694 21.3875 22.5313 21.2674 23.0515 21.0273C23.5317 20.8272 24.2521 19.9868 24.6122 19.1865C25.2125 17.9059 25.2525 17.3457 24.8123 13.7441C24.5322 11.5431 24.172 8.38171 24.012 6.74098C23.8519 5.10026 23.4917 3.33947 23.2516 2.89927C22.6514 1.77878 20.8105 1.13851 18.1294 1.13851C15.8083 1.13851 14.7679 1.41861 14.7679 2.01888C14.7679 2.25898 15.008 2.21898 15.3681 1.93886C16.1285 1.29858 21.2908 1.61872 22.1711 2.33904C22.8514 2.89929 23.0115 6.14072 22.3712 6.54089C22.1711 6.66095 21.931 6.54089 21.931 6.26077C21.891 5.98064 21.731 6.54089 21.5709 7.54134C21.4108 8.54178 21.4108 10.2225 21.6109 11.303C22.1711 14.4244 22.0511 18.3461 21.4108 18.5862C21.0907 18.7063 20.9306 19.0664 21.0507 19.4266C21.2507 19.9068 21.3308 19.9068 21.6109 19.4666C21.851 19.1064 21.9711 19.2265 21.9711 19.8668C21.9711 20.6271 21.771 20.7872 21.0907 20.6671C20.4904 20.5871 20.1302 20.2269 20.0502 19.6667C19.9302 18.9464 19.57 18.7463 17.6491 18.5062C16.4086 18.3461 12.847 18.3461 9.76566 18.4662C6.56425 18.6262 3.88306 18.5462 3.56292 18.3461C3.08271 18.066 2.92264 16.7054 2.8426 11.423C2.68253 4.90015 2.72255 4.86014 3.68298 3.69962C4.60338 2.65916 4.96354 2.53913 7.08448 2.53913C8.36505 2.53913 9.68563 2.33903 10.0058 2.05891C10.3259 1.8188 11.1263 1.65872 11.8466 1.69874C13.9275 1.81879 12.9671 1.25855 9.96575 0.57825C6.96443 -0.102051 5.56381 -0.182077 3.84305 0.338153ZM4.04314 19.7467C4.40329 20.2269 4.04314 20.7472 3.32282 20.7472C3.00268 20.7472 2.76257 20.387 2.76257 19.9468C2.76257 19.1465 3.52291 19.0264 4.04314 19.7467ZM5.72388 19.7867C6.08404 20.6671 6.04402 20.7472 5.36372 20.5071C5.04358 20.347 4.76345 20.0268 4.76345 19.7067C4.76345 18.9464 5.40374 18.9864 5.72388 19.7867ZM7.16451 19.7067C7.16451 20.0268 7.00444 20.427 6.76434 20.5471C6.56425 20.6671 6.36416 20.427 6.36416 19.9868C6.36416 19.5066 6.56425 19.1465 6.76434 19.1465C7.00444 19.1465 7.16451 19.3866 7.16451 19.7067ZM8.56513 19.9468C8.44508 20.1069 8.60515 20.387 8.84526 20.467C9.1654 20.5871 9.08536 20.7071 8.68519 20.7071C8.20498 20.7472 7.96487 20.467 7.96487 19.9068C7.96487 19.4666 8.16496 19.2265 8.36505 19.3466C8.60515 19.5066 8.68519 19.7467 8.56513 19.9468ZM10.7661 19.9468C10.7661 20.307 10.486 20.6271 10.1658 20.6271C9.8457 20.6271 9.56558 20.307 9.56558 19.9468C9.56558 19.5867 9.8457 19.2665 10.1658 19.2665C10.486 19.2665 10.7661 19.5867 10.7661 19.9468ZM12.0467 20.0669C11.8866 20.6271 11.7665 20.7071 11.5264 20.267C11.0462 19.5066 11.0862 19.2665 11.7265 19.2665C12.0467 19.2665 12.1667 19.5867 12.0467 20.0669ZM15.1681 19.4266C15.1681 19.6267 14.968 20.0269 14.7679 20.347C14.4077 20.8672 14.3277 20.8672 13.9675 20.347C13.3673 19.4666 13.4873 19.1465 14.3677 19.1465C14.8079 19.1465 15.1681 19.2665 15.1681 19.4266ZM18.3695 19.5866C18.3695 19.8268 18.0893 19.9468 17.7692 19.7867C17.4491 19.6667 17.1689 19.7467 17.1689 19.9468C17.1689 20.6671 18.6896 20.387 18.8897 19.6267C19.0098 19.1464 19.0898 19.1865 19.1298 19.8668C19.1698 20.7472 19.0498 20.8272 17.4891 20.5871C16.5287 20.467 15.7283 20.387 15.6883 20.387C15.6082 20.347 15.5682 20.0669 15.5682 19.7467C15.5682 19.3466 16.0084 19.1465 16.9688 19.1465C17.7292 19.1465 18.3695 19.3465 18.3695 19.5866Z" fill="#400004"/>
<path fill-rule="evenodd" clip-rule="evenodd" d="M33.9765 2.13899C33.2162 2.41911 31.8155 2.69922 30.8951 2.69922C28.7742 2.73924 28.6541 3.41955 30.535 5.06028L31.9356 6.26081L30.9351 6.5009C29.0143 6.98112 30.3749 7.62141 32.7359 7.34129L34.9769 7.06116L33.6964 8.22166C32.976 8.82192 32.2957 9.82238 32.1757 10.3826C31.9756 11.263 32.1357 11.6232 33.1361 12.3435C34.1366 13.0238 34.6968 13.1439 35.9774 12.9438C37.8582 12.6236 38.4985 11.7432 38.5385 9.26213C38.5785 8.30171 38.7786 7.54138 39.0187 7.54138C39.2588 7.54138 39.7791 7.22123 40.1392 6.78103C40.7795 6.10073 40.7795 5.98068 40.1792 5.38041C39.3789 4.58006 38.8586 4.58007 35.7773 5.34041C32.6159 6.10074 32.2957 6.06072 33.9765 5.14032C34.7368 4.70012 35.8573 4.37998 36.4976 4.33996C37.8182 4.33996 37.9382 3.49959 36.7777 2.33908C36.1641 1.72548 35.2304 1.65878 33.9765 2.13899ZM37.1779 10.3026C36.9378 10.7828 36.3776 11.143 35.8973 11.143C35.057 11.143 35.097 11.0629 36.1775 9.94244C37.418 8.66187 37.9783 8.86195 37.1779 10.3026Z" fill="#400004"/>
<path fill-rule="evenodd" clip-rule="evenodd" d="M57.5869 2.6193C57.5869 3.17955 57.0266 3.57973 55.506 4.09996C54.3455 4.54015 53.225 5.02037 53.0249 5.18044C52.2645 5.86074 51.7443 5.54059 50.944 4.01992L50.1836 2.53928L50.0636 5.50058C49.9035 9.70243 50.1836 9.94253 54.5456 9.02213C56.3864 8.66197 58.4273 8.34185 59.1076 8.34185C59.7879 8.34185 60.4682 8.18178 60.5882 7.94167C60.7883 7.58151 59.9079 4.22002 59.1876 2.73937C58.7474 1.81896 57.5869 1.73891 57.5869 2.6193ZM57.5869 6.14087C57.5869 6.82117 56.1062 7.26135 53.8252 7.30137C52.0244 7.34139 51.5442 6.66108 52.8648 6.0208C54.3054 5.3405 57.5869 5.42056 57.5869 6.14087Z" fill="#400004"/>
<path fill-rule="evenodd" clip-rule="evenodd" d="M88.8807 2.45921C88.3605 3.13951 87.9203 11.9434 88.4005 11.9434C89.2009 11.9434 88.7607 13.4641 87.8002 14.1043C86.5197 14.9447 86.4797 14.9447 86.3196 13.6642C86.2396 13.1039 85.9594 12.5036 85.6393 12.4236C85.1991 12.2635 85.1591 12.6237 85.3992 14.1844C85.5593 15.2649 85.6793 16.4254 85.6793 16.7455C85.6793 17.0657 85.8394 17.826 86.0795 18.4262C86.5997 19.7869 87.8403 19.9069 89.3609 18.7064C90.4414 17.866 90.4414 17.746 90.3614 14.3445C90.2813 12.3836 90.4014 10.5828 90.6415 10.2627C91.0817 9.70241 91.0817 6.06078 90.6415 3.81979C90.3614 2.33914 89.521 1.65885 88.8807 2.45921ZM88.8007 15.9051C88.8007 16.3453 88.4805 16.9856 88.1204 17.3458C87.4801 17.9861 87.4401 17.9861 86.9199 17.3058C86.1995 16.3453 86.2396 16.1452 87.32 15.625C88.6006 15.0247 88.8007 15.0648 88.8007 15.9051Z" fill="#400004"/>
<path fill-rule="evenodd" clip-rule="evenodd" d="M66.0704 5.66053C64.1096 7.66142 63.9895 8.42176 65.4301 9.74234C66.8708 11.1029 67.9513 10.9829 69.712 9.38217C71.3928 7.82148 71.5529 6.78102 70.3523 5.10028C69.1918 3.45955 68.0713 3.61963 66.0704 5.66053ZM68.7916 7.78147C68.7916 8.50178 67.8312 8.90197 66.9108 8.54181C66.2705 8.30171 66.3105 8.22167 67.1909 7.54137C68.2314 6.74102 68.7916 6.82104 68.7916 7.78147Z" fill="#400004"/>
<path fill-rule="evenodd" clip-rule="evenodd" d="M81.1171 4.6199C80.0367 4.69993 79.1963 4.94006 79.1963 5.14015C79.1963 5.66038 80.877 6.74085 81.6774 6.74085C82.8379 6.74085 82.5578 8.54165 81.1572 10.1424C80.3168 11.1028 79.9966 11.703 80.2768 11.9832C80.877 12.5834 82.6378 11.7831 83.4382 10.5425C84.2385 9.30199 84.4786 9.30197 84.9989 10.4225C85.4791 11.4229 85.9993 11.663 86.7596 11.1828C87.1998 10.9027 87.0398 10.4625 86.0393 9.02184C85.359 8.0214 84.7988 7.02097 84.7988 6.78086C84.7988 6.54076 85.439 6.34068 86.1994 6.34068C87.6 6.34068 87.8001 6.14058 87.3599 4.98007C87.1198 4.33978 85.8392 4.25974 81.1171 4.6199Z" fill="#400004"/>
<path fill-rule="evenodd" clip-rule="evenodd" d="M9.56555 5.3404C9.56555 6.0207 8.92527 6.14076 8.56511 5.54049C8.44505 5.30038 7.80477 5.14031 7.12447 5.14031C5.72385 5.14031 5.52376 6.18077 6.88436 6.74102L7.76475 7.10117H6.88436C5.72385 7.14118 5.68383 7.94155 6.80433 7.94155C7.44461 7.94155 7.56466 8.1016 7.36458 8.62183C7.2045 9.02201 6.9644 10.3026 6.84435 11.4231C6.5242 15.1047 8.48507 16.7454 13.1671 16.7454C15.2881 16.7454 15.6082 16.6654 15.4882 16.0251C15.4081 15.6649 15.008 15.3848 14.6078 15.3848C13.9675 15.4649 13.9675 15.3848 14.5277 14.7846C15.008 14.2643 15.048 13.9842 14.6878 13.624C14.3277 13.2639 14.4077 13.1038 14.8879 12.9037C15.2481 12.7837 15.5682 12.3835 15.5682 12.0634C15.5682 11.7432 15.7283 11.5831 15.9284 11.7032C16.1284 11.8633 16.4086 11.7032 16.5286 11.4631C16.7287 11.0629 16.8088 11.0629 17.0088 11.4231C17.1289 11.7032 17.6891 11.9433 18.2094 11.9433C18.9697 11.9433 19.1698 11.7432 19.1698 10.9829C19.1698 9.86239 17.8492 8.10162 16.7287 7.74146C16.0884 7.54137 15.9684 7.26125 16.1685 6.34084C16.4886 4.98024 15.8483 4.50001 14.9679 5.42042C14.3277 6.0607 14.2476 6.0607 13.8875 5.42042C13.4473 4.58005 12.5269 4.54004 12.0466 5.38041C11.7265 5.94066 11.6465 5.94066 11.2063 5.38041C10.526 4.58006 9.56555 4.54005 9.56555 5.3404ZM7.96484 5.94067C8.44505 6.26081 8.40504 6.34084 7.68472 6.34084C7.16449 6.34084 6.76431 6.14076 6.76431 5.94067C6.76431 5.42044 7.2045 5.42044 7.96484 5.94067ZM13.8875 10.9429C13.9275 12.4235 13.2872 13.1839 12.7269 12.3035C12.4068 11.8233 12.3268 11.8233 12.0066 12.3035C11.6065 12.9437 11.3263 12.5036 11.2463 10.9829C11.1663 10.0625 11.2863 9.90241 11.9266 10.0625C12.3268 10.1425 12.927 10.1025 13.2072 9.9024C13.5273 9.70231 13.7674 9.54226 13.8074 9.54226C13.8074 9.54226 13.8474 10.1825 13.8875 10.9429Z" fill="#400004"/>
<path fill-rule="evenodd" clip-rule="evenodd" d="M12.3667 11.1429C12.3667 11.3429 12.5668 11.543 12.8069 11.543C13.007 11.543 13.087 11.3429 12.967 11.1429C12.8469 10.9027 12.6468 10.7427 12.5268 10.7427C12.4467 10.7427 12.3667 10.9027 12.3667 11.1429Z" fill="#400004"/>
<path fill-rule="evenodd" clip-rule="evenodd" d="M41.6199 9.58212C41.6199 14.3042 41.6599 14.3842 42.5003 14.2642C43.1405 14.1842 43.4207 13.784 43.5807 12.7435C44.141 9.42206 45.0214 9.58213 44.8613 12.9436C44.7413 15.3447 44.7813 15.5448 45.5416 15.5448C46.342 15.5448 46.382 15.3447 46.382 11.4229C46.382 7.22107 46.1419 5.54034 45.5416 5.54034C45.3815 5.54034 45.1814 6.22062 45.1014 7.02098C44.9413 9.1019 43.9409 9.0619 43.5007 6.94096C43.1806 5.54034 42.6603 4.78001 41.9 4.73999C41.7799 4.73999 41.6599 6.90094 41.6199 9.58212Z" fill="#400004"/>
<path fill-rule="evenodd" clip-rule="evenodd" d="M72.5534 8.62181C72.7935 10.9428 72.9136 16.6654 72.7135 18.106C72.6335 18.6262 72.9936 19.1064 73.7139 19.5066C74.7544 20.1069 74.8745 20.1069 75.4347 19.3466C75.9149 18.7463 75.995 17.9459 75.8349 15.9451C75.1946 8.94197 74.4343 6.34082 73.0737 6.34082C72.3534 6.34082 72.3133 6.54089 72.5534 8.62181Z" fill="#400004"/>
<path fill-rule="evenodd" clip-rule="evenodd" d="M118.734 7.38113C118.614 7.50118 118.854 8.46161 119.254 9.5821C120.094 11.7831 120.255 14.7844 119.574 16.7052C119.054 18.1459 119.334 18.7061 120.255 18.1459C121.935 17.0654 122.416 9.54208 120.935 7.82132C120.295 7.18103 119.174 6.90092 118.734 7.38113Z" fill="#400004"/>
<path fill-rule="evenodd" clip-rule="evenodd" d="M108.529 12.0234C108.609 16.9856 108.929 17.7459 110.21 15.825C111.09 14.4244 110.57 9.78238 109.37 8.38176L108.449 7.34131L108.529 12.0234Z" fill="#400004"/>
<path fill-rule="evenodd" clip-rule="evenodd" d="M123.496 8.34161C123.736 9.18198 123.856 9.26201 126.017 9.30202C127.138 9.34204 127.418 9.50211 127.418 10.1024C127.418 10.7427 126.977 10.9828 125.417 11.3429C124.056 11.6231 123.376 11.9832 123.296 12.4634C123.176 13.0237 123.456 13.1437 124.616 13.1437C125.417 13.1437 126.417 12.9436 126.857 12.7436C127.778 12.2233 127.898 12.9036 127.138 14.5444C126.737 15.3847 126.777 15.6648 127.218 15.945C128.098 16.4652 129.098 15.7049 129.619 14.1041C130.019 12.9036 130.259 12.7035 130.979 12.9036C131.419 13.0237 132.14 13.1437 132.54 13.1437C133.06 13.1437 133.22 13.4639 133.22 14.5844C133.22 15.8249 133.34 15.985 134.141 15.8649C134.981 15.7449 135.021 15.5848 134.941 12.3834C134.901 9.0219 134.341 7.50124 133.62 8.74179C132.82 10.1024 132.18 10.7027 131.139 10.9428C130.219 11.1829 130.059 11.0628 129.819 9.86228C129.379 7.78136 128.978 7.54126 126.017 7.54126C123.496 7.54126 123.296 7.58128 123.496 8.34161Z" fill="#400004"/>
<path fill-rule="evenodd" clip-rule="evenodd" d="M103.047 9.30218C102.887 10.1025 102.407 10.9029 101.806 11.3031C100.526 12.1434 100.486 12.1434 100.326 10.6628C100.246 9.98249 99.9655 9.30217 99.6454 9.22214C99.2052 9.06207 99.1652 9.3422 99.4053 10.5827C99.5654 11.4631 99.8055 13.1039 100.006 14.2644C100.166 15.4649 100.526 16.5854 100.846 16.7855C102.086 17.5458 104.808 15.705 104.808 14.1043C104.808 13.6241 105.088 13.1039 105.448 12.9838C106.288 12.6637 106.328 12.7037 106.729 14.5845C107.289 17.2657 107.809 16.1052 107.809 12.2635C107.809 8.18169 107.289 7.38133 106.208 9.70235C105.328 11.5432 104.888 11.5032 104.728 9.66235C104.568 7.58143 103.407 7.34131 103.047 9.30218ZM102.807 13.504C102.807 13.9042 102.527 14.5045 102.167 14.7846C101.606 15.2248 101.446 15.1848 100.966 14.5445C100.206 13.5441 100.246 13.344 101.326 12.8638C102.407 12.3435 102.807 12.5436 102.807 13.504Z" fill="#400004"/>
<path fill-rule="evenodd" clip-rule="evenodd" d="M113.091 9.90226C110.97 12.1833 110.97 13.0236 113.051 14.6243L114.412 15.6648L116.013 14.5443C118.014 13.1437 118.294 12.7835 118.454 11.463C118.654 10.0623 117.093 7.94141 115.853 7.94141C115.252 7.94141 114.252 8.62169 113.091 9.90226ZM115.933 12.0232C115.853 12.7035 115.492 12.9836 114.732 13.0637C113.331 13.2237 113.211 12.2633 114.532 11.623C115.853 10.9827 116.093 11.0628 115.933 12.0232Z" fill="#400004"/>
<path fill-rule="evenodd" clip-rule="evenodd" d="M144.785 11.7433C144.745 13.8243 144.705 15.7851 144.665 16.0252C144.625 16.3053 145.066 16.5455 145.626 16.5455C146.586 16.5455 146.626 16.4654 146.546 13.7842C146.466 10.1426 146.146 8.46189 145.426 8.18176C144.905 8.02169 144.825 8.58195 144.785 11.7433Z" fill="#400004"/>
<path fill-rule="evenodd" clip-rule="evenodd" d="M138.503 8.82175C138.623 9.10187 139.103 9.54206 139.623 9.82219L140.584 10.3024L139.583 10.5025C139.063 10.6225 138.263 10.7826 137.822 10.8226C136.942 10.9827 136.622 11.9031 136.982 13.3838C137.222 14.2642 137.422 14.3442 139.543 14.3042C142.504 14.2642 143.785 13.864 143.945 12.9836C144.065 12.3833 143.825 12.3033 141.744 12.4634C139.303 12.6635 138.423 12.5034 138.423 11.9031C138.423 11.703 139.303 11.543 140.424 11.543C142.705 11.543 143.625 10.6226 142.825 9.14191C142.464 8.50162 141.984 8.34155 140.383 8.34155C138.943 8.34155 138.423 8.5016 138.503 8.82175Z" fill="#400004"/>
<path fill-rule="evenodd" clip-rule="evenodd" d="M54.2654 9.78234C54.1053 9.94241 53.9852 10.6627 53.9852 11.383C53.9852 12.2368 53.1849 12.757 51.5842 12.9437C50.2636 13.1038 49.1831 13.3839 49.1831 13.584C49.1831 14.3043 51.0639 14.7045 52.5846 14.3043C53.425 14.0642 54.5055 14.0242 55.1057 14.2243C55.706 14.3844 57.4668 14.4644 58.9874 14.3444C61.7086 14.1443 61.7887 14.1042 61.9087 13.0238C62.0288 11.9833 61.9888 11.9433 59.9479 11.9433C58.2271 11.9433 57.947 11.8633 58.3472 11.383C58.7473 10.9028 58.7073 10.7027 58.107 10.4226C57.0266 9.82235 54.6255 9.42218 54.2654 9.78234Z" fill="#400004"/>
<path fill-rule="evenodd" clip-rule="evenodd" d="M65.4701 12.6636C63.7894 12.7837 63.5493 12.9037 63.6694 13.624C63.8694 14.9846 64.9099 15.3848 66.7107 14.7845C67.6311 14.4644 69.1518 14.3043 70.1522 14.4244C71.6729 14.6245 71.993 14.5444 72.1931 13.9041C72.7133 12.3034 72.3132 12.2234 65.4701 12.6636Z" fill="#400004"/>
<path fill-rule="evenodd" clip-rule="evenodd" d="M38.2583 16.0251C37.6981 16.5454 37.1378 17.5458 37.0178 18.2261C36.8177 19.3866 36.9377 19.5867 37.8181 19.7868C39.2187 20.147 43.5006 19.7868 44.0209 19.2666C44.7812 18.5062 44.0609 16.8655 42.6202 15.9851C40.8995 14.9046 39.4588 14.9046 38.2583 16.0251ZM41.1796 17.1456C42.02 17.8259 42.1 17.986 41.5798 18.3462C39.9791 19.3866 38.0982 18.2661 39.1787 16.9456C39.819 16.1852 39.9791 16.1852 41.1796 17.1456Z" fill="#400004"/>
<path fill-rule="evenodd" clip-rule="evenodd" d="M51.7842 15.7048C50.9038 16.3451 51.1839 17.2655 52.5445 18.1459C53.4249 18.7461 53.625 18.7461 54.4654 18.1859C54.9856 17.8657 56.1861 17.5456 57.1866 17.4656L58.9874 17.3455L58.8673 19.1863C58.6672 22.4278 60.7882 22.0676 61.4284 18.7861C61.7486 17.0654 61.3084 16.3451 59.5476 15.7048C57.6668 15.0245 52.7446 14.9845 51.7842 15.7048Z" fill="#400004"/>
<path fill-rule="evenodd" clip-rule="evenodd" d="M53.7852 24.549C53.5851 24.629 52.7447 24.7891 51.9844 24.9092L50.5837 25.1493L50.7038 27.3502C50.8238 28.9109 51.0239 29.5512 51.4241 29.5512C51.7443 29.5512 51.9844 29.2711 51.9844 28.951C51.9844 28.5908 52.4246 28.1106 52.9848 27.8705C54.2654 27.3102 54.0253 26.5099 52.6246 26.6299C52.0644 26.6699 51.5842 26.5499 51.5842 26.3098C51.5842 26.1097 52.3045 25.9496 53.1849 25.9496C54.5055 25.9496 54.7856 25.8296 54.7856 25.1493C54.7856 24.3889 54.6255 24.2689 53.7852 24.549Z" fill="#400004"/>
<path fill-rule="evenodd" clip-rule="evenodd" d="M72.7935 25.1492C72.2333 25.5894 71.9131 25.9495 72.0732 25.9495C72.6334 25.9495 74.3942 25.0291 74.3942 24.669C74.3942 24.1487 73.874 24.3088 72.7935 25.1492Z" fill="#400004"/>
<path fill-rule="evenodd" clip-rule="evenodd" d="M96.1639 25.7492C95.6437 26.5496 95.6036 26.8697 96.0038 27.35C96.2839 27.6701 96.8442 27.9502 97.2844 27.9502C97.9247 27.9502 98.0447 28.1503 97.8446 28.9507C97.5645 30.0311 97.9647 30.2312 98.725 29.4709C99.4453 28.7506 99.2853 26.9898 98.3649 25.7893C97.3644 24.5087 97.0043 24.4687 96.1639 25.7492ZM98.0047 26.7497C98.0047 26.9498 97.8046 27.1499 97.5645 27.1499C97.3644 27.1499 97.2844 26.9498 97.4044 26.7497C97.5245 26.5096 97.7246 26.3495 97.8446 26.3495C97.9247 26.3495 98.0047 26.5096 98.0047 26.7497Z" fill="#400004"/>
<path fill-rule="evenodd" clip-rule="evenodd" d="M100.846 25.3092C100.566 25.6294 100.286 26.6298 100.205 27.5102C100.045 28.9508 100.125 29.1509 101.006 29.391C102.326 29.7112 102.887 29.271 102.767 28.0304C102.687 27.4302 102.807 26.7099 102.967 26.3897C103.207 26.0296 103.087 25.6694 102.607 25.2692C101.646 24.5889 101.406 24.6289 100.846 25.3092ZM101.286 26.4297C101.006 26.7098 100.806 26.7499 100.806 26.5098C100.806 25.9495 101.286 25.4693 101.566 25.7494C101.646 25.8695 101.526 26.1896 101.286 26.4297ZM102.126 28.1505C101.846 28.9108 101.366 28.9108 101.086 28.1905C100.966 27.8704 101.046 27.5102 101.326 27.4302C102.046 27.1901 102.406 27.5102 102.126 28.1505Z" fill="#400004"/>
<path fill-rule="evenodd" clip-rule="evenodd" d="M104.087 25.8295C103.887 26.2296 103.767 27.1901 103.767 27.9504C103.807 29.231 103.927 29.351 105.008 29.351C106.088 29.351 106.208 29.231 106.208 28.1505C106.208 27.4702 106.368 26.8299 106.568 26.6698C107.129 26.3097 106.048 25.1492 105.168 25.1492C104.768 25.1492 104.287 25.4693 104.087 25.8295ZM105.048 26.6298C104.647 27.03 104.287 26.4297 104.647 25.9095C104.888 25.4693 104.968 25.4693 105.128 25.9095C105.208 26.1896 105.168 26.5098 105.048 26.6298ZM105.608 28.1505C105.608 28.4706 105.448 28.7508 105.248 28.7508C104.728 28.7508 104.367 28.1105 104.688 27.7903C105.128 27.3501 105.608 27.5502 105.608 28.1505Z" fill="#400004"/>
<path fill-rule="evenodd" clip-rule="evenodd" d="M93.4025 27.4302C93.5626 28.4707 93.8427 29.5111 94.0428 29.7112C94.7231 30.4315 95.2433 29.311 95.1232 27.5102C95.0032 26.0296 94.8431 25.7094 94.0828 25.6294C93.1624 25.5094 93.1624 25.5494 93.4025 27.4302Z" fill="#400004"/>
<path fill-rule="evenodd" clip-rule="evenodd" d="M55.7861 26.2695C55.0658 26.7498 53.9453 28.7506 54.1454 29.1108C54.2654 29.3109 54.8257 29.551 55.3859 29.671C57.2667 29.9912 58.3072 27.9503 56.9466 26.5897C56.2263 25.8694 56.3063 25.8694 55.7861 26.2695ZM56.9466 28.5506C56.7065 29.1908 55.9862 29.3909 55.9862 28.8307C55.9862 28.3905 56.4264 27.9503 56.8266 27.9503C57.0266 27.9503 57.0667 28.2304 56.9466 28.5506Z" fill="#400004"/>
<path fill-rule="evenodd" clip-rule="evenodd" d="M65.4702 26.7099C65.3502 27.1901 64.95 27.5503 64.4698 27.5503C64.0296 27.5503 63.4693 27.7904 63.2292 28.1105C62.5489 28.9109 63.6294 29.6312 65.2701 29.4711C66.5107 29.3511 66.5907 29.271 66.4707 27.9504C66.3106 26.2297 65.7904 25.5894 65.4702 26.7099Z" fill="#400004"/>
<path fill-rule="evenodd" clip-rule="evenodd" d="M79.8366 26.5898C78.476 27.9104 79.2363 29.151 81.3973 29.151C82.6378 29.151 83.118 28.3506 81.9175 28.3106H80.9971L81.9175 27.8704C82.998 27.3102 83.038 26.91 82.0376 26.3498C80.9571 25.7895 80.5569 25.8295 79.8366 26.5898ZM81.1972 26.91C81.1972 26.99 80.9171 27.1501 80.5969 27.3102C80.2768 27.4302 79.9967 27.3502 79.9967 27.1501C79.9967 26.91 80.2768 26.7499 80.5969 26.7499C80.9171 26.7499 81.1972 26.83 81.1972 26.91Z" fill="#400004"/>
<path fill-rule="evenodd" clip-rule="evenodd" d="M83.7982 26.4296C83.6782 26.7097 83.5581 27.3901 83.5181 27.9503C83.358 29.3109 84.9187 29.3909 85.1188 28.0303C85.2389 27.23 85.3989 27.1099 86.3193 27.15C86.4794 27.19 86.5594 27.6302 86.4794 28.1504C86.3994 28.8307 86.5194 29.1508 86.9196 29.1508C87.5599 29.1508 88.0801 26.8298 87.5199 26.5097C87.3198 26.3896 86.7195 26.3896 86.1593 26.5097C85.599 26.6697 85.1988 26.5897 85.1988 26.3496C85.1988 25.7894 83.9983 25.8694 83.7982 26.4296Z" fill="#400004"/>
<path fill-rule="evenodd" clip-rule="evenodd" d="M58.3871 27.0299C58.3871 27.4301 58.2671 28.1504 58.147 28.6306C57.9469 29.3509 58.067 29.551 58.7073 29.551C59.2675 29.551 59.5877 29.2309 59.6677 28.6706C59.7477 28.1504 60.1079 27.7102 60.5481 27.6302C61.1884 27.5101 61.2684 27.6302 61.0283 28.5105C60.8282 29.3909 60.9082 29.551 61.5885 29.551C62.3089 29.551 62.4289 29.3509 62.3089 28.2304C62.1888 27.0299 62.1088 26.9499 60.9082 27.0699C60.1479 27.15 59.5877 27.0299 59.5877 26.7898C59.5877 26.5497 59.3075 26.3496 58.9874 26.3496C58.6673 26.3496 58.3871 26.6697 58.3871 27.0299Z" fill="#400004"/>
<path fill-rule="evenodd" clip-rule="evenodd" d="M67.8715 27.07C66.5509 28.5106 67.2312 29.5511 69.3921 29.5511C70.6327 29.5511 71.1129 28.7507 69.9124 28.7107H68.9919L69.9124 28.2705C70.9928 27.7103 71.0329 27.3101 70.0324 26.7499C68.9519 26.1896 68.6318 26.2296 67.8715 27.07ZM69.192 27.3101C69.192 27.3901 68.9119 27.5502 68.5918 27.7103C68.2716 27.8303 67.9915 27.7503 67.9915 27.5502C67.9915 27.3101 68.2716 27.1501 68.5918 27.1501C68.9119 27.1501 69.192 27.2301 69.192 27.3101Z" fill="#400004"/>
<path fill-rule="evenodd" clip-rule="evenodd" d="M71.9932 26.95C70.9127 28.2305 72.5134 29.7112 74.5143 29.2309C75.5147 28.9908 75.3546 28.3906 74.3142 28.6307L73.3938 28.8308L74.3142 28.0704C75.0345 27.4702 75.1145 27.2301 74.7144 26.8299C74.0741 26.1896 72.5934 26.2296 71.9932 26.95ZM73.3938 27.15C73.2737 27.3501 72.9536 27.5502 72.7535 27.5502C72.5134 27.5502 72.4734 27.3501 72.5934 27.15C72.7135 26.9099 73.0336 26.7499 73.2337 26.7499C73.4738 26.7499 73.5138 26.9099 73.3938 27.15Z" fill="#400004"/>
</svg>
