<svg width="129" height="30" viewBox="0 0 129 30" fill="none" xmlns="http://www.w3.org/2000/svg">
<path d="M14.6081 22.0591V14.9021L12.6048 10.1881C11.4437 7.45812 7.58434 7.45812 6.42325 10.1881L0.274379 24.6498C-0.674117 26.8715 0.953044 29.3391 3.36517 29.3391H15.6711C16.5705 29.3391 17.3637 28.9948 17.9524 28.4455C15.9327 27.0436 14.6163 24.699 14.6163 22.0509L14.6081 22.0591Z" fill="#35763C"/>
<path d="M60.0297 24.1827L53.9135 3.17885C52.6788 -1.05962 46.6935 -1.05962 45.4588 3.17885L42.4089 13.6644C43.9298 15.3778 44.8537 17.6323 44.8537 20.1082C44.8537 23.5842 43.0221 26.6339 40.283 28.3555C41.0761 29.2573 42.2372 29.8394 43.57 29.8394H55.7941C58.7296 29.8394 60.8473 27.011 60.0215 24.1827H60.0297Z" fill="#648943"/>
<path d="M25.4502 20.108C25.4502 16.5746 27.3308 13.4921 30.1436 11.7869V9.40119C30.1436 5.10533 26.6685 1.62109 22.3839 1.62109C18.0994 1.62109 14.6243 5.10533 14.6243 9.40119V14.8858L18.778 24.6417C19.3667 26.0354 18.9497 27.5192 17.9685 28.4374C19.2277 29.3146 20.7486 29.8311 22.3921 29.8311C24.7879 29.8311 26.9302 28.7408 28.3611 27.0273C26.5786 25.2647 25.4666 22.8135 25.4666 20.0999L25.4502 20.108Z" fill="#A4BC49"/>
<path d="M18.7619 24.6494L14.6082 14.8936V22.0506C14.6082 24.6986 15.9328 27.0351 17.9442 28.4452C18.9336 27.527 19.3506 26.0431 18.7537 24.6494H18.7619Z" fill="#245F2E"/>
<path d="M39.3509 24.1827L42.409 13.6644C40.6347 11.6559 38.0426 10.377 35.1481 10.377C33.3083 10.377 31.5994 10.9016 30.1358 11.787V22.0512C30.1358 23.945 29.4571 25.683 28.3369 27.0275C30.0867 28.7573 32.4907 29.8313 35.1481 29.8313C37.0369 29.8313 38.7949 29.282 40.2831 28.3474C39.3264 27.2653 38.893 25.724 39.3427 24.1827H39.3509Z" fill="#68AC45"/>
<path d="M44.8535 20.1079C44.8535 17.632 43.9214 15.3775 42.4087 13.6641L39.3506 24.1824C38.9009 25.7236 39.3342 27.2649 40.2909 28.3471C43.0301 26.6254 44.8617 23.5839 44.8617 20.0997L44.8535 20.1079Z" fill="#35763C"/>
<path d="M30.1358 11.7949C27.3312 13.5001 25.4424 16.5827 25.4424 20.1161C25.4424 22.8297 26.5462 25.281 28.3369 27.0436C29.4571 25.6909 30.1358 23.9611 30.1358 22.0673V11.8031V11.7949Z" fill="#458C39"/>
<path d="M69.4084 3.78593V5.69611C69.4084 7.49972 70.2669 9.29512 72.4583 10.1969V3.11368H74.7805V6.86026H76.0152V2.79395H78.3864V13.0909H76.0152V8.86882H74.7805V12.5662H72.4583V10.2953L71.1827 12.1153C69.8009 11.5742 68.8442 10.5986 68.2473 9.3935C67.634 10.82 66.6201 12.0005 65.0666 12.6564L63.7583 10.7216C66.0968 9.68864 66.9963 7.60629 66.9963 5.69611V3.78593H69.4084ZM78.4682 16.485C78.4682 18.4689 76.1869 19.6741 72.6545 19.6741C69.1222 19.6741 66.8573 18.4771 66.8573 16.485C66.8573 14.4928 69.1222 13.3122 72.6545 13.3122C76.1869 13.3122 78.4682 14.5092 78.4682 16.485ZM69.3184 16.485C69.3184 17.3704 70.5122 17.7967 72.6464 17.7967C74.7805 17.7967 75.9579 17.3622 75.9579 16.485C75.9579 15.6077 74.7968 15.1896 72.6464 15.1896C70.4959 15.1896 69.3184 15.6241 69.3184 16.485Z" fill="#5F4622"/>
<path d="M94.4942 2.79395V12.6564H91.9922V10.5576H89.0567V11.7792H81.0681V3.97449H89.0567V5.19602H91.9922V2.79395H94.4942ZM94.5515 16.3702C94.5515 18.4689 92.3274 19.6741 88.7706 19.6741C85.2137 19.6741 82.9896 18.4771 82.9896 16.3702C82.9896 14.2632 85.1973 13.0909 88.7706 13.0909C92.3438 13.0909 94.5515 14.3124 94.5515 16.3702ZM83.5129 5.95845V9.81981H86.5956V5.95845H83.5129ZM85.4753 16.3702C85.4753 17.3048 86.5956 17.7803 88.7706 17.7803C90.9456 17.7803 92.0658 17.313 92.0658 16.3702C92.0658 15.4274 90.9456 15.0011 88.7706 15.0011C86.5956 15.0011 85.4753 15.4356 85.4753 16.3702ZM91.984 8.56548V7.15539H89.0486V8.56548H91.984Z" fill="#5F4622"/>
<path d="M107.381 13.7212L107.569 15.5248C103.939 16.238 99.9729 16.2954 97.0783 16.2954L96.8003 14.2704C99.7357 14.2704 103.873 14.254 107.389 13.7294L107.381 13.7212ZM106.76 8.06439C106.76 10.4993 104.756 12.2455 102.123 12.2455C99.4904 12.2455 97.4626 10.4993 97.4626 8.06439C97.4626 5.62952 99.4659 3.88331 102.123 3.88331C104.781 3.88331 106.76 5.62952 106.76 8.06439ZM99.8993 8.06439C99.8993 9.35971 100.872 10.1057 102.123 10.1057C103.374 10.1057 104.331 9.35971 104.331 8.06439C104.331 6.76907 103.374 6.02304 102.123 6.02304C100.872 6.02304 99.8993 6.75268 99.8993 8.06439ZM110.782 2.75195V19.6813H108.297V2.75195H110.782Z" fill="#5F4622"/>
<path d="M119.409 13.5409V12.2292H113.088V10.2206H128.297V12.2292H121.935V13.5409H126.727V15.4921H124.486V17.4433H126.899V19.4108H114.535V17.4433H116.931V15.4921H114.707V13.5409H119.417H119.409ZM121.968 2.95703V3.44073C121.968 5.14595 123.726 7.05613 127.561 7.50704L126.686 9.45821C123.808 9.08109 121.764 7.88415 120.701 6.2855C119.638 7.90055 117.593 9.08109 114.699 9.45821L113.816 7.50704C117.667 7.05613 119.409 5.16235 119.409 3.44073V2.95703H121.968ZM122.025 17.4351V15.4839H119.368V17.4351H122.025Z" fill="#5F4622"/>
<path d="M68.8113 24.428H66.0885V26.3956H68.3861V26.8629H66.0885V29.3388H65.5488V23.9443H68.8031V24.4198L68.8113 24.428Z" fill="#5F4622"/>
<path d="M74.7721 26.6423C74.7721 28.2655 73.6765 29.3969 72.1311 29.3969C70.5857 29.3969 69.49 28.2655 69.49 26.6423C69.49 25.019 70.5857 23.8877 72.1311 23.8877C73.6765 23.8877 74.7721 25.019 74.7721 26.6423ZM74.2243 26.6423C74.2243 25.306 73.3576 24.3632 72.1229 24.3632C70.8882 24.3632 70.0215 25.306 70.0215 26.6423C70.0215 27.9786 70.8882 28.9214 72.1229 28.9214C73.3576 28.9214 74.2243 27.9786 74.2243 26.6423Z" fill="#5F4622"/>
<path d="M78.836 29.3388L77.307 27.1088H76.2767V29.3388H75.7371V23.9443H77.5523C78.5335 23.9443 79.2203 24.6002 79.2203 25.5266C79.2203 26.2808 78.6888 26.9121 77.9202 27.0679L79.4738 29.3388H78.8278H78.836ZM78.6888 25.5184C78.6888 24.8789 78.2309 24.428 77.5686 24.428H76.2767V26.6333H77.5686C78.2228 26.6333 78.6888 26.1742 78.6888 25.5184Z" fill="#5F4622"/>
<path d="M83.971 24.4284H81.1746V26.3222H83.5867V26.7977H81.1746V28.8554H83.971V29.3309H80.6431V23.9365H83.971V24.412V24.4284Z" fill="#5F4622"/>
<path d="M86.7591 28.9208C87.495 28.9372 87.9774 28.5437 87.9774 27.937C87.9774 26.4778 85.1728 27.0926 85.1728 25.207C85.1728 24.3544 85.9005 23.8707 86.8408 23.8871C87.6094 23.9035 88.1655 24.297 88.4108 25.0513L87.9202 25.2234C87.7812 24.7151 87.3641 24.3708 86.8327 24.3626C86.1949 24.3626 85.7043 24.6578 85.7043 25.2152C85.7043 26.6499 88.5007 26.0433 88.5007 27.937C88.5007 28.8224 87.8057 29.4127 86.7345 29.3963C85.9496 29.3799 85.3609 28.9454 84.9275 28.1748L85.3854 27.9288C85.6552 28.4781 86.1376 28.9126 86.7427 28.9208H86.7591Z" fill="#5F4622"/>
<path d="M93.0961 24.4286H91.4853V29.3393H90.9456V24.4286H89.343V23.9531H93.0879V24.4286H93.0961Z" fill="#5F4622"/>
<path d="M99.2124 24.428H96.4896V26.3956H98.7873V26.8629H96.4896V29.3388H95.95V23.9443H99.2043V24.4198L99.2124 24.428Z" fill="#5F4622"/>
<path d="M105.165 26.6423C105.165 28.2655 104.069 29.3969 102.524 29.3969C100.978 29.3969 99.8828 28.2655 99.8828 26.6423C99.8828 25.019 100.978 23.8877 102.524 23.8877C104.069 23.8877 105.165 25.019 105.165 26.6423ZM104.617 26.6423C104.617 25.306 103.75 24.3632 102.516 24.3632C101.281 24.3632 100.414 25.306 100.414 26.6423C100.414 27.9786 101.281 28.9214 102.516 28.9214C103.75 28.9214 104.617 27.9786 104.617 26.6423Z" fill="#5F4622"/>
<path d="M109.229 29.3388L107.7 27.1088H106.669V29.3388H106.13V23.9443H107.945C108.926 23.9443 109.613 24.6002 109.613 25.5266C109.613 26.2808 109.081 26.9121 108.313 27.0679L109.866 29.3388H109.22H109.229ZM109.081 25.5184C109.081 24.8789 108.624 24.428 107.961 24.428H106.669V26.6333H107.961C108.615 26.6333 109.081 26.1742 109.081 25.5184Z" fill="#5F4622"/>
<path d="M113.431 28.8633H115.991V29.3388H112.892V23.9443H113.431V28.8551V28.8633Z" fill="#5F4622"/>
<path d="M117.692 23.9443V29.3388H117.152V23.9443H117.692Z" fill="#5F4622"/>
<path d="M122.262 24.428H119.539V26.3956H121.837V26.8629H119.539V29.3388H119V23.9443H122.254V24.4198L122.262 24.428Z" fill="#5F4622"/>
<path d="M126.514 24.4284H123.718V26.3222H126.13V26.7977H123.718V28.8554H126.514V29.3309H123.186V23.9365H126.514V24.412V24.4284Z" fill="#5F4622"/>
</svg>
