<svg width="77" height="70" viewBox="0 0 77 70" fill="none" xmlns="http://www.w3.org/2000/svg">
<path d="M67.1765 7.51172H9.82353C4.95043 7.51172 1 11.4621 1 16.3352V60.1264C1 64.9995 4.95043 68.95 9.82353 68.95H67.1765C72.0496 68.95 76 64.9995 76 60.1264V16.3352C76 11.4621 72.0496 7.51172 67.1765 7.51172Z" fill="white" stroke="#1D1D1D" stroke-width="2" stroke-miterlimit="10"/>
<path d="M9.82353 7.51172H67.1765C72.0471 7.51172 76 11.4647 76 16.3352V25.2205C76 25.4676 75.7971 25.6705 75.55 25.6705H1.45C1.20294 25.6705 1 25.4676 1 25.2205V16.3352C1 11.4647 4.95294 7.51172 9.82353 7.51172Z" fill="#91ABE6" stroke="#1D1D1D" stroke-width="2" stroke-miterlimit="10"/>
<path d="M23.95 3.20588C23.95 1.98761 22.9624 1 21.7441 1C20.5258 1 19.5382 1.98761 19.5382 3.20588V13.2471C19.5382 14.4653 20.5258 15.4529 21.7441 15.4529C22.9624 15.4529 23.95 14.4653 23.95 13.2471V3.20588Z" fill="white" stroke="#1D1D1D" stroke-width="2" stroke-miterlimit="10"/>
<path d="M40.7058 3.20588C40.7058 1.98761 39.7182 1 38.4999 1C37.2817 1 36.2941 1.98761 36.2941 3.20588V13.2471C36.2941 14.4653 37.2817 15.4529 38.4999 15.4529C39.7182 15.4529 40.7058 14.4653 40.7058 13.2471V3.20588Z" fill="white" stroke="#1D1D1D" stroke-width="2" stroke-miterlimit="10"/>
<path d="M57.4618 3.20588C57.4618 1.98761 56.4742 1 55.2559 1C54.0377 1 53.05 1.98761 53.05 3.20588V13.2471C53.05 14.4653 54.0377 15.4529 55.2559 15.4529C56.4742 15.4529 57.4618 14.4653 57.4618 13.2471V3.20588Z" fill="white" stroke="#1D1D1D" stroke-width="2" stroke-miterlimit="10"/>
<path d="M22.1852 31.2471H8.94995V44.4824H22.1852V31.2471Z" fill="white" stroke="#1D1D1D" stroke-width="2" stroke-miterlimit="10"/>
<path d="M22.1852 48.0117H8.94995V61.247H22.1852V48.0117Z" fill="#91ABE6" stroke="#1D1D1D" stroke-width="2" stroke-miterlimit="10"/>
<path d="M45.1176 31.2471H31.8823V44.4824H45.1176V31.2471Z" fill="white" stroke="#1D1D1D" stroke-width="2" stroke-miterlimit="10"/>
<path d="M68.05 31.2471H54.8147V44.4824H68.05V31.2471Z" fill="white" stroke="#1D1D1D" stroke-width="2" stroke-miterlimit="10"/>
<path d="M17.1912 59.1912L10.2559 48.753L13.1941 46.7941L17.447 53.2L25.9794 42.4971L28.7323 44.6941L17.1912 59.1912Z" fill="#1D1D1D"/>
</svg>
