<svg width="69" height="78" viewBox="0 0 69 78" fill="none" xmlns="http://www.w3.org/2000/svg">
<path d="M65.3374 39H15.6626C14.1921 39 13 40.1939 13 41.6667V74.3333C13 75.8061 14.1921 77 15.6626 77H65.3374C66.8079 77 68 75.8061 68 74.3333V41.6667C68 40.1939 66.8079 39 65.3374 39Z" fill="#91ABE6" stroke="#1D1D1D" stroke-width="2" stroke-linecap="round" stroke-linejoin="round"/>
<path d="M47 40H34V76H47V40Z" fill="white"/>
<path d="M44.8124 4.63176L2.16834 34.4915C0.970801 35.33 0.679762 36.9806 1.51829 38.1781L5.73914 44.2061C6.57767 45.4036 8.22823 45.6947 9.42577 44.8562L52.0699 14.9964C53.2674 14.1579 53.5585 12.5073 52.7199 11.3098L48.4991 5.28181C47.6605 4.08427 46.01 3.79323 44.8124 4.63176Z" fill="#91ABE6" stroke="#1D1D1D" stroke-width="2" stroke-linecap="round" stroke-linejoin="round"/>
<path d="M28.1638 16.4419L35.2775 26.6013L26.074 33.0456L18.9604 22.8862L28.1638 16.4419Z" fill="white" stroke="#1D1D1D" stroke-width="2"/>
<path d="M24.2565 18.846C24.2565 18.846 30.5566 14.7695 31.9683 9.88126C33.3801 4.99302 31.9771 1.92243 29.3654 1.16361C26.7536 0.404786 23.9301 2.26655 22.5183 7.14596C21.1065 12.0254 24.2565 18.8371 24.2565 18.8371V18.846Z" stroke="#1D1D1D" stroke-width="2" stroke-linecap="round" stroke-linejoin="round"/>
<path d="M22.5625 20.0282C22.5625 20.0282 16.5713 24.5546 11.5066 24.2105C6.43304 23.8664 4.02421 21.5017 4.20951 18.784C4.3948 16.0752 7.10363 14.0546 12.1772 14.3899C17.2507 14.734 22.5713 20.0193 22.5713 20.0193L22.5625 20.0282Z" stroke="#1D1D1D" stroke-width="2" stroke-linecap="round" stroke-linejoin="round"/>
<path d="M54.3801 21.6694C55.0331 21.6694 55.5625 21.14 55.5625 20.487C55.5625 19.834 55.0331 19.3047 54.3801 19.3047C53.7271 19.3047 53.1978 19.834 53.1978 20.487C53.1978 21.14 53.7271 21.6694 54.3801 21.6694Z" fill="#1D1D1D"/>
<path d="M59.8066 35.7254C61.1029 35.7254 62.1537 34.6746 62.1537 33.3783C62.1537 32.0821 61.1029 31.0312 59.8066 31.0312C58.5104 31.0312 57.4596 32.0821 57.4596 33.3783C57.4596 34.6746 58.5104 35.7254 59.8066 35.7254Z" fill="#1D1D1D"/>
<path d="M49.9154 23.1699L51.7154 26.6376L55.5713 27.2729L52.8183 30.0523L53.4095 33.917L49.9154 32.1611L46.4213 33.917L47.0124 30.0523L44.2683 27.2729L48.1242 26.6376L49.9154 23.1699Z" fill="#1D1D1D" stroke="#1D1D1D" stroke-width="2" stroke-linecap="round" stroke-linejoin="round"/>
<path d="M62.1536 14.5664L63.4419 17.0635L66.2213 17.5223L64.2448 19.5252L64.6683 22.3046L62.1536 21.0429L59.6301 22.3046L60.0536 19.5252L58.0771 17.5223L60.8566 17.0635L62.1536 14.5664Z" fill="#1D1D1D" stroke="#1D1D1D" stroke-width="2" stroke-linecap="round" stroke-linejoin="round"/>
<line x1="34" y1="40" x2="34" y2="76" stroke="#1D1D1D" stroke-width="2"/>
<line x1="48" y1="40" x2="48" y2="76" stroke="#1D1D1D" stroke-width="2"/>
<path d="M67 52H14V63H67V52Z" fill="white"/>
<line x1="14" y1="51" x2="67" y2="51" stroke="#1D1D1D" stroke-width="2"/>
<line x1="14" y1="63" x2="67" y2="63" stroke="#1D1D1D" stroke-width="2"/>
<line x1="13.5" y1="51" x2="13.5" y2="64" stroke="#1D1D1D"/>
</svg>
