<svg width="303" height="71" viewBox="0 0 303 71" fill="none" xmlns="http://www.w3.org/2000/svg">
<path d="M242.328 14.0039H235.919V43.2765H242.328V14.0039Z" fill="#3D3D3D"/>
<path d="M199.953 40.0494C199.953 41.8253 201.389 43.263 203.175 43.263H233.952V38.9621H206.374V27.9683H233.469V17.3248C233.409 15.6576 232.069 14.3166 230.391 14.2441H199.953V18.545H227.048V23.6553H199.953V40.0494Z" fill="#3D3D3D"/>
<path d="M86.9954 14.0039V26.4837H56.0014V14.0039H49.5806V27.0394C49.5806 28.8154 51.0289 30.253 52.8031 30.253H86.9954V37.3688C83.7126 34.4573 79.4159 32.6813 74.7088 32.6813C64.3775 32.6813 56.0135 41.1864 56.0135 51.6849C56.0135 62.1834 64.3896 70.7006 74.7088 70.7006C85.0281 70.7006 93.3439 62.2559 93.4042 51.8057V14.0039H86.9954ZM74.7088 68.2361C67.9259 68.2361 62.4102 60.8303 62.4102 51.6849C62.4102 42.5395 67.9138 35.1338 74.7088 35.1338C81.5039 35.1338 87.0075 42.5395 87.0075 51.6849C87.0075 60.8303 81.5039 68.2361 74.7088 68.2361Z" fill="#3D3D3D"/>
<path d="M302.493 24.9238C302.42 24.9238 302.348 24.948 302.275 24.9722C302.275 24.9722 286.465 31.4114 282.385 55.5374H282.409C282.409 55.5374 282.385 55.5978 282.385 55.622C282.385 55.8998 282.615 56.1294 282.892 56.1294C282.916 56.1294 282.928 56.1294 282.953 56.1173H282.965C282.965 56.1173 301.865 56.4193 303 25.4313C303 25.1534 302.77 24.9238 302.493 24.9238Z" fill="#3D3D3D"/>
<path d="M286.031 34.0078C285.862 34.0078 285.705 34.0441 285.572 34.1166C285.439 34.1528 283.001 34.8173 278.113 34.8173H278.089C273.213 34.8173 270.763 34.1528 270.63 34.1166C270.486 34.0562 270.329 34.0078 270.172 34.0078C269.568 34.0078 269.085 34.5032 269.085 35.0951C269.085 35.373 269.194 35.6146 269.351 35.8079C275.953 46.8138 276.484 55.0652 276.484 55.0652C276.484 55.9592 277.208 56.6841 278.101 56.6841C278.994 56.6841 279.731 55.9592 279.731 55.0652C279.731 55.0652 280.262 46.8138 286.851 35.8079C287.02 35.6146 287.117 35.373 287.117 35.0951C287.117 34.4911 286.634 34.0078 286.031 34.0078Z" fill="#3D3D3D"/>
<path d="M253.805 24.9839C253.745 24.9597 253.672 24.9355 253.588 24.9355C253.31 24.9355 253.081 25.1651 253.081 25.4429C254.216 56.431 273.116 56.1411 273.116 56.1411C273.116 56.1411 273.164 56.1411 273.189 56.1411C273.466 56.1411 273.695 55.9115 273.695 55.6337C273.695 55.6095 273.683 55.5854 273.683 55.5612H273.695C269.616 31.4231 253.805 24.9839 253.805 24.9839Z" fill="#3D3D3D"/>
<path d="M298.643 7.16494C292.886 -2.49996 277.945 0.411558 277.945 0.411558C277.945 0.411558 263.003 -2.49996 257.246 7.16494C257.246 7.16494 246.878 16.6486 259.635 24.9242C259.635 24.9242 266.189 32.3057 277.945 32.3057C289.7 32.3057 296.242 24.9242 296.242 24.9242C309.011 16.6365 298.643 7.16494 298.643 7.16494ZM294.636 9.71403C293.719 9.9919 288.409 11.7437 284.643 15.4647C284.571 15.513 284.498 15.5855 284.45 15.658C284.341 15.8029 284.281 15.9841 284.281 16.1774C284.281 16.6003 284.583 16.9386 284.981 17.011C285.5 17.1681 288.759 18.2554 292.307 21.3119C292.404 21.4086 292.476 21.5415 292.476 21.6864C292.476 21.9643 292.247 22.1938 291.969 22.1938C291.885 22.1938 291.8 22.1697 291.728 22.1334C291.486 21.9884 287.443 19.6326 277.969 19.6326C268.494 19.6326 264.451 21.9884 264.198 22.1334C264.125 22.1697 264.053 22.1938 263.968 22.1938C263.679 22.1938 263.461 21.9643 263.461 21.6864C263.461 21.5415 263.534 21.4086 263.63 21.3119C267.179 18.2554 270.437 17.1681 270.944 17.011C271.343 16.9386 271.656 16.6003 271.656 16.1774C271.656 15.9841 271.584 15.8029 271.475 15.67C271.415 15.5975 271.355 15.525 271.282 15.4767C267.517 11.7557 262.206 10.004 261.289 9.72613C261.048 9.68988 260.866 9.4845 260.866 9.2308C260.866 8.95293 261.096 8.72337 261.373 8.72337C268.784 8.72337 273.563 12.2148 274.469 12.9276C274.517 12.9759 274.553 13.0122 274.613 13.0484C274.746 13.133 274.891 13.1813 275.06 13.1813C275.422 13.1813 275.736 12.9397 275.857 12.6014H275.869C276.545 11.0067 277.462 5.29234 277.462 5.29234C277.462 5.01447 277.691 4.78495 277.969 4.78495C278.246 4.78495 278.476 5.01447 278.476 5.29234C278.476 5.29234 279.393 11.0067 280.069 12.6014C280.189 12.9397 280.491 13.1813 280.865 13.1813C281.022 13.1813 281.179 13.133 281.312 13.0484C281.36 13.0122 281.408 12.9759 281.457 12.9276C282.35 12.2148 287.129 8.72337 294.552 8.72337C294.829 8.72337 295.059 8.95293 295.059 9.2308C295.059 9.4845 294.878 9.6778 294.636 9.72613V9.71403Z" fill="#3D3D3D"/>
<path d="M140.33 14.0039C142.104 14.0039 143.541 15.4416 143.541 17.2175V20.4915V24.0916H99.5962V20.4915H137.12V17.6041H100.308V14.0039H140.33Z" fill="#3D3D3D"/>
<path d="M102.807 43.2876C101.032 43.2876 99.5962 41.8499 99.5962 40.074V33.514H137.12V31.0494H99.5962V27.4492H143.541V37.1141H106.005V39.6995H143.541V43.2996H109.191H102.819L102.807 43.2876Z" fill="#3D3D3D"/>
<path d="M25.0679 38.9635V30.2651H43.1115V17.2175C43.1236 15.4416 41.6874 14.0039 39.9132 14.0039H0.603465V27.0515C0.603465 28.8275 2.03972 30.2651 3.8139 30.2651H18.4057V38.9635H0V43.2644H43.9443V38.9635H25.0559H25.0679ZM7.38641 26.4837V17.7853H36.7028V26.4837H7.38641Z" fill="#3D3D3D"/>
<path d="M193.882 25.5052V17.6766C193.906 17.5316 193.93 17.3987 193.93 17.2417C193.93 15.4537 192.494 14.0039 190.72 14.0039C190.659 14.0039 190.623 14.016 190.563 14.016L150.577 14.0039V17.9786H187.485V21.4942H156.31V21.458H149.889V30.0114H149.925C150.058 31.6786 151.422 32.9834 153.112 32.9834C153.172 32.9834 153.22 32.9713 153.269 32.9713H168.512V38.9756H149.889V43.2161H193.833V38.9756H175.174V32.9713H193.882V28.9966H156.298V25.481H187.473L193.87 25.4931L193.882 25.5052Z" fill="#3D3D3D"/>
</svg>
