<svg width="15" height="28" viewBox="0 0 15 28" fill="none" xmlns="http://www.w3.org/2000/svg">
<path d="M11.837 13.9958L0.439463 2.5983C0.138869 2.29771 -0.00752024 1.93987 0.000297229 1.52478C0.0081147 1.1097 0.162321 0.751737 0.462915 0.450891C0.76351 0.150297 1.12135 0 1.53643 0C1.95151 0 2.30948 0.150297 2.61032 0.450891L14.1939 12.0579C14.4673 12.3316 14.6699 12.6381 14.8018 12.9775C14.9339 13.3169 15 13.6564 15 13.9958C15 14.3352 14.9339 14.6746 14.8018 15.0141C14.6699 15.3535 14.4673 15.66 14.1939 15.9336L2.58687 27.5407C2.28628 27.8413 1.93235 27.9877 1.52508 27.9799C1.11756 27.972 0.76351 27.8178 0.462915 27.5172C0.162321 27.2166 0.0120233 26.8588 0.0120233 26.4437C0.0120233 26.0286 0.162321 25.6707 0.462915 25.3698L11.837 13.9958Z" fill="#3D3D3D"/>
</svg>
