<svg width="71" height="64" viewBox="0 0 71 64" fill="none" xmlns="http://www.w3.org/2000/svg">
<path d="M23.6411 32.582H12.6558V54.2526H23.6411V32.582Z" fill="#91ABE6" stroke="#1D1D1D" stroke-width="2" stroke-miterlimit="10"/>
<path d="M12.6558 53.5469H23.6411V57.3498C23.6411 60.3763 21.1793 62.8381 18.1528 62.8381C15.1264 62.8381 12.6646 60.3763 12.6646 57.3498V53.5469H12.6558Z" fill="#91ABE6" stroke="#1D1D1D" stroke-width="2" stroke-miterlimit="10"/>
<path d="M12.9647 12.9414H20.7647V36.8796H12.9647C6.35588 36.8796 1 31.5149 1 24.9149C1 18.3061 6.3647 12.9502 12.9647 12.9502V12.9414Z" fill="#91ABE6" stroke="#1D1D1D" stroke-width="2" stroke-miterlimit="10"/>
<path d="M60.9475 33.4883H55.7004V16.3408L60.9475 16.3408C65.6804 16.341 69.5208 20.1821 69.5208 24.915C69.5206 29.6478 65.6803 33.4881 60.9475 33.4883Z" fill="#91ABE6" stroke="#1D1D1D" stroke-width="2"/>
<path d="M57.6911 48.7029L20.7646 34.8588V14.9794L57.6911 1.13529C59.0588 0.623525 60.5235 1.63823 60.5235 3.09411V46.7441C60.5235 48.2088 59.0676 49.2147 57.6911 48.7029Z" fill="white" stroke="#1D1D1D" stroke-width="2" stroke-miterlimit="10"/>
<path d="M25.7322 12.9414H12.6558V36.8796H25.7322V12.9414Z" fill="white" stroke="#1D1D1D" stroke-width="2" stroke-miterlimit="10"/>
</svg>
