<svg width="15" height="28" viewBox="0 0 15 28" fill="none" xmlns="http://www.w3.org/2000/svg">
<path d="M3.16305 13.9958L14.5605 2.5983C14.8611 2.29771 15.0075 1.93987 14.9997 1.52478C14.9919 1.1097 14.8377 0.751737 14.5371 0.450891C14.2365 0.150297 13.8787 0 13.4636 0C13.0485 0 12.6905 0.150297 12.3897 0.450891L0.80608 12.0579C0.532721 12.3316 0.330098 12.6381 0.19821 12.9775C0.0660693 13.3169 -2.40139e-07 13.6564 -2.40139e-07 13.9958C-2.40139e-07 14.3352 0.0660693 14.6746 0.19821 15.0141C0.330098 15.3535 0.532721 15.66 0.80608 15.9336L12.4131 27.5407C12.7137 27.8413 13.0677 27.9877 13.4749 27.9799C13.8824 27.972 14.2365 27.8178 14.5371 27.5172C14.8377 27.2166 14.988 26.8588 14.988 26.4437C14.988 26.0286 14.8377 25.6707 14.5371 25.3698L3.16305 13.9958Z" fill="#3D3D3D"/>
</svg>
