<svg width="6" height="8" viewBox="0 0 6 8" fill="none" xmlns="http://www.w3.org/2000/svg">
<path d="M0.2875 7.7125C0.0958337 7.52083 0 7.28333 0 7V1C0 0.716667 0.0958337 0.479167 0.2875 0.2875C0.479167 0.0958333 0.716667 0 1 0C1.28333 0 1.52083 0.0958333 1.7125 0.2875C1.90417 0.479167 2 0.716667 2 1V7C2 7.28333 1.90417 7.52083 1.7125 7.7125C1.52083 7.90417 1.28333 8 1 8C0.716667 8 0.479167 7.90417 0.2875 7.7125ZM4.2875 7.7125C4.09583 7.52083 4 7.28333 4 7V1C4 0.716667 4.09583 0.479167 4.2875 0.2875C4.47917 0.0958333 4.71667 0 5 0C5.28333 0 5.52083 0.0958333 5.7125 0.2875C5.90417 0.479167 6 0.716667 6 1V7C6 7.28333 5.90417 7.52083 5.7125 7.7125C5.52083 7.90417 5.28333 8 5 8C4.71667 8 4.47917 7.90417 4.2875 7.7125Z" fill="#3753E9"/>
</svg>
