<svg width="82" height="64" viewBox="0 0 82 64" fill="none" xmlns="http://www.w3.org/2000/svg">
<path d="M75.9029 9.72656H5.49112C5.00381 9.72656 4.60876 10.1216 4.60876 10.6089V61.7501C4.60876 62.2374 5.00381 62.6324 5.49112 62.6324H75.9029C76.3902 62.6324 76.7852 62.2374 76.7852 61.7501V10.6089C76.7852 10.1216 76.3902 9.72656 75.9029 9.72656Z" fill="white" stroke="#1D1D1D" stroke-width="2" stroke-miterlimit="10"/>
<path d="M5.37647 1.04408L20.2441 1.00879C20.5088 1.00879 20.7206 1.19408 20.7206 1.41466V19.7853C20.7206 24.2588 16.5382 27.8853 11.3765 27.8853H10.3441C5.18235 27.8853 1 24.2588 1 19.7853L4.98824 1.37938C4.98824 1.19408 5.15588 1.04408 5.36765 1.04408H5.37647Z" fill="#91ABE6" stroke="#1D1D1D" stroke-width="2" stroke-miterlimit="10"/>
<path d="M32.1471 27.8857H30.0824C25.2118 27.8857 21.2589 23.9328 21.2589 19.0622L21.2589 1.45044C21.2589 1.20338 21.4618 1.00045 21.7089 1.00045L40.5295 1.00045C40.7766 1.00045 40.9795 1.20338 40.9795 1.45044V19.0622C40.9795 23.9328 37.0266 27.8857 32.156 27.8857H32.1471Z" fill="white" stroke="#1D1D1D" stroke-width="2" stroke-miterlimit="10"/>
<path d="M51.8676 27.8857H49.8029C44.9323 27.8857 40.9794 23.9328 40.9794 19.0622V1.45044C40.9794 1.20338 41.1823 1.00045 41.4294 1.00045L60.2499 1.00045C60.497 1.00045 60.7 1.20338 60.7 1.45044V19.0622C60.7 23.9328 56.747 27.8857 51.8764 27.8857H51.8676Z" fill="#91ABE6" stroke="#1D1D1D" stroke-width="2" stroke-miterlimit="10"/>
<path d="M61.1589 1L76.0001 1.01765C76.2383 1.01765 76.4236 1.1853 76.4236 1.38824L80.3942 19.7765C80.3942 24.25 76.2118 27.8765 71.05 27.8765H70.0177C64.8559 27.8765 60.6736 24.25 60.6736 19.7765V1.40589C60.6736 1.17648 60.8853 1 61.1501 1H61.1589Z" fill="white" stroke="#1D1D1D" stroke-width="2" stroke-miterlimit="10"/>
<path d="M38.4735 33.9561H13.7941V47.1913H38.4735V33.9561Z" fill="#91ABE6" stroke="#1D1D1D" stroke-width="2" stroke-miterlimit="10"/>
<path d="M67.3 41.0146H54.0647V61.9264H67.3V41.0146Z" fill="#91ABE6" stroke="#1D1D1D" stroke-width="2" stroke-miterlimit="10"/>
</svg>
