<svg width="73" height="69" viewBox="0 0 73 69" fill="none" xmlns="http://www.w3.org/2000/svg">
<path d="M49.4766 1.48938C44.6483 -0.578107 39.3283 4.3637 36.2775 7.98179C33.2267 4.3637 27.9067 -0.578107 23.0784 1.48938C17.1533 4.02331 14.2033 10.6922 16.4977 16.3652C18.7921 22.0382 36.2649 33.7119 36.2649 33.7119C36.2649 33.7119 53.7376 22.0382 56.032 16.3652C58.3264 10.6922 55.3765 4.02331 49.4514 1.48938H49.4766Z" fill="#91ABE6" stroke="#1D1D1D" stroke-width="2" stroke-linecap="round" stroke-linejoin="round"/>
<rect x="12.1743" y="35.9619" width="23.2244" height="11.2922" transform="rotate(23.1912 12.1743 35.9619)" fill="white"/>
<path d="M21.452 49.1926L11.0515 42.9019C7.81163 40.91 3.57582 41.9186 1.58397 45.1458C0.44938 46.9864 1.01668 49.4069 2.86985 50.5541L11.6314 55.9749L23.2421 63.1229C32.1424 68.6067 44.3582 68.7832 53.0568 64.4213C53.0568 64.4213 61.2511 59.8451 71.5885 61.2319V40.5696L63.7219 36.2078C54.9477 31.3038 43.7279 39.6368 43.7279 39.6368C39.4542 42.448 35.8487 44.2634 30.8691 45.2089C29.016 45.5619 26.7342 45.5367 25.0449 46.2931C22.9396 47.2259 21.2377 48.8144 20.7082 51.1214C20.33 52.735 21.036 54.7647 22.4353 55.6976C24.3263 56.9708 27.1628 56.5296 29.2555 56.2523C34.4368 55.5841 39.5299 54.1722 44.3834 52.2434C44.4464 52.2182 44.5095 52.1929 44.5725 52.1677" fill="white"/>
<path d="M21.452 49.1926L11.0515 42.9019C7.81163 40.91 3.57582 41.9186 1.58397 45.1458C0.44938 46.9864 1.01668 49.4069 2.86985 50.5541L11.6314 55.9749L23.2421 63.1229C32.1424 68.6067 44.3582 68.7832 53.0568 64.4213C53.0568 64.4213 61.2511 59.8451 71.5885 61.2319V40.5696L63.7219 36.2078C54.9477 31.3038 43.7279 39.6368 43.7279 39.6368C39.4542 42.448 35.8487 44.2634 30.8691 45.2089C29.016 45.5619 26.7342 45.5367 25.0449 46.2931C22.9396 47.2259 21.2377 48.8144 20.7082 51.1214C20.33 52.735 21.036 54.7647 22.4353 55.6976C24.3263 56.9708 27.1628 56.5296 29.2555 56.2523C34.4368 55.5841 39.5299 54.1722 44.3834 52.2434C44.4464 52.2182 44.5095 52.1929 44.5725 52.1677" stroke="#1D1D1D" stroke-width="2" stroke-linecap="round" stroke-linejoin="round"/>
<path d="M25.5113 46.1039L14.2158 39.4855C11.3541 37.7205 7.59736 38.6156 5.84505 41.4773L5.54248 42.1455" stroke="#1D1D1D" stroke-width="2" stroke-linecap="round" stroke-linejoin="round"/>
<path d="M32.0418 44.9822L19.1074 37.3552C16.523 35.7541 13.1949 36.334 11.2913 38.578" stroke="#1D1D1D" stroke-width="2" stroke-linecap="round" stroke-linejoin="round"/>
</svg>
