<svg width="22" height="12" viewBox="0 0 22 12" fill="none" xmlns="http://www.w3.org/2000/svg">
<path d="M10.8802 3.12919L2.43999 11.5694C2.15291 11.8565 1.81798 11.9952 1.43521 11.9856C1.05243 11.9761 0.717507 11.8278 0.430426 11.5407C0.143344 11.2536 -0.000196457 10.9187 -0.000196457 10.5359C-0.000196457 10.1531 0.143344 9.81818 0.430426 9.5311L9.24382 0.688995C9.47349 0.45933 9.73186 0.287081 10.0189 0.172248C10.306 0.0574158 10.5931 -4.84852e-07 10.8802 -4.72404e-07C11.1673 -4.59957e-07 11.4543 0.0574158 11.7414 0.172248C12.0285 0.287081 12.2869 0.45933 12.5166 0.688995L21.3587 9.5311C21.6457 9.81818 21.7845 10.1579 21.7749 10.5502C21.7654 10.9426 21.617 11.2823 21.33 11.5694C21.0429 11.8565 20.7079 12 20.3252 12C19.9424 12 19.6075 11.8565 19.3204 11.5694L10.8802 3.12919Z" fill="white"/>
</svg>
