<svg width="13" height="7" viewBox="0 0 13 7" fill="none" xmlns="http://www.w3.org/2000/svg">
<path d="M6.34692 1.82536L1.42347 6.7488C1.25601 6.91627 1.06063 6.99721 0.837349 6.99163C0.614063 6.98604 0.418689 6.89952 0.251225 6.73206C0.0837603 6.56459 2.86102e-05 6.36922 2.86102e-05 6.14593C2.86102e-05 5.92265 0.0837603 5.72727 0.251225 5.55981L5.39237 0.401914C5.52634 0.267942 5.67706 0.167464 5.84453 0.100478C6.01199 0.0334925 6.17945 -2.8283e-07 6.34692 -2.75569e-07C6.51438 -2.68308e-07 6.68185 0.0334926 6.84931 0.100478C7.01678 0.167464 7.16749 0.267942 7.30146 0.401914L12.4594 5.55981C12.6268 5.72727 12.7078 5.92544 12.7022 6.15431C12.6966 6.38317 12.6101 6.58134 12.4426 6.7488C12.2751 6.91627 12.0798 7 11.8565 7C11.6332 7 11.4378 6.91627 11.2704 6.7488L6.34692 1.82536Z" fill="white"/>
</svg>
