<svg width="22" height="12" viewBox="0 0 22 12" fill="none" xmlns="http://www.w3.org/2000/svg">
<path d="M10.8804 3.12919L2.44018 11.5694C2.1531 11.8565 1.81817 11.9952 1.43539 11.9856C1.05262 11.9761 0.71769 11.8278 0.430609 11.5407C0.143526 11.2536 -1.33514e-05 10.9187 -1.33514e-05 10.5359C-1.33514e-05 10.1531 0.143526 9.81818 0.430609 9.5311L9.24401 0.688995C9.47367 0.45933 9.73205 0.287081 10.0191 0.172248C10.3062 0.0574158 10.5933 -4.84852e-07 10.8804 -4.72404e-07C11.1675 -4.59957e-07 11.4545 0.0574158 11.7416 0.172248C12.0287 0.287081 12.2871 0.45933 12.5167 0.688995L21.3588 9.5311C21.6459 9.81818 21.7847 10.1579 21.7751 10.5502C21.7655 10.9426 21.6172 11.2823 21.3301 11.5694C21.0431 11.8565 20.7081 12 20.3253 12C19.9426 12 19.6076 11.8565 19.3206 11.5694L10.8804 3.12919Z" fill="white"/>
</svg>
