<svg width="225" height="53" viewBox="0 0 225 53" fill="none" xmlns="http://www.w3.org/2000/svg">
<path d="M104.348 22.3636V24.041H113.473V26.6309H92.0923V24.041H101.239V22.3636H104.348ZM107.179 16.774C107.467 17.0964 107.696 17.4515 107.864 17.8395C108.033 18.2438 108.114 18.6754 108.114 19.1344C108.114 20.4403 107.565 21.5167 106.473 22.3636C105.446 23.1613 104.239 23.5602 102.859 23.5602C101.375 23.5602 100.114 23.1613 99.0651 22.3636C97.951 21.5331 97.3966 20.4676 97.3966 19.1617C97.3966 18.7191 97.4727 18.2875 97.6249 17.8668C97.7771 17.4952 97.9945 17.1291 98.2825 16.774H92.8477V14.4628H101.136V12.4302H104.348V14.4628H112.712V16.774H107.174H107.179ZM107.484 26.0736C109.016 27.2101 109.783 28.658 109.783 30.4174C109.783 32.2806 109.06 33.8214 107.609 35.0399C106.261 36.1928 104.685 36.7665 102.88 36.7665C100.978 36.7665 99.3423 36.1928 97.9782 35.0399C96.5271 33.8214 95.8042 32.2806 95.8042 30.4174C95.8042 28.658 96.5705 27.2046 98.1032 26.0736C99.4999 25.0737 101.092 24.5765 102.88 24.5765C104.668 24.5765 106.114 25.0791 107.478 26.0736H107.484ZM100.076 27.8002C99.2825 28.5433 98.8858 29.4284 98.8858 30.4447C98.8858 31.461 99.2825 32.3079 100.076 33.0346C100.853 33.7613 101.75 34.1274 102.783 34.1274C103.815 34.1274 104.685 33.7613 105.462 33.0346C106.255 32.3079 106.652 31.4446 106.652 30.4447C106.652 29.4448 106.255 28.5487 105.462 27.8002C104.685 27.0899 103.793 26.7347 102.783 26.7347C101.772 26.7347 100.853 27.0899 100.076 27.8002ZM101.011 17.4624C100.489 17.9214 100.228 18.4623 100.228 19.0907C100.228 19.7518 100.489 20.3091 101.011 20.7681C101.516 21.2107 102.114 21.4292 102.804 21.4292C103.494 21.4292 104.071 21.2107 104.576 20.7681C105.098 20.3091 105.359 19.7518 105.359 19.0907C105.359 18.4296 105.098 17.905 104.576 17.4624C104.071 17.0199 103.478 16.8013 102.804 16.8013C102.13 16.8013 101.516 17.0199 101.011 17.4624Z" fill="white"/>
<path d="M128.897 14.791C130.196 15.8947 130.842 17.2989 130.842 19.0092C130.842 20.7194 130.196 22.1072 128.897 23.2273C127.701 24.26 126.277 24.7791 124.625 24.7791C122.973 24.7791 121.489 24.26 120.277 23.2273C118.978 22.1072 118.332 20.703 118.332 19.0092C118.332 17.3153 118.978 15.8947 120.277 14.791C121.489 13.7583 122.94 13.2393 124.625 13.2393C126.31 13.2393 127.701 13.7583 128.897 14.791ZM138.902 35.4993H135.946V29.2977H120V26.6532H138.908V35.4938L138.902 35.4993ZM122.272 16.8017C121.582 17.4137 121.234 18.1459 121.234 19.0146C121.234 19.8834 121.576 20.6155 122.272 21.2275C122.962 21.8231 123.745 22.1181 124.62 22.1181C125.495 22.1181 126.223 21.8231 126.897 21.2275C127.603 20.5992 127.957 19.8615 127.957 19.0146C127.957 18.1677 127.603 17.4137 126.897 16.8017C126.223 16.228 125.467 15.9384 124.62 15.9384C123.728 15.9384 122.946 16.228 122.272 16.8017ZM135.946 14.0042H138.902V24.6261H135.946V14.0042Z" fill="white"/>
<path d="M157.332 14.0039V16.2168C157.332 21.637 155.897 25.5929 153.033 28.0844C151.011 29.8657 148.408 30.8273 145.223 30.9803V28.0844C148.272 27.9806 150.571 26.8878 152.125 24.8061C153.592 22.8391 154.326 20.1126 154.326 16.6266H145.554V14.0094H157.332V14.0039ZM162.136 14.0039H165.092V35.7066H162.136V14.0039Z" fill="white"/>
<path d="M179.908 26.4289V24.2434H170.658V21.6753H192.038V24.2434H182.788V26.4289H179.908ZM182.995 13.545C182.995 14.9875 183.821 16.0693 185.473 16.796C186.853 17.408 188.794 17.7468 191.288 17.8123V20.2492C189.25 20.2165 187.402 19.976 185.756 19.5389C183.685 18.9816 182.217 18.1675 181.359 17.102C180.467 18.1675 178.984 18.9816 176.913 19.5389C175.261 19.9815 173.435 20.211 171.429 20.2274V17.8123C173.908 17.7304 175.837 17.3807 177.217 16.7687C178.87 16.0584 179.696 14.982 179.696 13.5396H183.006L182.995 13.545ZM188.326 27.9315H171.419V25.44H191.283V31.5869H174.375V32.86H191.283V35.4007H173.185C172.576 35.4007 172.141 35.2586 171.87 34.969C171.565 34.6631 171.413 34.1658 171.413 33.4719V29.15H188.321V27.9315H188.326Z" fill="white"/>
<path d="M200.587 22.4894H215.071V25.0793H199.375C198.766 25.0793 198.332 24.9372 198.06 24.6476C197.755 24.3416 197.603 23.8444 197.603 23.1505V14.0039H209.81V16.6211H200.587V22.4894ZM198.565 27.9806H201.522V32.7561H217.647V35.3733H200.332C199.745 35.3733 199.304 35.2312 199.016 34.9416C198.712 34.6357 198.56 34.1439 198.56 33.4664V27.9806H198.565ZM217.473 21.2217V28.5161H214.516V14.0094H217.473V18.5827H220.457V21.2272H217.473V21.2217Z" fill="white"/>
<path d="M68.1901 35.6028V28.5871H58.989V25.9426H80.3695V28.5871H71.1194V35.6028H68.1901ZM71.6303 16.6484C71.6792 18.0199 72.4999 19.0198 74.0814 19.6481C75.326 20.1235 77.1738 20.4022 79.6194 20.4841V23.074C77.4618 23.0084 75.6792 22.8117 74.2608 22.4894C72.0542 21.9812 70.5271 21.1452 69.6847 19.976C68.8423 21.1452 67.2934 21.9812 65.0325 22.4894C63.5977 22.8117 61.8368 23.0084 59.7499 23.074V20.4841C62.1738 20.4185 64.0216 20.1344 65.2879 19.6481C66.8694 19.0198 67.6901 18.0199 67.739 16.6484H59.7499V14.0039H79.614V16.6484H71.6249H71.6303Z" fill="white"/>
<path d="M83.5163 30.0897C83.8043 28.6308 83.9456 26.8987 83.9456 24.8826C83.9293 22.8992 83.788 21.1999 83.5163 19.7738C83.1141 17.7412 82.4456 16.4463 81.5217 15.8835V12.4521C83.3261 13.1952 84.6576 14.594 85.5163 16.643C86.3587 18.6592 86.7826 21.3857 86.7826 24.8279C86.7826 28.2702 86.4022 31.1114 85.6467 33.1112C84.8043 35.3132 83.4293 36.8212 81.5272 37.6353V34.2313C82.4728 33.603 83.1359 32.2261 83.5217 30.0897H83.5163Z" fill="white"/>
<path d="M58.1305 37.4824C56.1903 36.6847 54.8099 35.1876 53.9838 32.9856C53.2066 30.9858 52.837 28.2266 52.8697 24.7023C52.8697 21.2655 53.2881 18.539 54.136 16.5229C54.9947 14.4575 56.3262 13.0587 58.1305 12.332V15.7634C57.1849 16.3207 56.511 17.6211 56.1088 19.6537C55.837 21.0579 55.7066 22.7627 55.7066 24.7624C55.6903 26.795 55.8153 28.5216 56.087 29.9477C56.4892 32.0841 57.174 33.461 58.136 34.0894V37.4934L58.1305 37.4824Z" fill="white"/>
<path d="M53.4946 48.2518V43.5747H54.3261V45.4488H56.4185V43.5747H57.2392V48.2518H56.4185V46.1701H54.3261V48.2518H53.4946Z" fill="white"/>
<path d="M58.4567 44.9512C58.598 44.6562 58.81 44.3939 59.0817 44.159C59.3371 43.9349 59.6252 43.7656 59.935 43.6508C60.2502 43.5361 60.5926 43.4814 60.9621 43.4814C61.3317 43.4814 61.6795 43.5361 62.0002 43.6508C62.3154 43.7656 62.6089 43.9404 62.8752 44.1699C63.1469 44.3994 63.348 44.6616 63.4893 44.9512C63.6306 45.2408 63.7013 45.5523 63.7013 45.8856C63.7013 46.2189 63.6415 46.5248 63.5165 46.8035C63.3969 47.0822 63.223 47.3335 62.9893 47.5575C62.7067 47.8143 62.4024 48.011 62.0654 48.1422C61.7176 48.2788 61.348 48.3498 60.9567 48.3498C60.5654 48.3498 60.1904 48.2788 59.848 48.1367C59.5111 48.0001 59.2067 47.8034 58.935 47.5411C58.7121 47.3171 58.5437 47.0658 58.4241 46.7871C58.31 46.503 58.2556 46.2025 58.2556 45.8856C58.2556 45.5687 58.3263 45.2463 58.4621 44.9512H58.4567ZM59.2284 46.5522C59.3208 46.7653 59.4513 46.9456 59.6197 47.0986C59.7991 47.257 60.0056 47.3827 60.2393 47.4701C60.473 47.563 60.7067 47.6067 60.9513 47.6067C61.4893 47.6067 61.9404 47.4428 62.3045 47.1095C62.6687 46.7762 62.8534 46.3664 62.8534 45.8692C62.8534 45.6615 62.81 45.4648 62.7176 45.2736C62.6252 45.0769 62.4947 44.9075 62.3263 44.7491C62.1306 44.5633 61.9241 44.4267 61.7013 44.3393C61.4784 44.2573 61.2284 44.2136 60.9513 44.2136C60.7067 44.2136 60.473 44.2519 60.2556 44.3229C60.0328 44.3994 59.8371 44.5196 59.6632 44.678C59.4784 44.8365 59.3371 45.0223 59.2447 45.2354C59.1524 45.443 59.1034 45.6561 59.1034 45.8746C59.1034 46.1096 59.1469 46.3336 59.2339 46.5412L59.2284 46.5522Z" fill="white"/>
<path d="M64.6848 48.2518V43.5747H65.5163L68.0218 46.9514V43.5747H68.8316V48.2518H68.0544L65.5163 44.7877V48.2518H64.6848Z" fill="white"/>
<path d="M75.2826 45.8584C75.2446 46.607 74.9674 47.208 74.4565 47.667C73.9511 48.1205 73.3207 48.3445 72.5544 48.3445C72.1576 48.3445 71.7881 48.2735 71.4457 48.1314C71.1087 47.9948 70.8044 47.7981 70.5326 47.5359C70.3098 47.3118 70.1413 47.0605 70.0217 46.7818C69.9076 46.4977 69.8533 46.1972 69.8533 45.8803C69.8533 45.5634 69.9239 45.241 70.0598 44.946C70.2011 44.6509 70.4076 44.3886 70.6794 44.1537C70.9402 43.9242 71.2337 43.7494 71.5544 43.6346C71.8696 43.5253 72.2283 43.4707 72.6196 43.4707C73.1576 43.4707 73.625 43.5854 74.0326 43.8095C74.4402 44.039 74.7609 44.3668 74.9837 44.7984H73.9674C73.7935 44.6017 73.5815 44.4542 73.3424 44.3559C73.1087 44.263 72.8478 44.2138 72.5544 44.2138C72.3098 44.2138 72.0761 44.252 71.8587 44.3231C71.6359 44.405 71.4402 44.5252 71.2772 44.6782C71.0924 44.8367 70.9511 45.0225 70.8478 45.2356C70.7554 45.4377 70.7065 45.6508 70.7065 45.8748C70.7065 46.1098 70.75 46.3338 70.837 46.5414C70.9294 46.7545 71.0598 46.9348 71.2283 47.0878C71.4076 47.2463 71.6141 47.3719 71.8478 47.4594C72.0815 47.5523 72.3152 47.596 72.5598 47.596C72.9294 47.596 73.2554 47.514 73.5326 47.3446C73.8261 47.1698 74.0707 46.9075 74.2554 46.5524H72.4783V45.8366H75.2826V45.8584Z" fill="white"/>
<path d="M80.973 46.3285H76.6523V45.7056H80.973V46.3285Z" fill="white"/>
<path d="M82.5491 48.2518V43.5747H83.3806V48.2518H82.5491Z" fill="white"/>
<path d="M84.5327 48.2518V43.5747H85.3588V45.8696L87.3153 43.5747H88.3208L86.2555 45.8969L88.3534 48.2573H87.3208L85.3588 45.9843V48.2573H84.5327V48.2518Z" fill="white"/>
<path d="M91.4565 48.2464V43.5747H94.2826V44.2522H92.2881V45.5636H94.2826V46.2356H92.2881V47.5415H94.2826V48.2464H91.4565Z" fill="white"/>
<path d="M95.1902 48.2518V44.7057H95.9511V45.0281C96.1576 44.8751 96.3479 44.7713 96.5218 44.7166C96.6685 44.6675 96.837 44.6401 97.0326 44.6401C97.5489 44.6401 97.9511 44.7767 98.2337 45.0445C98.5218 45.3231 98.6685 45.7165 98.6685 46.2301V48.2463H97.8859V46.3667C97.8859 46.0007 97.8098 45.7329 97.6631 45.5635C97.5109 45.3887 97.2772 45.3013 96.9566 45.3013C96.5924 45.3013 96.3316 45.4106 96.1794 45.6236C96.0381 45.8313 95.9674 46.1646 95.9674 46.6235V48.2409H95.1848L95.1902 48.2518Z" fill="white"/>
<path d="M100.647 48.2187C100.755 48.3389 100.902 48.4263 101.087 48.4864C101.261 48.5465 101.473 48.5738 101.712 48.5738C102.054 48.5738 102.332 48.4864 102.549 48.317C102.783 48.1367 102.924 47.8854 102.967 47.5575C102.826 47.6941 102.62 47.8089 102.353 47.8908C102.109 47.9728 101.88 48.0165 101.663 48.0165C101.081 48.0165 100.598 47.8526 100.228 47.5193C99.8532 47.1914 99.6685 46.7816 99.6685 46.2954C99.6685 46.0604 99.7119 45.8364 99.8043 45.6288C99.8967 45.4157 100.027 45.2354 100.212 45.0769C100.397 44.9021 100.603 44.7764 100.826 44.6999C101.06 44.6179 101.326 44.5742 101.63 44.5742C101.864 44.5742 102.076 44.607 102.266 44.6671C102.473 44.7327 102.696 44.8529 102.951 45.0223V44.7054H103.75V47.3936C103.75 47.9455 103.587 48.3771 103.261 48.6885C102.929 49.0055 102.467 49.1694 101.875 49.1694C101.408 49.1694 101 49.0874 100.652 48.918C100.288 48.7541 100.033 48.5192 99.8913 48.2187H100.658H100.647ZM100.832 47.0439C101.076 47.257 101.364 47.3608 101.701 47.3608C102 47.3608 102.272 47.257 102.511 47.0439C102.755 46.8308 102.88 46.5959 102.88 46.3336C102.88 46.0385 102.755 45.7817 102.511 45.5687C102.266 45.3556 101.989 45.2517 101.679 45.2517C101.348 45.2517 101.065 45.3556 100.826 45.5577C100.587 45.7599 100.473 46.0058 100.473 46.2899C100.473 46.574 100.592 46.8308 100.837 47.0439H100.832Z" fill="white"/>
<path d="M104.897 44.2468V43.5747H105.663V44.2468H104.897ZM104.897 44.7057H105.663V48.2518H104.897V44.7057Z" fill="white"/>
<path d="M106.826 48.2518V44.7057H107.587V45.0281C107.794 44.8751 107.984 44.7713 108.158 44.7166C108.304 44.6675 108.473 44.6401 108.669 44.6401C109.185 44.6401 109.587 44.7767 109.87 45.0445C110.158 45.3231 110.304 45.7165 110.304 46.2301V48.2463H109.522V46.3667C109.522 46.0007 109.446 45.7329 109.299 45.5635C109.147 45.3887 108.913 45.3013 108.593 45.3013C108.228 45.3013 107.968 45.4106 107.815 45.6236C107.674 45.8313 107.603 46.1646 107.603 46.6235V48.2409H106.821L106.826 48.2518Z" fill="white"/>
<path d="M112.125 46.7436C112.228 47.0332 112.402 47.2572 112.636 47.4211C112.859 47.5796 113.12 47.6561 113.424 47.6561C113.641 47.6561 113.853 47.6124 114.049 47.5195C114.223 47.4321 114.375 47.3173 114.505 47.1753H115.397C115.196 47.5468 114.929 47.8309 114.587 48.0331C114.245 48.2353 113.859 48.3391 113.429 48.3391C113.125 48.3391 112.848 48.2899 112.592 48.197C112.342 48.1041 112.114 47.973 111.918 47.7927C111.723 47.6124 111.576 47.4102 111.473 47.1753C111.37 46.9458 111.315 46.7108 111.315 46.4704C111.315 46.2191 111.364 45.9787 111.456 45.7601C111.549 45.547 111.696 45.3448 111.886 45.1645C112.092 44.9733 112.326 44.8312 112.576 44.7329C112.826 44.64 113.098 44.5908 113.397 44.5908C113.75 44.5908 114.087 44.6619 114.402 44.8039C114.717 44.9514 114.978 45.1536 115.179 45.4159C115.299 45.5798 115.386 45.7546 115.451 45.9513C115.505 46.1426 115.538 46.3611 115.538 46.6125V46.7436H112.141H112.125ZM112.685 45.476C112.467 45.618 112.293 45.8311 112.163 46.1098H114.641C114.511 45.8202 114.348 45.6071 114.141 45.4705C113.94 45.3394 113.706 45.2738 113.429 45.2738C113.152 45.2738 112.897 45.3394 112.679 45.4814L112.685 45.476Z" fill="white"/>
<path d="M117.196 46.7436C117.299 47.0332 117.473 47.2572 117.707 47.4211C117.93 47.5796 118.19 47.6561 118.495 47.6561C118.712 47.6561 118.924 47.6124 119.12 47.5195C119.294 47.4321 119.446 47.3173 119.576 47.1753H120.468C120.266 47.5468 120 47.8309 119.658 48.0331C119.315 48.2353 118.93 48.3391 118.5 48.3391C118.196 48.3391 117.919 48.2899 117.663 48.197C117.413 48.1041 117.185 47.973 116.989 47.7927C116.794 47.6124 116.647 47.4102 116.538 47.1753C116.435 46.9458 116.381 46.7108 116.381 46.4704C116.381 46.2191 116.43 45.9787 116.522 45.7601C116.614 45.547 116.761 45.3448 116.951 45.1645C117.158 44.9733 117.391 44.8312 117.641 44.7329C117.891 44.6345 118.163 44.5908 118.462 44.5908C118.815 44.5908 119.152 44.6619 119.468 44.8039C119.783 44.9514 120.044 45.1536 120.245 45.4159C120.364 45.5798 120.451 45.7546 120.516 45.9513C120.571 46.1426 120.603 46.3611 120.603 46.6125V46.7436H117.207H117.196ZM117.761 45.476C117.544 45.618 117.37 45.8311 117.239 46.1098H119.718C119.587 45.8202 119.424 45.6071 119.218 45.4705C119.016 45.3394 118.783 45.2738 118.506 45.2738C118.228 45.2738 117.973 45.3394 117.756 45.4814L117.761 45.476Z" fill="white"/>
<path d="M121.603 48.2517V44.7056H122.337V45.0116C122.397 44.8805 122.538 44.7821 122.755 44.7111C122.918 44.6674 123.092 44.6455 123.283 44.6455V45.3667C122.94 45.3831 122.701 45.4651 122.565 45.6072C122.44 45.7438 122.38 45.9678 122.38 46.2792V48.2517H121.603Z" fill="white"/>
<path d="M124.098 44.2468V43.5747H124.864V44.2468H124.098ZM124.098 44.7057H124.864V48.2518H124.098V44.7057Z" fill="white"/>
<path d="M126.027 48.2518V44.7057H126.788V45.0281C126.995 44.8751 127.185 44.7713 127.359 44.7166C127.505 44.6675 127.674 44.6401 127.87 44.6401C128.386 44.6401 128.788 44.7767 129.071 45.0445C129.359 45.3231 129.505 45.7165 129.505 46.2301V48.2463H128.723V46.3667C128.723 46.0007 128.647 45.7329 128.5 45.5635C128.348 45.3887 128.114 45.3013 127.793 45.3013C127.429 45.3013 127.168 45.4106 127.016 45.6236C126.875 45.8313 126.804 46.1646 126.804 46.6235V48.2409H126.022L126.027 48.2518Z" fill="white"/>
<path d="M131.484 48.2187C131.592 48.3389 131.739 48.4263 131.924 48.4864C132.098 48.5465 132.31 48.5738 132.549 48.5738C132.891 48.5738 133.168 48.4864 133.386 48.317C133.62 48.1367 133.755 47.8854 133.804 47.5575C133.663 47.6941 133.457 47.8089 133.19 47.8908C132.946 47.9728 132.717 48.0165 132.5 48.0165C131.918 48.0165 131.435 47.8526 131.06 47.5193C130.685 47.1914 130.5 46.7816 130.5 46.2954C130.5 46.0604 130.543 45.8364 130.636 45.6288C130.728 45.4157 130.859 45.2354 131.043 45.0769C131.228 44.9021 131.435 44.7764 131.658 44.6999C131.891 44.6179 132.158 44.5742 132.462 44.5742C132.696 44.5742 132.908 44.607 133.098 44.6671C133.304 44.7327 133.527 44.8529 133.783 45.0223V44.7054H134.582V47.3936C134.582 47.9455 134.418 48.3771 134.092 48.6885C133.761 49.0055 133.299 49.1694 132.707 49.1694C132.239 49.1694 131.832 49.0874 131.484 48.918C131.12 48.7541 130.864 48.5192 130.723 48.2187H131.489H131.484ZM131.668 47.0439C131.908 47.257 132.201 47.3608 132.538 47.3608C132.837 47.3608 133.109 47.257 133.348 47.0439C133.592 46.8308 133.717 46.5959 133.717 46.3336C133.717 46.0385 133.592 45.7817 133.348 45.5687C133.109 45.3556 132.826 45.2517 132.516 45.2517C132.185 45.2517 131.902 45.3556 131.663 45.5577C131.424 45.7599 131.31 46.0058 131.31 46.2899C131.31 46.574 131.429 46.8308 131.674 47.0439H131.668Z" fill="white"/>
<path d="M141.582 47.3882C141.348 47.716 141.103 47.9564 140.843 48.1094C140.587 48.2624 140.305 48.3389 140.006 48.3389C139.571 48.3389 139.196 48.1968 138.881 47.9182C138.576 47.645 138.424 47.3171 138.424 46.9347C138.424 46.6724 138.495 46.4375 138.647 46.2298C138.799 46.0167 139.044 45.8091 139.386 45.6069C139.18 45.4376 139.027 45.2791 138.935 45.1261C138.848 44.9786 138.805 44.8201 138.805 44.6508C138.805 44.3229 138.93 44.0497 139.174 43.8366C139.43 43.6181 139.75 43.5088 140.125 43.5088C140.457 43.5088 140.745 43.6181 140.995 43.8366C141.245 44.0552 141.37 44.3175 141.37 44.618C141.37 44.8147 141.305 44.995 141.18 45.1589C141.049 45.3228 140.848 45.4922 140.565 45.6616L141.283 46.279L141.788 45.1425H142.625L141.902 46.7489L143.147 47.7269L142.647 48.2242L141.571 47.3827L141.582 47.3882ZM140.527 47.4537C140.69 47.339 140.837 47.1641 140.968 46.9237L139.924 46.044C139.674 46.1806 139.495 46.3172 139.381 46.4593C139.277 46.5904 139.223 46.7434 139.223 46.9128C139.223 47.1095 139.294 47.2789 139.435 47.41C139.582 47.5466 139.772 47.6177 139.995 47.6177C140.19 47.6177 140.364 47.563 140.522 47.4483L140.527 47.4537ZM139.685 44.9458C139.75 45.0387 139.87 45.148 140.038 45.2627C140.239 45.1589 140.381 45.0605 140.473 44.9622C140.565 44.8638 140.609 44.7546 140.609 44.6398C140.609 44.5087 140.56 44.4049 140.457 44.3175C140.364 44.23 140.245 44.1863 140.103 44.1863C139.962 44.1863 139.837 44.2246 139.739 44.3065C139.641 44.383 139.593 44.4923 139.593 44.6289C139.593 44.7491 139.625 44.8529 139.685 44.9458Z" fill="white"/>
<path d="M150.456 48.0056C150.049 48.2351 149.576 48.3498 149.038 48.3498C148.647 48.3498 148.277 48.2788 147.935 48.1367C147.592 48.0001 147.288 47.8034 147.016 47.5411C146.793 47.3171 146.625 47.0658 146.505 46.7871C146.391 46.503 146.337 46.2025 146.337 45.8856C146.337 45.5687 146.408 45.2463 146.543 44.9567C146.679 44.6616 146.886 44.3994 147.163 44.159C147.424 43.9349 147.712 43.7656 148.022 43.6508C148.342 43.5361 148.69 43.4814 149.054 43.4814C149.598 43.4814 150.081 43.5962 150.489 43.8257C150.908 44.0606 151.228 44.3939 151.451 44.831H150.489C150.315 44.6234 150.103 44.4704 149.853 44.3666C149.609 44.2737 149.337 44.2245 149.033 44.2245C148.788 44.2245 148.554 44.2628 148.337 44.3338C148.109 44.4158 147.913 44.536 147.755 44.689C147.571 44.8474 147.429 45.0332 147.326 45.2463C147.234 45.4539 147.185 45.667 147.185 45.8856C147.185 46.1205 147.228 46.3445 147.321 46.5522C147.413 46.7653 147.543 46.9456 147.712 47.0986C147.886 47.257 148.092 47.3827 148.326 47.4701C148.56 47.563 148.793 47.6067 149.038 47.6067C149.331 47.6067 149.598 47.5575 149.842 47.4592C150.081 47.3608 150.283 47.2188 150.446 47.0275H151.44C151.196 47.4482 150.864 47.7761 150.451 48.0001L150.456 48.0056Z" fill="white"/>
<path d="M152.456 45.7763C152.549 45.5632 152.696 45.3665 152.886 45.1862C153.087 45.0004 153.337 44.8529 153.636 44.7491C153.913 44.6507 154.201 44.6016 154.495 44.6016C154.788 44.6016 155.027 44.6453 155.255 44.7382C155.462 44.8201 155.679 44.9567 155.897 45.1425C156.098 45.3228 156.25 45.5304 156.359 45.7544C156.467 45.9785 156.522 46.208 156.522 46.4538C156.522 46.6997 156.467 46.9292 156.364 47.1587C156.266 47.3936 156.13 47.5903 155.956 47.7542C155.745 47.9509 155.505 48.0985 155.245 48.2023C154.984 48.3116 154.712 48.3662 154.424 48.3662C154.136 48.3662 153.848 48.317 153.592 48.2241C153.337 48.1313 153.109 47.9947 152.918 47.8143C152.723 47.6395 152.571 47.4373 152.462 47.2024C152.364 46.9729 152.315 46.738 152.315 46.4921C152.315 46.2462 152.364 46.0003 152.456 45.7818V45.7763ZM153.484 47.3335C153.734 47.563 154.049 47.6778 154.424 47.6778C154.799 47.6778 155.087 47.563 155.326 47.3335C155.576 47.104 155.701 46.8199 155.701 46.4812C155.701 46.1424 155.576 45.8419 155.326 45.6179C155.081 45.4048 154.783 45.2955 154.413 45.2955C154.043 45.2955 153.734 45.4048 153.489 45.6233C153.239 45.8473 153.114 46.1369 153.114 46.4866C153.114 46.8363 153.239 47.104 153.484 47.3335Z" fill="white"/>
<path d="M157.511 48.2518V44.7057H158.272V45.0281C158.478 44.8751 158.669 44.7713 158.843 44.7166C158.989 44.6675 159.158 44.6401 159.353 44.6401C159.87 44.6401 160.272 44.7767 160.555 45.0445C160.843 45.3231 160.989 45.7165 160.989 46.2301V48.2463H160.207V46.3667C160.207 46.0007 160.131 45.7329 159.984 45.5635C159.832 45.3887 159.598 45.3013 159.277 45.3013C158.913 45.3013 158.652 45.4106 158.5 45.6236C158.359 45.8313 158.288 46.1646 158.288 46.6235V48.2409H157.506L157.511 48.2518Z" fill="white"/>
<path d="M162.516 47.0606C162.516 47.2518 162.571 47.4048 162.685 47.5196C162.794 47.6343 162.935 47.6944 163.103 47.6944C163.261 47.6944 163.386 47.6507 163.489 47.5633C163.593 47.4813 163.647 47.372 163.647 47.2464C163.647 47.1316 163.609 47.0333 163.533 46.9513C163.462 46.8748 163.348 46.8093 163.19 46.7546L163.027 46.7C162.848 46.6453 162.723 46.6071 162.652 46.5743C162.538 46.5306 162.451 46.4869 162.397 46.4432C162.245 46.3394 162.136 46.2192 162.06 46.088C161.995 45.9569 161.962 45.8148 161.962 45.6455C161.962 45.3504 162.076 45.0991 162.31 44.8914C162.544 44.6893 162.826 44.5854 163.158 44.5854C163.511 44.5854 163.788 44.6783 163.989 44.8586C164.196 45.0444 164.31 45.3067 164.326 45.6509H163.582C163.571 45.5089 163.527 45.405 163.451 45.3395C163.375 45.2739 163.266 45.2411 163.131 45.2411C163 45.2411 162.897 45.2739 162.815 45.3395C162.739 45.4105 162.701 45.5034 162.701 45.6127C162.701 45.7219 162.745 45.8203 162.837 45.8804C162.897 45.9186 163.033 45.9678 163.234 46.0389L163.533 46.1372C163.837 46.2519 164.054 46.3885 164.185 46.5525C164.321 46.7164 164.391 46.9404 164.391 47.2136C164.391 47.5305 164.266 47.7982 164.016 48.0168C163.766 48.2299 163.451 48.3392 163.076 48.3392C162.701 48.3392 162.397 48.2244 162.158 47.9949C161.919 47.7654 161.794 47.4485 161.783 47.0551H162.516V47.0606Z" fill="white"/>
<path d="M168.044 48.2569V47.9455C167.837 48.093 167.647 48.1914 167.484 48.2515C167.326 48.3116 167.158 48.3389 166.973 48.3389C166.446 48.3389 166.038 48.2023 165.75 47.9236C165.468 47.645 165.321 47.2516 165.321 46.7489V44.7163H166.103V46.574C166.103 46.9456 166.174 47.2188 166.326 47.3936C166.473 47.5739 166.707 47.6668 167.022 47.6668C167.218 47.6668 167.391 47.6286 167.544 47.5466C167.679 47.4701 167.788 47.3608 167.87 47.2242C167.929 47.1259 167.973 47.0002 168 46.8472C168.016 46.7325 168.027 46.5686 168.027 46.3446V44.7163H168.794V48.2624H168.044V48.2569Z" fill="white"/>
<path d="M169.94 43.5747H170.706V48.2518H169.94V43.5747Z" fill="white"/>
<path d="M172.136 45.3396H171.565V44.7057H172.136V43.5747H172.913V44.7057H173.484V45.3396H172.913V48.2518H172.136V45.3396Z" fill="white"/>
<path d="M174.783 47.7873C174.381 47.4322 174.179 46.9896 174.179 46.4651C174.179 46.2137 174.228 45.9788 174.326 45.7493C174.424 45.5307 174.571 45.3286 174.766 45.1537C174.973 44.9734 175.196 44.8368 175.435 44.7439C175.679 44.6565 175.957 44.6128 176.261 44.6128C176.489 44.6128 176.701 44.6456 176.902 44.7111C177.12 44.7822 177.359 44.9024 177.62 45.0718V44.7111H178.397V48.2572H177.609V47.8693C177.359 48.0387 177.125 48.1589 176.913 48.2299C176.717 48.2955 176.516 48.3283 176.31 48.3283C175.696 48.3283 175.19 48.1479 174.788 47.7873H174.783ZM177.234 45.6291C176.978 45.3996 176.674 45.2849 176.321 45.2849C175.967 45.2849 175.641 45.3941 175.381 45.6127C175.114 45.8422 174.984 46.1208 174.984 46.4541C174.984 46.7874 175.114 47.0879 175.375 47.3174C175.636 47.5469 175.957 47.6671 176.326 47.6671C176.669 47.6671 176.967 47.5524 177.228 47.3174C177.495 47.0825 177.625 46.8093 177.625 46.4978C177.625 46.1536 177.495 45.864 177.228 45.6291H177.234Z" fill="white"/>
<path d="M179.549 48.2518V44.7057H180.31V45.0281C180.516 44.8751 180.707 44.7713 180.88 44.7166C181.027 44.6675 181.196 44.6401 181.391 44.6401C181.908 44.6401 182.31 44.7767 182.592 45.0445C182.88 45.3231 183.027 45.7165 183.027 46.2301V48.2463H182.245V46.3667C182.245 46.0007 182.168 45.7329 182.022 45.5635C181.87 45.3887 181.636 45.3013 181.315 45.3013C180.951 45.3013 180.69 45.4106 180.538 45.6236C180.397 45.8313 180.326 46.1646 180.326 46.6235V48.2409H179.543L179.549 48.2518Z" fill="white"/>
<path d="M184.446 45.3396H183.875V44.7057H184.446V43.5747H185.223V44.7057H185.793V45.3396H185.223V48.2518H184.446V45.3396Z" fill="white"/>
<path d="M187.022 47.0606C187.022 47.2518 187.076 47.4048 187.19 47.5196C187.299 47.6343 187.44 47.6944 187.609 47.6944C187.766 47.6944 187.891 47.6507 187.995 47.5633C188.098 47.4813 188.152 47.372 188.152 47.2464C188.152 47.1316 188.114 47.0333 188.038 46.9513C187.967 46.8748 187.853 46.8093 187.696 46.7546L187.533 46.7C187.353 46.6453 187.228 46.6071 187.158 46.5743C187.044 46.5306 186.957 46.4869 186.902 46.4432C186.75 46.3394 186.641 46.2192 186.565 46.088C186.5 45.9569 186.467 45.8148 186.467 45.6455C186.467 45.3504 186.582 45.0991 186.815 44.8914C187.049 44.6893 187.332 44.5854 187.663 44.5854C188.016 44.5854 188.294 44.6783 188.495 44.8586C188.701 45.0444 188.815 45.3067 188.832 45.6509H188.087C188.076 45.5089 188.033 45.405 187.957 45.3395C187.88 45.2739 187.772 45.2411 187.636 45.2411C187.505 45.2411 187.402 45.2739 187.321 45.3395C187.245 45.4105 187.207 45.5034 187.207 45.6127C187.207 45.7219 187.25 45.8203 187.342 45.8804C187.402 45.9186 187.538 45.9678 187.739 46.0389L188.038 46.1372C188.342 46.2519 188.56 46.3885 188.69 46.5525C188.826 46.7164 188.897 46.9404 188.897 47.2136C188.897 47.5305 188.772 47.7982 188.522 48.0168C188.272 48.2299 187.957 48.3392 187.582 48.3392C187.207 48.3392 186.902 48.2244 186.663 47.9949C186.424 47.7654 186.299 47.4485 186.288 47.0551H187.022V47.0606Z" fill="white"/>
<path d="M196.212 48.0056C195.804 48.2351 195.332 48.3498 194.794 48.3498C194.402 48.3498 194.033 48.2788 193.69 48.1367C193.348 48.0001 193.044 47.8034 192.772 47.5411C192.549 47.3171 192.381 47.0658 192.261 46.7871C192.147 46.503 192.093 46.2025 192.093 45.8856C192.093 45.5687 192.163 45.2463 192.299 44.9567C192.435 44.6616 192.641 44.3994 192.919 44.159C193.179 43.9349 193.468 43.7656 193.777 43.6508C194.098 43.5361 194.446 43.4814 194.81 43.4814C195.353 43.4814 195.837 43.5962 196.245 43.8257C196.663 44.0606 196.984 44.3939 197.207 44.831H196.245C196.071 44.6234 195.859 44.4704 195.609 44.3666C195.364 44.2737 195.093 44.2245 194.788 44.2245C194.544 44.2245 194.31 44.2628 194.093 44.3338C193.864 44.4158 193.669 44.536 193.511 44.689C193.326 44.8474 193.185 45.0332 193.082 45.2463C192.989 45.4539 192.94 45.667 192.94 45.8856C192.94 46.1205 192.984 46.3445 193.076 46.5522C193.169 46.7653 193.299 46.9456 193.468 47.0986C193.641 47.257 193.848 47.3827 194.082 47.4701C194.315 47.563 194.549 47.6067 194.794 47.6067C195.087 47.6067 195.353 47.5575 195.598 47.4592C195.837 47.3608 196.038 47.2188 196.201 47.0275H197.196C196.951 47.4482 196.62 47.7761 196.207 48.0001L196.212 48.0056Z" fill="white"/>
<path d="M198.212 45.7763C198.304 45.5632 198.451 45.3665 198.641 45.1862C198.843 45.0004 199.093 44.8529 199.391 44.7491C199.669 44.6507 199.957 44.6016 200.25 44.6016C200.544 44.6016 200.783 44.6453 201.011 44.7382C201.218 44.8201 201.435 44.9567 201.652 45.1425C201.853 45.3228 202.006 45.5304 202.114 45.7544C202.223 45.9785 202.277 46.208 202.277 46.4538C202.277 46.6997 202.223 46.9292 202.12 47.1587C202.022 47.3936 201.886 47.5903 201.712 47.7542C201.5 47.9509 201.261 48.0985 201 48.2023C200.739 48.3116 200.468 48.3662 200.179 48.3662C199.891 48.3662 199.603 48.317 199.348 48.2241C199.093 48.1313 198.864 47.9947 198.674 47.8143C198.478 47.6395 198.326 47.4373 198.218 47.2024C198.12 46.9729 198.071 46.738 198.071 46.4921C198.071 46.2462 198.12 46.0003 198.212 45.7818V45.7763ZM199.245 47.3335C199.495 47.563 199.81 47.6778 200.185 47.6778C200.56 47.6778 200.848 47.563 201.087 47.3335C201.337 47.104 201.462 46.8199 201.462 46.4812C201.462 46.1424 201.337 45.8419 201.087 45.6179C200.843 45.4048 200.544 45.2955 200.174 45.2955C199.804 45.2955 199.495 45.4048 199.25 45.6233C199 45.8473 198.875 46.1369 198.875 46.4866C198.875 46.8363 199 47.104 199.245 47.3335Z" fill="white"/>
<path d="M203.468 48.2517V47.4048H204.256V48.2517H203.468Z" fill="white"/>
<path d="M205.614 48.2464V43.5747H206.446V47.5415H208.169V48.2464H205.614Z" fill="white"/>
<path d="M209.31 45.3396H208.739V44.7057H209.31V43.5747H210.087V44.7057H210.658V45.3396H210.087V48.2518H209.31V45.3396Z" fill="white"/>
<path d="M211.973 47.7873C211.576 47.4321 211.375 46.9896 211.375 46.465C211.375 46.2137 211.424 45.9787 211.522 45.7493C211.62 45.5252 211.766 45.3285 211.957 45.1537C212.163 44.9679 212.386 44.8313 212.625 44.7439C212.87 44.6565 213.147 44.6128 213.451 44.6128C213.679 44.6128 213.897 44.6455 214.098 44.7111C214.31 44.7821 214.549 44.9023 214.81 45.0717V43.5801H215.587V48.2572H214.804V47.8693C214.549 48.0386 214.315 48.1588 214.098 48.2299C213.902 48.2954 213.701 48.3282 213.495 48.3282C212.886 48.3282 212.38 48.1479 211.973 47.7873ZM214.435 45.629C214.179 45.3996 213.875 45.2848 213.522 45.2848C213.152 45.2848 212.837 45.3941 212.576 45.6127C212.315 45.8421 212.185 46.1208 212.185 46.4541C212.185 46.7874 212.315 47.0879 212.576 47.3174C212.837 47.5469 213.158 47.6671 213.527 47.6671C213.864 47.6671 214.163 47.5523 214.429 47.3174C214.696 47.0824 214.826 46.8093 214.826 46.4978C214.826 46.1536 214.696 45.864 214.429 45.629H214.435Z" fill="white"/>
<path d="M216.946 48.2517V47.4048H217.734V48.2517H216.946Z" fill="white"/>
<path fill-rule="evenodd" clip-rule="evenodd" d="M43.4999 8.30523C43.4999 6.08141 41.7064 4.27832 39.4945 4.27832C37.2825 4.27832 35.489 6.08141 35.489 8.30523C35.489 10.529 37.2825 12.3321 39.4945 12.3321C41.7064 12.3321 43.4999 10.529 43.4999 8.30523ZM33.951 15.5832V13.7254H25.9401V15.5832H33.951ZM7.29883 13.7254V15.5832H15.3097V13.7254H7.29883ZM35.489 13.7254V15.5832H43.4999V13.7254H35.489ZM7.29883 18.5282V21.1618H15.3097V18.5282H7.29883ZM25.9401 18.5282V21.1618H33.951V18.5282H25.9401ZM35.489 18.5282V21.1618H43.4999V18.5282H35.489ZM35.489 24.1014V28.4398H43.4999V24.1014H35.489ZM25.9401 24.1014V26.888H15.3097V24.1014H7.29883V28.4398H33.951V24.1014H25.9401ZM7.29883 48.2629H15.3097V32.7726H25.9401V48.2629H33.951V30.9149H7.29883V48.2629ZM43.4999 30.9149H35.489V48.2629H43.4999V30.9149Z" fill="white"/>
</svg>
