<svg width="128" height="30" viewBox="0 0 128 30" fill="none" xmlns="http://www.w3.org/2000/svg">
<path d="M59.3623 12.6588V13.6083H64.5534V15.0743H52.3904V13.6083H57.5938V12.6588H59.3623ZM60.9732 9.4949C61.137 9.67737 61.2669 9.8784 61.3627 10.098C61.4586 10.3269 61.5049 10.5712 61.5049 10.831C61.5049 11.5702 61.1927 12.1794 60.5712 12.6588C59.9869 13.1104 59.3005 13.3361 58.5152 13.3361C57.6711 13.3361 56.9538 13.1104 56.3571 12.6588C55.7233 12.1887 55.4079 11.5856 55.4079 10.8464C55.4079 10.5959 55.4512 10.3516 55.5378 10.1135C55.6244 9.90314 55.748 9.69593 55.9119 9.4949H52.8201V8.18665H57.5351V7.03613H59.3623V8.18665H64.1206V9.4949H60.9701H60.9732ZM61.1463 14.7588C62.0182 15.4021 62.4541 16.2217 62.4541 17.2176C62.4541 18.2722 62.0429 19.1444 61.2174 19.8341C60.4506 20.4866 59.554 20.8114 58.5275 20.8114C57.4454 20.8114 56.5148 20.4866 55.7388 19.8341C54.9132 19.1444 54.502 18.2722 54.502 17.2176C54.502 16.2217 54.938 15.399 55.8099 14.7588C56.6045 14.1928 57.5104 13.9114 58.5275 13.9114C59.5447 13.9114 60.3672 14.1959 61.1432 14.7588H61.1463ZM56.9322 15.7361C56.4808 16.1568 56.2551 16.6578 56.2551 17.233C56.2551 17.8083 56.4808 18.2877 56.9322 18.699C57.3743 19.1104 57.8845 19.3176 58.4719 19.3176C59.0593 19.3176 59.554 19.1104 59.9961 18.699C60.4475 18.2877 60.6733 17.799 60.6733 17.233C60.6733 16.6671 60.4475 16.1598 59.9961 15.7361C59.554 15.3341 59.047 15.133 58.4719 15.133C57.8968 15.133 57.3743 15.3341 56.9322 15.7361ZM57.464 9.88459C57.1672 10.1444 57.0188 10.4506 57.0188 10.8062C57.0188 11.1805 57.1672 11.4959 57.464 11.7557C57.7515 12.0062 58.0916 12.1299 58.4843 12.1299C58.8769 12.1299 59.2046 12.0062 59.4922 11.7557C59.789 11.4959 59.9374 11.1805 59.9374 10.8062C59.9374 10.432 59.789 10.1351 59.4922 9.88459C59.2046 9.63407 58.8676 9.51036 58.4843 9.51036C58.1009 9.51036 57.7515 9.63407 57.464 9.88459Z" fill="white"/>
<path d="M73.3279 8.37213C74.0668 8.99687 74.4348 9.79171 74.4348 10.7598C74.4348 11.7278 74.0668 12.5134 73.3279 13.1474C72.6477 13.7319 71.8377 14.0257 70.8978 14.0257C69.9579 14.0257 69.1138 13.7319 68.4243 13.1474C67.6854 12.5134 67.3175 11.7185 67.3175 10.7598C67.3175 9.80099 67.6854 8.99687 68.4243 8.37213C69.1138 7.78759 69.9393 7.49377 70.8978 7.49377C71.8562 7.49377 72.6477 7.78759 73.3279 8.37213ZM79.0199 20.0938H77.338V16.5835H68.2667V15.0866H79.023V20.0907L79.0199 20.0938ZM69.559 9.51027C69.1664 9.85666 68.9685 10.2711 68.9685 10.7628C68.9685 11.2546 69.1633 11.669 69.559 12.0154C69.9517 12.3525 70.3969 12.5195 70.8947 12.5195C71.3925 12.5195 71.8068 12.3525 72.1901 12.0154C72.5921 11.6598 72.793 11.2422 72.793 10.7628C72.793 10.2835 72.5921 9.85666 72.1901 9.51027C71.8068 9.18553 71.377 9.02161 70.8947 9.02161C70.3876 9.02161 69.9424 9.18553 69.559 9.51027ZM77.338 7.92676H79.0199V13.9391H77.338V7.92676Z" fill="white"/>
<path d="M89.5042 7.92676V9.17934C89.5042 12.2474 88.6879 14.4866 87.0586 15.8969C85.9084 16.9051 84.4274 17.4494 82.6157 17.536V15.8969C84.3502 15.8381 85.658 15.2195 86.5422 14.0412C87.377 12.9278 87.7944 11.3845 87.7944 9.41129H82.8043V7.92985H89.5042V7.92676ZM92.2373 7.92676H93.9192V20.2113H92.2373V7.92676Z" fill="white"/>
<path d="M102.347 14.9598V13.7227H97.0852V12.2691H109.248V13.7227H103.986V14.9598H102.347ZM104.104 7.66703C104.104 8.48353 104.574 9.0959 105.513 9.50724C106.299 9.85363 107.402 10.0454 108.822 10.0825V11.4619C107.662 11.4433 106.611 11.3072 105.674 11.0598C104.496 10.7444 103.661 10.2835 103.173 9.68043C102.666 10.2835 101.822 10.7444 100.644 11.0598C99.7039 11.3103 98.6651 11.4402 97.5242 11.4495V10.0825C98.9341 10.0361 100.032 9.83817 100.817 9.49178C101.757 9.08971 102.227 8.48044 102.227 7.66394H104.11L104.104 7.66703ZM107.137 15.8103H97.5181V14.4H108.819V17.8794H99.2V18.6H108.819V20.0382H98.5229C98.1766 20.0382 97.9293 19.9578 97.7747 19.7938C97.6015 19.6206 97.515 19.3392 97.515 18.9464V16.5H107.134V15.8103H107.137Z" fill="white"/>
<path d="M114.112 12.7299H122.351V14.1958H113.422C113.076 14.1958 112.829 14.1154 112.674 13.9515C112.501 13.7783 112.414 13.4969 112.414 13.1041V7.92676H119.358V9.4082H114.112V12.7299ZM112.962 15.8381H114.643V18.5412H123.817V20.0226H113.966C113.632 20.0226 113.382 19.9422 113.218 19.7783C113.045 19.6051 112.958 19.3268 112.958 18.9433V15.8381H112.962ZM123.718 12.0123V16.1412H122.036V7.92985H123.718V10.5185H125.415V12.0154H123.718V12.0123Z" fill="white"/>
<path d="M38.7927 20.1525V16.1814H33.5583V14.6845H45.7214V16.1814H40.4591V20.1525H38.7927ZM40.7498 9.42367C40.7776 10.2 41.2444 10.7659 42.1442 11.1216C42.8522 11.3907 43.9034 11.5484 45.2947 11.5948V13.0608C44.0672 13.0237 43.0531 12.9123 42.2462 12.7299C40.9909 12.4422 40.1221 11.969 39.6429 11.3072C39.1637 11.969 38.2825 12.4422 36.9963 12.7299C36.1801 12.9123 35.1784 13.0237 33.9911 13.0608V11.5948C35.37 11.5577 36.4213 11.3969 37.1416 11.1216C38.0413 10.7659 38.5082 10.2 38.536 9.42367H33.9911V7.92676H45.2916V9.42367H40.7467H40.7498Z" fill="white"/>
<path d="M47.5115 17.032C47.6754 16.2062 47.7557 15.2258 47.7557 14.0845C47.7465 12.9619 47.6661 12 47.5115 11.1928C47.2827 10.0423 46.9024 9.30929 46.3768 8.99073V7.04846C47.4033 7.46908 48.1608 8.26083 48.6493 9.42063C49.1285 10.5619 49.3696 12.1052 49.3696 14.0536C49.3696 16.0021 49.1532 17.6103 48.7235 18.7423C48.2442 19.9887 47.462 20.8423 46.3799 21.3031V19.3763C46.9179 19.0206 47.2951 18.2412 47.5146 17.032H47.5115Z" fill="white"/>
<path d="M33.0698 21.2165C31.966 20.765 31.1807 19.9176 30.7107 18.6712C30.2686 17.5392 30.0584 15.9774 30.0769 13.9825C30.0769 12.0372 30.315 10.4939 30.7973 9.35263C31.2858 8.18356 32.0433 7.39181 33.0698 6.98047V8.92274C32.5318 9.2382 32.1484 9.97428 31.9196 11.1248C31.765 11.9196 31.6908 12.8846 31.6908 14.0166C31.6815 15.1671 31.7527 16.1444 31.9072 16.9516C32.136 18.1609 32.5256 18.9403 33.0728 19.2959V21.2227L33.0698 21.2165Z" fill="white"/>
<path d="M30.4325 27.3123V24.6649H30.9055V25.7257H32.0958V24.6649H32.5627V27.3123H32.0958V26.134H30.9055V27.3123H30.4325Z" fill="white"/>
<path d="M33.2553 25.4444C33.3357 25.2774 33.4562 25.1289 33.6108 24.9959C33.7561 24.8691 33.92 24.7733 34.0962 24.7083C34.2756 24.6434 34.4703 24.6124 34.6806 24.6124C34.8908 24.6124 35.0887 24.6434 35.2711 24.7083C35.4504 24.7733 35.6174 24.8722 35.7689 25.0021C35.9235 25.132 36.0379 25.2805 36.1183 25.4444C36.1986 25.6083 36.2388 25.7846 36.2388 25.9733C36.2388 26.1619 36.2048 26.3351 36.1337 26.4928C36.0657 26.6506 35.9668 26.7928 35.8338 26.9196C35.673 27.065 35.4999 27.1763 35.3082 27.2506C35.1103 27.3279 34.9001 27.3681 34.6775 27.3681C34.4549 27.3681 34.2415 27.3279 34.0468 27.2475C33.8551 27.1702 33.6819 27.0588 33.5273 26.9104C33.4006 26.7836 33.3047 26.6413 33.2367 26.4836C33.1718 26.3227 33.1409 26.1526 33.1409 25.9733C33.1409 25.7939 33.1811 25.6114 33.2584 25.4444H33.2553ZM33.6943 26.3506C33.7469 26.4712 33.8211 26.5732 33.9169 26.6598C34.0189 26.7495 34.1364 26.8207 34.2694 26.8702C34.4023 26.9227 34.5353 26.9475 34.6744 26.9475C34.9805 26.9475 35.2371 26.8547 35.4442 26.666C35.6514 26.4774 35.7565 26.2454 35.7565 25.964C35.7565 25.8464 35.7318 25.7351 35.6792 25.6269C35.6267 25.5155 35.5525 25.4196 35.4566 25.33C35.3453 25.2248 35.2278 25.1475 35.1011 25.098C34.9743 25.0516 34.8321 25.0269 34.6744 25.0269C34.5353 25.0269 34.4023 25.0485 34.2786 25.0887C34.1519 25.132 34.0406 25.2001 33.9416 25.2897C33.8365 25.3794 33.7561 25.4846 33.7036 25.6052C33.651 25.7227 33.6232 25.8434 33.6232 25.9671C33.6232 26.1001 33.6479 26.2269 33.6974 26.3444L33.6943 26.3506Z" fill="white"/>
<path d="M36.7985 27.3123V24.6649H37.2715L38.6968 26.5763V24.6649H39.1575V27.3123H38.7154L37.2715 25.3515V27.3123H36.7985Z" fill="white"/>
<path d="M42.8274 25.9577C42.8058 26.3815 42.6481 26.7217 42.3575 26.9815C42.0699 27.2382 41.7113 27.365 41.2754 27.365C41.0497 27.365 40.8394 27.3248 40.6446 27.2443C40.4529 27.167 40.2798 27.0557 40.1252 26.9072C39.9984 26.7804 39.9026 26.6382 39.8346 26.4804C39.7697 26.3196 39.7387 26.1495 39.7387 25.9701C39.7387 25.7907 39.7789 25.6083 39.8562 25.4413C39.9366 25.2742 40.0541 25.1258 40.2087 24.9928C40.3571 24.8629 40.5241 24.7639 40.7065 24.699C40.8858 24.6371 41.0898 24.6062 41.3125 24.6062C41.6185 24.6062 41.8844 24.6712 42.1163 24.798C42.3482 24.9279 42.5306 25.1134 42.6574 25.3577H42.0792C41.9803 25.2464 41.8597 25.1629 41.7237 25.1072C41.5907 25.0547 41.4423 25.0268 41.2754 25.0268C41.1362 25.0268 41.0033 25.0485 40.8796 25.0887C40.7528 25.1351 40.6415 25.2031 40.5488 25.2897C40.4437 25.3794 40.3633 25.4846 40.3045 25.6052C40.252 25.7196 40.2242 25.8402 40.2242 25.967C40.2242 26.1 40.2489 26.2268 40.2984 26.3443C40.3509 26.465 40.4251 26.567 40.521 26.6536C40.623 26.7433 40.7405 26.8144 40.8734 26.8639C41.0064 26.9165 41.1393 26.9413 41.2784 26.9413C41.4887 26.9413 41.6742 26.8949 41.8319 26.799C41.9988 26.7 42.138 26.5516 42.2431 26.3505H41.2321V25.9454H42.8274V25.9577Z" fill="white"/>
<path d="M46.0645 26.2237H43.6066V25.8711H46.0645V26.2237Z" fill="white"/>
<path d="M46.9612 27.3123V24.6649H47.4342V27.3123H46.9612Z" fill="white"/>
<path d="M48.0897 27.3123V24.6649H48.5596V25.9639L49.6727 24.6649H50.2446L49.0698 25.9793L50.2632 27.3154H49.6757L48.5596 26.0288V27.3154H48.0897V27.3123Z" fill="white"/>
<path d="M52.0286 27.3092V24.6649H53.6363V25.0484H52.5016V25.7907H53.6363V26.1711H52.5016V26.9103H53.6363V27.3092H52.0286Z" fill="white"/>
<path d="M54.1527 27.3124V25.3052H54.5855V25.4877C54.703 25.4011 54.8112 25.3423 54.9101 25.3114C54.9936 25.2835 55.0895 25.2681 55.2008 25.2681C55.4945 25.2681 55.7233 25.3454 55.8841 25.4969C56.0479 25.6547 56.1314 25.8773 56.1314 26.1681V27.3093H55.6862V26.2454C55.6862 26.0382 55.6429 25.8866 55.5594 25.7907C55.4729 25.6918 55.3399 25.6423 55.1575 25.6423C54.9503 25.6423 54.8019 25.7041 54.7154 25.8248C54.635 25.9423 54.5948 26.131 54.5948 26.3907V27.3062H54.1496L54.1527 27.3124Z" fill="white"/>
<path d="M57.2568 27.2938C57.3186 27.3619 57.4021 27.4114 57.5072 27.4454C57.6062 27.4794 57.7268 27.4949 57.8628 27.4949C58.0576 27.4949 58.2153 27.4454 58.3389 27.3495C58.4719 27.2475 58.5523 27.1052 58.577 26.9196C58.4966 26.9969 58.3791 27.0619 58.2276 27.1083C58.0885 27.1547 57.9586 27.1794 57.835 27.1794C57.5042 27.1794 57.229 27.0866 57.0187 26.898C56.8054 26.7124 56.7003 26.4804 56.7003 26.2052C56.7003 26.0722 56.725 25.9454 56.7776 25.8279C56.8301 25.7072 56.9043 25.6052 57.0095 25.5155C57.1146 25.4165 57.2321 25.3454 57.3588 25.3021C57.4918 25.2557 57.6433 25.231 57.8164 25.231C57.9494 25.231 58.0699 25.2495 58.1782 25.2835C58.2956 25.3206 58.4224 25.3887 58.5677 25.4846V25.3052H59.0222V26.8268C59.0222 27.1392 58.9295 27.3835 58.744 27.5598C58.5554 27.7392 58.2926 27.832 57.9556 27.832C57.6897 27.832 57.4578 27.7856 57.2599 27.6897C57.0527 27.5969 56.9074 27.4639 56.8271 27.2938H57.263H57.2568ZM57.3619 26.6289C57.5011 26.7495 57.6649 26.8083 57.8566 26.8083C58.0267 26.8083 58.1813 26.7495 58.3173 26.6289C58.4564 26.5083 58.5275 26.3753 58.5275 26.2268C58.5275 26.0598 58.4564 25.9145 58.3173 25.7938C58.1782 25.6732 58.0205 25.6145 57.8442 25.6145C57.6556 25.6145 57.4949 25.6732 57.3588 25.7877C57.2228 25.9021 57.1579 26.0413 57.1579 26.2021C57.1579 26.3629 57.2259 26.5083 57.365 26.6289H57.3619Z" fill="white"/>
<path d="M59.6746 25.0453V24.6649H60.1105V25.0453H59.6746ZM59.6746 25.3051H60.1105V27.3123H59.6746V25.3051Z" fill="white"/>
<path d="M60.7722 27.3124V25.3052H61.205V25.4877C61.3225 25.4011 61.4307 25.3423 61.5297 25.3114C61.6131 25.2835 61.709 25.2681 61.8203 25.2681C62.114 25.2681 62.3428 25.3454 62.5036 25.4969C62.6674 25.6547 62.7509 25.8773 62.7509 26.1681V27.3093H62.3057V26.2454C62.3057 26.0382 62.2624 25.8866 62.1789 25.7907C62.0924 25.6918 61.9594 25.6423 61.777 25.6423C61.5698 25.6423 61.4214 25.7041 61.3349 25.8248C61.2545 25.9423 61.2143 26.131 61.2143 26.3907V27.3062H60.7691L60.7722 27.3124Z" fill="white"/>
<path d="M63.7867 26.4588C63.8454 26.6227 63.9443 26.7495 64.0773 26.8423C64.2041 26.932 64.3525 26.9753 64.5256 26.9753C64.6493 26.9753 64.7699 26.9505 64.8812 26.898C64.9801 26.8485 65.0667 26.7835 65.1409 26.7031H65.6479C65.5335 26.9134 65.382 27.0743 65.1872 27.1887C64.9925 27.3031 64.7729 27.3619 64.5287 27.3619C64.3556 27.3619 64.1979 27.334 64.0526 27.2815C63.9103 27.2289 63.7805 27.1547 63.6692 27.0526C63.5579 26.9505 63.4744 26.8361 63.4156 26.7031C63.3569 26.5732 63.326 26.4402 63.326 26.3042C63.326 26.1619 63.3538 26.0258 63.4064 25.9021C63.4589 25.7815 63.5424 25.667 63.6506 25.565C63.7681 25.4567 63.9011 25.3763 64.0433 25.3206C64.1855 25.2681 64.3401 25.2402 64.5101 25.2402C64.7111 25.2402 64.9028 25.2804 65.0821 25.3609C65.2614 25.4444 65.4098 25.5588 65.5242 25.7072C65.5923 25.8 65.6417 25.899 65.6788 26.0103C65.7098 26.1186 65.7283 26.2423 65.7283 26.3846V26.4588H63.7959H63.7867ZM64.1051 25.7413C63.9814 25.8217 63.8825 25.9423 63.8083 26.1H65.2182C65.144 25.9361 65.0512 25.8155 64.9337 25.7382C64.8193 25.6639 64.6864 25.6268 64.5287 25.6268C64.371 25.6268 64.2257 25.6639 64.102 25.7444L64.1051 25.7413Z" fill="white"/>
<path d="M66.6713 26.4588C66.7301 26.6227 66.829 26.7495 66.9619 26.8423C67.0887 26.932 67.2371 26.9753 67.4103 26.9753C67.5339 26.9753 67.6545 26.9505 67.7658 26.898C67.8647 26.8485 67.9513 26.7835 68.0255 26.7031H68.5326C68.4182 26.9134 68.2667 27.0743 68.0719 27.1887C67.8771 27.3031 67.6576 27.3619 67.4133 27.3619C67.2402 27.3619 67.0825 27.334 66.9372 27.2815C66.795 27.2289 66.6651 27.1547 66.5538 27.0526C66.4425 26.9505 66.359 26.8361 66.2972 26.7031C66.2385 26.5732 66.2076 26.4402 66.2076 26.3042C66.2076 26.1619 66.2354 26.0258 66.2879 25.9021C66.3405 25.7815 66.424 25.667 66.5322 25.565C66.6497 25.4567 66.7826 25.3763 66.9248 25.3206C67.0671 25.265 67.2217 25.2402 67.3917 25.2402C67.5927 25.2402 67.7844 25.2804 67.9637 25.3609C68.143 25.4444 68.2914 25.5588 68.4058 25.7072C68.4738 25.8 68.5233 25.899 68.5604 26.0103C68.5913 26.1186 68.6099 26.2423 68.6099 26.3846V26.4588H66.6775H66.6713ZM66.9929 25.7413C66.8692 25.8217 66.7703 25.9423 66.6961 26.1H68.1059C68.0317 25.9361 67.939 25.8155 67.8215 25.7382C67.7071 25.6639 67.5741 25.6268 67.4164 25.6268C67.2588 25.6268 67.1134 25.6639 66.9898 25.7444L66.9929 25.7413Z" fill="white"/>
<path d="M69.1787 27.3124V25.3051H69.5961V25.4783C69.6301 25.4041 69.7105 25.3484 69.8342 25.3082C69.927 25.2835 70.0259 25.2711 70.1341 25.2711V25.6794C69.9393 25.6886 69.8033 25.735 69.726 25.8154C69.6549 25.8928 69.6209 26.0196 69.6209 26.1959V27.3124H69.1787Z" fill="white"/>
<path d="M70.5979 25.0453V24.6649H71.0338V25.0453H70.5979ZM70.5979 25.3051H71.0338V27.3123H70.5979V25.3051Z" fill="white"/>
<path d="M71.6955 27.3124V25.3052H72.1283V25.4877C72.2458 25.4011 72.354 25.3423 72.453 25.3114C72.5364 25.2835 72.6323 25.2681 72.7436 25.2681C73.0373 25.2681 73.2661 25.3454 73.4269 25.4969C73.5907 25.6547 73.6742 25.8773 73.6742 26.1681V27.3093H73.229V26.2454C73.229 26.0382 73.1857 25.8866 73.1022 25.7907C73.0157 25.6918 72.8827 25.6423 72.7003 25.6423C72.4932 25.6423 72.3448 25.7041 72.2582 25.8248C72.1778 25.9423 72.1376 26.131 72.1376 26.3907V27.3062H71.6924L71.6955 27.3124Z" fill="white"/>
<path d="M74.7996 27.2938C74.8614 27.3619 74.9449 27.4114 75.05 27.4454C75.149 27.4794 75.2696 27.4949 75.4056 27.4949C75.6004 27.4949 75.7581 27.4454 75.8817 27.3495C76.0147 27.2475 76.092 27.1052 76.1198 26.9196C76.0394 26.9969 75.9219 27.0619 75.7704 27.1083C75.6313 27.1547 75.5014 27.1794 75.3778 27.1794C75.0469 27.1794 74.7718 27.0866 74.5584 26.898C74.3451 26.7124 74.24 26.4804 74.24 26.2052C74.24 26.0722 74.2647 25.9454 74.3173 25.8279C74.3698 25.7072 74.444 25.6052 74.5492 25.5155C74.6543 25.4165 74.7718 25.3454 74.8985 25.3021C75.0315 25.2557 75.183 25.231 75.3561 25.231C75.4891 25.231 75.6097 25.2495 75.7179 25.2835C75.8354 25.3206 75.9621 25.3887 76.1074 25.4846V25.3052H76.5619V26.8268C76.5619 27.1392 76.4692 27.3835 76.2837 27.5598C76.0951 27.7392 75.8323 27.832 75.4953 27.832C75.2294 27.832 74.9975 27.7856 74.7996 27.6897C74.5925 27.5969 74.4471 27.4639 74.3668 27.2938H74.8027H74.7996ZM74.9047 26.6289C75.0408 26.7495 75.2077 26.8083 75.3994 26.8083C75.5695 26.8083 75.724 26.7495 75.8601 26.6289C75.9992 26.5083 76.0703 26.3753 76.0703 26.2268C76.0703 26.0598 75.9992 25.9145 75.8601 25.7938C75.724 25.6732 75.5633 25.6145 75.387 25.6145C75.1984 25.6145 75.0377 25.6732 74.9016 25.7877C74.7656 25.9021 74.7007 26.0413 74.7007 26.2021C74.7007 26.3629 74.7687 26.5083 74.9078 26.6289H74.9047Z" fill="white"/>
<path d="M80.5442 26.8237C80.4112 27.0093 80.2721 27.1453 80.1237 27.2319C79.9784 27.3185 79.8176 27.3618 79.6475 27.3618C79.4002 27.3618 79.1869 27.2814 79.0075 27.1237C78.8344 26.969 78.7478 26.7835 78.7478 26.567C78.7478 26.4185 78.788 26.2855 78.8746 26.168C78.9612 26.0474 79.1003 25.9299 79.2951 25.8154C79.1776 25.7196 79.091 25.6299 79.0385 25.5433C78.989 25.4598 78.9643 25.3701 78.9643 25.2742C78.9643 25.0886 79.0354 24.934 79.1745 24.8134C79.3198 24.6897 79.5022 24.6278 79.7156 24.6278C79.9042 24.6278 80.068 24.6897 80.2102 24.8134C80.3525 24.9371 80.4236 25.0855 80.4236 25.2556C80.4236 25.367 80.3865 25.469 80.3154 25.5618C80.2412 25.6546 80.1268 25.7505 79.966 25.8464L80.3741 26.1958L80.6617 25.5526H81.1378L80.7266 26.4618L81.4346 27.0154L81.1502 27.2969L80.538 26.8206L80.5442 26.8237ZM79.9444 26.8608C80.0371 26.7958 80.1206 26.6969 80.1948 26.5608L79.6012 26.0629C79.4589 26.1402 79.3569 26.2175 79.292 26.2979C79.2332 26.3721 79.2023 26.4587 79.2023 26.5546C79.2023 26.666 79.2425 26.7618 79.3229 26.8361C79.4064 26.9134 79.5146 26.9536 79.6414 26.9536C79.7527 26.9536 79.8516 26.9227 79.9413 26.8577L79.9444 26.8608ZM79.4651 25.4412C79.5022 25.4938 79.5703 25.5556 79.6661 25.6206C79.7805 25.5618 79.8609 25.5062 79.9134 25.4505C79.966 25.3948 79.9907 25.333 79.9907 25.268C79.9907 25.1938 79.9629 25.135 79.9042 25.0855C79.8516 25.0361 79.7836 25.0113 79.7032 25.0113C79.6228 25.0113 79.5517 25.033 79.496 25.0794C79.4404 25.1227 79.4126 25.1845 79.4126 25.2618C79.4126 25.3299 79.4311 25.3886 79.4651 25.4412Z" fill="white"/>
<path d="M85.5931 27.1733C85.3612 27.3031 85.0922 27.3681 84.7861 27.3681C84.5635 27.3681 84.3533 27.3279 84.1585 27.2475C83.9637 27.1702 83.7905 27.0588 83.636 26.9104C83.5092 26.7836 83.4133 26.6413 83.3453 26.4836C83.2804 26.3227 83.2495 26.1526 83.2495 25.9733C83.2495 25.7939 83.2897 25.6114 83.367 25.4475C83.4443 25.2805 83.5617 25.132 83.7194 24.9959C83.8678 24.8691 84.0317 24.7733 84.2079 24.7083C84.3903 24.6434 84.5882 24.6124 84.7954 24.6124C85.1046 24.6124 85.3797 24.6774 85.6116 24.8073C85.8497 24.9403 86.0321 25.1289 86.1589 25.3763H85.6116C85.5127 25.2588 85.3921 25.1722 85.2499 25.1135C85.1107 25.0609 84.9561 25.033 84.783 25.033C84.6439 25.033 84.5109 25.0547 84.3873 25.0949C84.2574 25.1413 84.1461 25.2093 84.0564 25.2959C83.9513 25.3856 83.8709 25.4908 83.8122 25.6114C83.7596 25.7289 83.7318 25.8495 83.7318 25.9733C83.7318 26.1062 83.7565 26.233 83.8091 26.3506C83.8617 26.4712 83.9359 26.5732 84.0317 26.6598C84.1306 26.7495 84.2481 26.8207 84.3811 26.8702C84.514 26.9227 84.647 26.9475 84.7861 26.9475C84.9531 26.9475 85.1045 26.9196 85.2437 26.864C85.3797 26.8083 85.4941 26.7279 85.5869 26.6196H86.1527C86.0135 26.8578 85.8249 27.0434 85.59 27.1702L85.5931 27.1733Z" fill="white"/>
<path d="M86.7308 25.9114C86.7834 25.7908 86.8669 25.6794 86.9751 25.5774C87.0895 25.4722 87.2317 25.3887 87.4018 25.33C87.5594 25.2743 87.7233 25.2465 87.8903 25.2465C88.0572 25.2465 88.1933 25.2712 88.3231 25.3238C88.4406 25.3702 88.5643 25.4475 88.6879 25.5526C88.8023 25.6547 88.8889 25.7722 88.9507 25.899C89.0126 26.0258 89.0435 26.1557 89.0435 26.2949C89.0435 26.4341 89.0126 26.564 88.9538 26.6939C88.8982 26.8269 88.8209 26.9382 88.7219 27.031C88.6014 27.1423 88.4653 27.2258 88.3169 27.2846C88.1685 27.3465 88.0139 27.3774 87.8501 27.3774C87.6862 27.3774 87.5223 27.3496 87.377 27.297C87.2317 27.2444 87.1018 27.1671 86.9936 27.065C86.8823 26.966 86.7958 26.8516 86.7339 26.7186C86.6783 26.5887 86.6505 26.4557 86.6505 26.3166C86.6505 26.1774 86.6783 26.0382 86.7308 25.9145V25.9114ZM87.3152 26.7929C87.4574 26.9227 87.6367 26.9877 87.8501 26.9877C88.0634 26.9877 88.2273 26.9227 88.3633 26.7929C88.5055 26.663 88.5766 26.5021 88.5766 26.3104C88.5766 26.1186 88.5055 25.9485 88.3633 25.8217C88.2242 25.7011 88.0541 25.6392 87.8439 25.6392C87.6336 25.6392 87.4574 25.7011 87.3183 25.8248C87.1761 25.9516 87.1049 26.1155 87.1049 26.3135C87.1049 26.5114 87.1761 26.663 87.3152 26.7929Z" fill="white"/>
<path d="M89.6062 27.3124V25.3052H90.039V25.4877C90.1565 25.4011 90.2647 25.3423 90.3637 25.3114C90.4471 25.2835 90.543 25.2681 90.6543 25.2681C90.948 25.2681 91.1768 25.3454 91.3376 25.4969C91.5015 25.6547 91.5849 25.8773 91.5849 26.1681V27.3093H91.1397V26.2454C91.1397 26.0382 91.0964 25.8866 91.0129 25.7907C90.9264 25.6918 90.7934 25.6423 90.611 25.6423C90.4039 25.6423 90.2555 25.7041 90.1689 25.8248C90.0885 25.9423 90.0483 26.131 90.0483 26.3907V27.3062H89.6031L89.6062 27.3124Z" fill="white"/>
<path d="M92.4537 26.6382C92.4537 26.7465 92.4846 26.8331 92.5496 26.898C92.6114 26.963 92.6918 26.997 92.7876 26.997C92.8773 26.997 92.9484 26.9722 93.0071 26.9228C93.0659 26.8764 93.0968 26.8145 93.0968 26.7434C93.0968 26.6784 93.0752 26.6228 93.0319 26.5764C92.9917 26.5331 92.9267 26.4959 92.8371 26.465L92.7443 26.4341C92.6423 26.4032 92.5712 26.3815 92.531 26.363C92.4661 26.3382 92.4166 26.3135 92.3857 26.2887C92.2991 26.23 92.2373 26.1619 92.194 26.0877C92.1569 26.0135 92.1384 25.9331 92.1384 25.8372C92.1384 25.6702 92.2033 25.5279 92.3362 25.4104C92.4692 25.2959 92.6299 25.2372 92.8185 25.2372C93.0195 25.2372 93.1772 25.2898 93.2916 25.3918C93.4091 25.497 93.474 25.6454 93.4833 25.8403H93.0597C93.0535 25.7599 93.0288 25.7011 92.9855 25.664C92.9422 25.6269 92.8804 25.6083 92.8031 25.6083C92.7289 25.6083 92.6701 25.6269 92.6238 25.664C92.5805 25.7042 92.5588 25.7568 92.5588 25.8186C92.5588 25.8805 92.5836 25.9362 92.6361 25.9702C92.6701 25.9918 92.7474 26.0197 92.8618 26.0599L93.0319 26.1155C93.205 26.1805 93.3287 26.2578 93.4029 26.3506C93.4802 26.4434 93.5204 26.5702 93.5204 26.7248C93.5204 26.9042 93.4493 27.0557 93.307 27.1795C93.1648 27.3001 92.9855 27.3619 92.7722 27.3619C92.5588 27.3619 92.3857 27.297 92.2497 27.1671C92.1136 27.0372 92.0425 26.8578 92.0363 26.6351H92.4537V26.6382Z" fill="white"/>
<path d="M95.5981 27.3155V27.1392C95.4806 27.2227 95.3724 27.2784 95.2796 27.3124C95.1899 27.3465 95.0941 27.3619 94.989 27.3619C94.6891 27.3619 94.4572 27.2846 94.2933 27.1269C94.1326 26.9691 94.0491 26.7465 94.0491 26.4619V25.3114H94.4943V26.3629C94.4943 26.5733 94.5345 26.7279 94.6211 26.8269C94.7045 26.9289 94.8375 26.9815 95.0168 26.9815C95.1281 26.9815 95.227 26.9599 95.3136 26.9135C95.3909 26.8702 95.4527 26.8083 95.4991 26.731C95.5331 26.6753 95.5579 26.6042 95.5733 26.5176C95.5826 26.4526 95.5888 26.3599 95.5888 26.2331V25.3114H96.0247V27.3186H95.5981V27.3155Z" fill="white"/>
<path d="M96.6771 24.6649H97.113V27.3123H96.6771V24.6649Z" fill="white"/>
<path d="M97.9262 25.6639H97.6016V25.3051H97.9262V24.6649H98.3683V25.3051H98.693V25.6639H98.3683V27.3123H97.9262V25.6639Z" fill="white"/>
<path d="M99.4319 27.0495C99.2031 26.8484 99.0887 26.5979 99.0887 26.301C99.0887 26.1587 99.1165 26.0258 99.1722 25.8959C99.2278 25.7722 99.3113 25.6577 99.4226 25.5587C99.5401 25.4567 99.6668 25.3794 99.8029 25.3268C99.942 25.2773 100.1 25.2526 100.273 25.2526C100.403 25.2526 100.523 25.2711 100.638 25.3082C100.761 25.3484 100.897 25.4165 101.046 25.5124V25.3082H101.488V27.3154H101.04V27.0959C100.897 27.1917 100.764 27.2598 100.644 27.3C100.533 27.3371 100.418 27.3557 100.301 27.3557C99.9513 27.3557 99.6638 27.2536 99.435 27.0495H99.4319ZM100.826 25.8278C100.681 25.6979 100.508 25.633 100.307 25.633C100.106 25.633 99.9204 25.6948 99.772 25.8185C99.6205 25.9484 99.5463 26.1062 99.5463 26.2948C99.5463 26.4835 99.6205 26.6536 99.7689 26.7835C99.9173 26.9134 100.1 26.9814 100.31 26.9814C100.505 26.9814 100.675 26.9165 100.823 26.7835C100.975 26.6505 101.049 26.4959 101.049 26.3196C101.049 26.1247 100.975 25.9608 100.823 25.8278H100.826Z" fill="white"/>
<path d="M102.143 27.3124V25.3052H102.576V25.4877C102.694 25.4011 102.802 25.3423 102.901 25.3114C102.984 25.2835 103.08 25.2681 103.192 25.2681C103.485 25.2681 103.714 25.3454 103.875 25.4969C104.039 25.6547 104.122 25.8773 104.122 26.1681V27.3093H103.677V26.2454C103.677 26.0382 103.634 25.8866 103.55 25.7907C103.464 25.6918 103.331 25.6423 103.148 25.6423C102.941 25.6423 102.793 25.7041 102.706 25.8248C102.626 25.9423 102.586 26.131 102.586 26.3907V27.3062H102.14L102.143 27.3124Z" fill="white"/>
<path d="M104.929 25.6639H104.604V25.3051H104.929V24.6649H105.371V25.3051H105.696V25.6639H105.371V27.3123H104.929V25.6639Z" fill="white"/>
<path d="M106.395 26.6382C106.395 26.7465 106.426 26.8331 106.49 26.898C106.552 26.963 106.633 26.997 106.729 26.997C106.818 26.997 106.889 26.9722 106.948 26.9228C107.007 26.8764 107.038 26.8145 107.038 26.7434C107.038 26.6784 107.016 26.6228 106.973 26.5764C106.933 26.5331 106.868 26.4959 106.778 26.465L106.685 26.4341C106.583 26.4032 106.512 26.3815 106.472 26.363C106.407 26.3382 106.357 26.3135 106.327 26.2887C106.24 26.23 106.178 26.1619 106.135 26.0877C106.098 26.0135 106.079 25.9331 106.079 25.8372C106.079 25.6702 106.144 25.5279 106.277 25.4104C106.41 25.2959 106.571 25.2372 106.759 25.2372C106.96 25.2372 107.118 25.2898 107.232 25.3918C107.35 25.497 107.415 25.6454 107.424 25.8403H107.001C106.994 25.7599 106.97 25.7011 106.926 25.664C106.883 25.6269 106.821 25.6083 106.744 25.6083C106.67 25.6083 106.611 25.6269 106.565 25.664C106.521 25.7042 106.5 25.7568 106.5 25.8186C106.5 25.8805 106.524 25.9362 106.577 25.9702C106.611 25.9918 106.688 26.0197 106.803 26.0599L106.973 26.1155C107.146 26.1805 107.27 26.2578 107.344 26.3506C107.421 26.4434 107.461 26.5702 107.461 26.7248C107.461 26.9042 107.39 27.0557 107.248 27.1795C107.106 27.3001 106.926 27.3619 106.713 27.3619C106.5 27.3619 106.327 27.297 106.191 27.1671C106.054 27.0372 105.983 26.8578 105.977 26.6351H106.395V26.6382Z" fill="white"/>
<path d="M111.623 27.1733C111.391 27.3031 111.122 27.3681 110.816 27.3681C110.593 27.3681 110.383 27.3279 110.188 27.2475C109.993 27.1702 109.82 27.0588 109.666 26.9104C109.539 26.7836 109.443 26.6413 109.375 26.4836C109.31 26.3227 109.279 26.1526 109.279 25.9733C109.279 25.7939 109.319 25.6114 109.397 25.4475C109.474 25.2805 109.592 25.132 109.749 24.9959C109.898 24.8691 110.061 24.7733 110.238 24.7083C110.42 24.6434 110.618 24.6124 110.825 24.6124C111.134 24.6124 111.409 24.6774 111.641 24.8073C111.879 24.9403 112.062 25.1289 112.189 25.3763H111.641C111.542 25.2588 111.422 25.1722 111.28 25.1135C111.14 25.0609 110.986 25.033 110.813 25.033C110.674 25.033 110.541 25.0547 110.417 25.0949C110.287 25.1413 110.176 25.2093 110.086 25.2959C109.981 25.3856 109.901 25.4908 109.842 25.6114C109.789 25.7289 109.762 25.8495 109.762 25.9733C109.762 26.1062 109.786 26.233 109.839 26.3506C109.891 26.4712 109.966 26.5732 110.061 26.6598C110.16 26.7495 110.278 26.8207 110.411 26.8702C110.544 26.9227 110.677 26.9475 110.816 26.9475C110.983 26.9475 111.134 26.9196 111.273 26.864C111.409 26.8083 111.524 26.7279 111.617 26.6196H112.182C112.043 26.8578 111.855 27.0434 111.62 27.1702L111.623 27.1733Z" fill="white"/>
<path d="M112.761 25.9114C112.813 25.7908 112.897 25.6794 113.005 25.5774C113.119 25.4722 113.261 25.3887 113.432 25.33C113.589 25.2743 113.753 25.2465 113.92 25.2465C114.087 25.2465 114.223 25.2712 114.353 25.3238C114.47 25.3702 114.594 25.4475 114.718 25.5526C114.832 25.6547 114.919 25.7722 114.98 25.899C115.042 26.0258 115.073 26.1557 115.073 26.2949C115.073 26.4341 115.042 26.564 114.984 26.6939C114.928 26.8269 114.851 26.9382 114.752 27.031C114.631 27.1423 114.495 27.2258 114.347 27.2846C114.198 27.3465 114.044 27.3774 113.88 27.3774C113.716 27.3774 113.552 27.3496 113.407 27.297C113.261 27.2444 113.132 27.1671 113.023 27.065C112.912 26.966 112.826 26.8516 112.764 26.7186C112.708 26.5887 112.68 26.4557 112.68 26.3166C112.68 26.1774 112.708 26.0382 112.761 25.9145V25.9114ZM113.348 26.7929C113.49 26.9227 113.67 26.9877 113.883 26.9877C114.096 26.9877 114.26 26.9227 114.396 26.7929C114.538 26.663 114.609 26.5021 114.609 26.3104C114.609 26.1186 114.538 25.9485 114.396 25.8217C114.257 25.7011 114.087 25.6392 113.877 25.6392C113.666 25.6392 113.49 25.7011 113.351 25.8248C113.209 25.9516 113.138 26.1155 113.138 26.3135C113.138 26.5114 113.209 26.663 113.348 26.7929Z" fill="white"/>
<path d="M115.75 27.3124V26.833H116.199V27.3124H115.75Z" fill="white"/>
<path d="M116.972 27.3092V24.6649H117.445V26.9103H118.425V27.3092H116.972Z" fill="white"/>
<path d="M119.074 25.6639H118.749V25.3051H119.074V24.6649H119.516V25.3051H119.841V25.6639H119.516V27.3123H119.074V25.6639Z" fill="white"/>
<path d="M120.589 27.0495C120.363 26.8485 120.249 26.598 120.249 26.3011C120.249 26.1588 120.277 26.0258 120.332 25.8959C120.388 25.7691 120.472 25.6578 120.58 25.5588C120.697 25.4537 120.824 25.3763 120.96 25.3269C121.099 25.2774 121.257 25.2526 121.43 25.2526C121.56 25.2526 121.683 25.2712 121.798 25.3083C121.918 25.3485 122.055 25.4165 122.203 25.5124V24.6681H122.645V27.3155H122.2V27.0959C122.055 27.1918 121.922 27.2598 121.798 27.3C121.687 27.3372 121.572 27.3557 121.455 27.3557C121.108 27.3557 120.821 27.2537 120.589 27.0495ZM121.99 25.8279C121.844 25.698 121.671 25.633 121.47 25.633C121.26 25.633 121.081 25.6949 120.932 25.8186C120.784 25.9485 120.71 26.1062 120.71 26.2949C120.71 26.4836 120.784 26.6537 120.932 26.7836C121.081 26.9135 121.263 26.9815 121.473 26.9815C121.665 26.9815 121.835 26.9165 121.986 26.7836C122.138 26.6506 122.212 26.4959 122.212 26.3196C122.212 26.1248 122.138 25.9609 121.986 25.8279H121.99Z" fill="white"/>
<path d="M123.418 27.3124V26.833H123.866V27.3124H123.418Z" fill="white"/>
<path fill-rule="evenodd" clip-rule="evenodd" d="M24.7467 4.70101C24.7467 3.44225 23.7264 2.42163 22.468 2.42163C21.2097 2.42163 20.1894 3.44225 20.1894 4.70101C20.1894 5.95977 21.2097 6.98039 22.468 6.98039C23.7264 6.98039 24.7467 5.95977 24.7467 4.70101ZM19.3144 8.8206V7.76905H14.7571V8.8206H19.3144ZM4.15228 7.76905V8.8206H8.70958V7.76905H4.15228ZM20.1894 7.76905V8.8206H24.7467V7.76905H20.1894ZM4.15228 10.4876V11.9783H8.70958V10.4876H4.15228ZM14.7571 10.4876V11.9783H19.3144V10.4876H14.7571ZM20.1894 10.4876V11.9783H24.7467V10.4876H20.1894ZM20.1894 13.6422V16.0979H24.7467V13.6422H20.1894ZM14.7571 13.6422V15.2196H8.70958V13.6422H4.15228V16.0979H19.3144V13.6422H14.7571ZM4.15228 27.3185H8.70958V18.5505H14.7571V27.3185H19.3144V17.499H4.15228V27.3185ZM24.7467 17.499H20.1894V27.3185H24.7467V17.499Z" fill="white"/>
</svg>
