<svg width="128" height="30" viewBox="0 0 128 30" fill="none" xmlns="http://www.w3.org/2000/svg">
<g clip-path="url(#clip0_96_151)">
<path d="M59.3624 12.6588V13.6083H64.5535V15.0743H52.3904V13.6083H57.5939V12.6588H59.3624ZM60.9732 9.4949C61.1371 9.67737 61.2669 9.8784 61.3627 10.098C61.4586 10.3269 61.505 10.5712 61.505 10.831C61.505 11.5702 61.1927 12.1794 60.5713 12.6588C59.9869 13.1104 59.3005 13.3361 58.5152 13.3361C57.6712 13.3361 56.9539 13.1104 56.3571 12.6588C55.7233 12.1887 55.408 11.5856 55.408 10.8464C55.408 10.5959 55.4513 10.3516 55.5378 10.1135C55.6244 9.90314 55.7481 9.69593 55.9119 9.4949H52.8201V8.18665H57.5351V7.03613H59.3624V8.18665H64.1206V9.4949H60.9701H60.9732ZM61.1463 14.7588C62.0182 15.4021 62.4541 16.2217 62.4541 17.2176C62.4541 18.2722 62.0429 19.1444 61.2174 19.8341C60.4507 20.4866 59.5541 20.8114 58.5276 20.8114C57.4455 20.8114 56.5148 20.4866 55.7388 19.8341C54.9133 19.1444 54.5021 18.2722 54.5021 17.2176C54.5021 16.2217 54.938 15.399 55.8099 14.7588C56.6045 14.1928 57.5104 13.9114 58.5276 13.9114C59.5448 13.9114 60.3672 14.1959 61.1432 14.7588H61.1463ZM56.9322 15.7361C56.4808 16.1568 56.2551 16.6578 56.2551 17.233C56.2551 17.8083 56.4808 18.2877 56.9322 18.699C57.3743 19.1104 57.8845 19.3176 58.4719 19.3176C59.0594 19.3176 59.5541 19.1104 59.9962 18.699C60.4476 18.2877 60.6733 17.799 60.6733 17.233C60.6733 16.6671 60.4476 16.1598 59.9962 15.7361C59.5541 15.3341 59.047 15.133 58.4719 15.133C57.8969 15.133 57.3743 15.3341 56.9322 15.7361ZM57.464 9.88459C57.1672 10.1444 57.0188 10.4506 57.0188 10.8062C57.0188 11.1805 57.1672 11.4959 57.464 11.7557C57.7515 12.0062 58.0916 12.1299 58.4843 12.1299C58.877 12.1299 59.2047 12.0062 59.4922 11.7557C59.789 11.4959 59.9374 11.1805 59.9374 10.8062C59.9374 10.432 59.789 10.1351 59.4922 9.88459C59.2047 9.63407 58.8677 9.51036 58.4843 9.51036C58.1009 9.51036 57.7515 9.63407 57.464 9.88459Z" fill="black"/>
<path d="M73.3278 8.37212C74.0668 8.99687 74.4347 9.79171 74.4347 10.7598C74.4347 11.7278 74.0668 12.5134 73.3278 13.1474C72.6476 13.7319 71.8376 14.0257 70.8977 14.0257C69.9578 14.0257 69.1137 13.7319 68.4242 13.1474C67.6853 12.5134 67.3174 11.7185 67.3174 10.7598C67.3174 9.80099 67.6853 8.99687 68.4242 8.37212C69.1137 7.78759 69.9392 7.49377 70.8977 7.49377C71.8561 7.49377 72.6476 7.78759 73.3278 8.37212ZM79.0198 20.0938H77.3379V16.5835H68.2666V15.0866H79.0229V20.0907L79.0198 20.0938ZM69.5589 9.51027C69.1663 9.85666 68.9684 10.2711 68.9684 10.7628C68.9684 11.2546 69.1632 11.669 69.5589 12.0154C69.9516 12.3525 70.3968 12.5195 70.8946 12.5195C71.3924 12.5195 71.8067 12.3525 72.19 12.0154C72.592 11.6598 72.7929 11.2422 72.7929 10.7628C72.7929 10.2835 72.592 9.85666 72.19 9.51027C71.8067 9.18553 71.3769 9.02161 70.8946 9.02161C70.3875 9.02161 69.9423 9.18553 69.5589 9.51027ZM77.3379 7.92676H79.0198V13.9391H77.3379V7.92676Z" fill="black"/>
<path d="M89.5042 7.92676V9.17934C89.5042 12.2474 88.688 14.4866 87.0586 15.8969C85.9085 16.9051 84.4275 17.4494 82.6157 17.536V15.8969C84.3502 15.8381 85.658 15.2195 86.5423 14.0412C87.3771 12.9278 87.7945 11.3845 87.7945 9.41129H82.8043V7.92985H89.5042V7.92676ZM92.2374 7.92676H93.9193V20.2113H92.2374V7.92676Z" fill="black"/>
<path d="M102.347 14.9598V13.7227H97.0852V12.2691H109.248V13.7227H103.986V14.9598H102.347ZM104.104 7.66703C104.104 8.48353 104.574 9.0959 105.513 9.50724C106.299 9.85363 107.402 10.0454 108.822 10.0825V11.4619C107.662 11.4433 106.611 11.3072 105.674 11.0598C104.496 10.7444 103.661 10.2835 103.173 9.68043C102.666 10.2835 101.822 10.7444 100.644 11.0598C99.7039 11.3103 98.6651 11.4402 97.5242 11.4495V10.0825C98.9341 10.0361 100.032 9.83817 100.817 9.49178C101.757 9.08971 102.227 8.48044 102.227 7.66394H104.11L104.104 7.66703ZM107.137 15.8103H97.5181V14.4H108.819V17.8794H99.2V18.6H108.819V20.0382H98.5229C98.1766 20.0382 97.9293 19.9578 97.7747 19.7938C97.6015 19.6206 97.515 19.3392 97.515 18.9464V16.5H107.134V15.8103H107.137Z" fill="black"/>
<path d="M114.112 12.7299H122.351V14.1958H113.422C113.076 14.1958 112.829 14.1154 112.674 13.9515C112.501 13.7783 112.414 13.4969 112.414 13.1041V7.92676H119.358V9.4082H114.112V12.7299ZM112.962 15.8381H114.643V18.5412H123.817V20.0226H113.966C113.632 20.0226 113.382 19.9422 113.218 19.7783C113.045 19.6051 112.958 19.3268 112.958 18.9433V15.8381H112.962ZM123.718 12.0123V16.1412H122.036V7.92985H123.718V10.5185H125.415V12.0154H123.718V12.0123Z" fill="black"/>
<path d="M38.7927 20.1525V16.1814H33.5583V14.6845H45.7214V16.1814H40.4592V20.1525H38.7927ZM40.7498 9.42367C40.7777 10.2 41.2445 10.7659 42.1442 11.1216C42.8523 11.3907 43.9035 11.5484 45.2948 11.5948V13.0608C44.0673 13.0237 43.0532 12.9123 42.2463 12.7299C40.991 12.4422 40.1222 11.969 39.643 11.3072C39.1638 11.969 38.2826 12.4422 36.9964 12.7299C36.1802 12.9123 35.1784 13.0237 33.9912 13.0608V11.5948C35.3701 11.5577 36.4213 11.3969 37.1417 11.1216C38.0414 10.7659 38.5083 10.2 38.5361 9.42367H33.9912V7.92676H45.2917V9.42367H40.7468H40.7498Z" fill="black"/>
<path d="M47.5114 17.032C47.6753 16.2062 47.7556 15.2258 47.7556 14.0845C47.7464 12.9619 47.666 12 47.5114 11.1928C47.2826 10.0423 46.9023 9.30929 46.3767 8.99073V7.04846C47.4032 7.46908 48.1607 8.26083 48.6492 9.42063C49.1284 10.5619 49.3696 12.1052 49.3696 14.0536C49.3696 16.0021 49.1531 17.6103 48.7234 18.7423C48.2441 19.9887 47.4619 20.8423 46.3798 21.3031V19.3763C46.9178 19.0206 47.295 18.2412 47.5145 17.032H47.5114Z" fill="black"/>
<path d="M33.0697 21.2166C31.9659 20.765 31.1806 19.9176 30.7106 18.6712C30.2685 17.5392 30.0583 15.9774 30.0768 13.9825C30.0768 12.0372 30.3149 10.4939 30.7972 9.35263C31.2857 8.18356 32.0432 7.39181 33.0697 6.98047V8.92274C32.5317 9.2382 32.1483 9.97428 31.9195 11.1248C31.7649 11.9196 31.6907 12.8846 31.6907 14.0166C31.6814 15.1671 31.7526 16.1444 31.9071 16.9516C32.1359 18.1609 32.5255 18.9403 33.0728 19.2959V21.2227L33.0697 21.2166Z" fill="black"/>
<path d="M30.4324 27.3123V24.6649H30.9054V25.7257H32.0958V24.6649H32.5626V27.3123H32.0958V26.134H30.9054V27.3123H30.4324Z" fill="black"/>
<path d="M33.2553 25.4444C33.3357 25.2774 33.4562 25.1289 33.6108 24.9959C33.7561 24.8691 33.92 24.7733 34.0962 24.7083C34.2756 24.6434 34.4703 24.6124 34.6806 24.6124C34.8908 24.6124 35.0887 24.6434 35.2711 24.7083C35.4504 24.7733 35.6174 24.8722 35.7689 25.0021C35.9235 25.132 36.0379 25.2805 36.1183 25.4444C36.1986 25.6083 36.2388 25.7846 36.2388 25.9733C36.2388 26.1619 36.2048 26.3351 36.1337 26.4928C36.0657 26.6506 35.9668 26.7928 35.8338 26.9196C35.673 27.065 35.4999 27.1763 35.3082 27.2506C35.1103 27.3279 34.9001 27.3681 34.6775 27.3681C34.4549 27.3681 34.2415 27.3279 34.0468 27.2475C33.8551 27.1702 33.6819 27.0588 33.5273 26.9104C33.4006 26.7836 33.3047 26.6413 33.2367 26.4836C33.1718 26.3227 33.1409 26.1526 33.1409 25.9733C33.1409 25.7939 33.1811 25.6114 33.2584 25.4444H33.2553ZM33.6943 26.3506C33.7469 26.4712 33.8211 26.5732 33.9169 26.6598C34.0189 26.7495 34.1364 26.8207 34.2694 26.8702C34.4023 26.9227 34.5353 26.9475 34.6744 26.9475C34.9805 26.9475 35.2371 26.8547 35.4442 26.666C35.6514 26.4774 35.7565 26.2454 35.7565 25.964C35.7565 25.8464 35.7318 25.7351 35.6792 25.6269C35.6267 25.5155 35.5525 25.4196 35.4566 25.33C35.3453 25.2248 35.2278 25.1475 35.1011 25.098C34.9743 25.0516 34.8321 25.0269 34.6744 25.0269C34.5353 25.0269 34.4023 25.0485 34.2786 25.0887C34.1519 25.132 34.0406 25.2001 33.9416 25.2897C33.8365 25.3794 33.7561 25.4846 33.7036 25.6052C33.651 25.7227 33.6232 25.8434 33.6232 25.9671C33.6232 26.1001 33.6479 26.2269 33.6974 26.3444L33.6943 26.3506Z" fill="black"/>
<path d="M36.7983 27.3123V24.6649H37.2714L38.6967 26.5763V24.6649H39.1574V27.3123H38.7152L37.2714 25.3515V27.3123H36.7983Z" fill="black"/>
<path d="M42.8275 25.9577C42.8058 26.3815 42.6481 26.7217 42.3575 26.9815C42.07 27.2382 41.7113 27.365 41.2754 27.365C41.0497 27.365 40.8394 27.3248 40.6447 27.2443C40.453 27.167 40.2798 27.0557 40.1252 26.9072C39.9985 26.7804 39.9026 26.6382 39.8346 26.4804C39.7697 26.3196 39.7388 26.1495 39.7388 25.9701C39.7388 25.7907 39.779 25.6083 39.8563 25.4413C39.9366 25.2742 40.0541 25.1258 40.2087 24.9928C40.3571 24.8629 40.5241 24.7639 40.7065 24.699C40.8858 24.6371 41.0899 24.6062 41.3125 24.6062C41.6186 24.6062 41.8845 24.6712 42.1164 24.798C42.3482 24.9279 42.5307 25.1134 42.6574 25.3577H42.0793C41.9803 25.2464 41.8597 25.1629 41.7237 25.1072C41.5907 25.0547 41.4423 25.0268 41.2754 25.0268C41.1363 25.0268 41.0033 25.0485 40.8796 25.0887C40.7529 25.1351 40.6416 25.2031 40.5488 25.2897C40.4437 25.3794 40.3633 25.4846 40.3046 25.6052C40.252 25.7196 40.2242 25.8402 40.2242 25.967C40.2242 26.1 40.2489 26.2268 40.2984 26.3443C40.3509 26.465 40.4251 26.567 40.521 26.6536C40.623 26.7433 40.7405 26.8144 40.8735 26.8639C41.0064 26.9165 41.1393 26.9413 41.2785 26.9413C41.4887 26.9413 41.6742 26.8949 41.8319 26.799C41.9989 26.7 42.138 26.5516 42.2431 26.3505H41.2321V25.9454H42.8275V25.9577Z" fill="black"/>
<path d="M46.0644 26.2237H43.6064V25.8711H46.0644V26.2237Z" fill="black"/>
<path d="M46.9612 27.3123V24.6649H47.4342V27.3123H46.9612Z" fill="black"/>
<path d="M48.0896 27.3123V24.6649H48.5596V25.9639L49.6726 24.6649H50.2446L49.0697 25.9793L50.2631 27.3154H49.6757L48.5596 26.0288V27.3154H48.0896V27.3123Z" fill="black"/>
<path d="M52.0286 27.3092V24.6649H53.6363V25.0484H52.5016V25.7907H53.6363V26.1711H52.5016V26.9103H53.6363V27.3092H52.0286Z" fill="black"/>
<path d="M54.1525 27.3124V25.3052H54.5854V25.4877C54.7028 25.4011 54.8111 25.3423 54.91 25.3114C54.9935 25.2835 55.0893 25.2681 55.2006 25.2681C55.4943 25.2681 55.7231 25.3454 55.8839 25.4969C56.0478 25.6547 56.1313 25.8773 56.1313 26.1681V27.3093H55.686V26.2454C55.686 26.0382 55.6427 25.8866 55.5593 25.7907C55.4727 25.6918 55.3398 25.6423 55.1573 25.6423C54.9502 25.6423 54.8018 25.7041 54.7152 25.8248C54.6348 25.9423 54.5946 26.131 54.5946 26.3907V27.3062H54.1494L54.1525 27.3124Z" fill="black"/>
<path d="M57.2567 27.2938C57.3186 27.3619 57.402 27.4114 57.5072 27.4454C57.6061 27.4794 57.7267 27.4949 57.8627 27.4949C58.0575 27.4949 58.2152 27.4454 58.3388 27.3495C58.4718 27.2475 58.5522 27.1052 58.5769 26.9196C58.4965 26.9969 58.379 27.0619 58.2275 27.1083C58.0884 27.1547 57.9586 27.1794 57.8349 27.1794C57.5041 27.1794 57.2289 27.0866 57.0186 26.898C56.8053 26.7124 56.7002 26.4804 56.7002 26.2052C56.7002 26.0722 56.7249 25.9454 56.7775 25.8279C56.8301 25.7072 56.9043 25.6052 57.0094 25.5155C57.1145 25.4165 57.232 25.3454 57.3587 25.3021C57.4917 25.2557 57.6432 25.231 57.8163 25.231C57.9493 25.231 58.0699 25.2495 58.1781 25.2835C58.2956 25.3206 58.4223 25.3887 58.5676 25.4846V25.3052H59.0221V26.8268C59.0221 27.1392 58.9294 27.3835 58.7439 27.5598C58.5553 27.7392 58.2925 27.832 57.9555 27.832C57.6896 27.832 57.4577 27.7856 57.2598 27.6897C57.0527 27.5969 56.9073 27.4639 56.827 27.2938H57.2629H57.2567ZM57.3618 26.6289C57.501 26.7495 57.6648 26.8083 57.8565 26.8083C58.0266 26.8083 58.1812 26.7495 58.3172 26.6289C58.4563 26.5083 58.5274 26.3753 58.5274 26.2268C58.5274 26.0598 58.4563 25.9145 58.3172 25.7938C58.1781 25.6732 58.0204 25.6145 57.8442 25.6145C57.6556 25.6145 57.4948 25.6732 57.3587 25.7877C57.2227 25.9021 57.1578 26.0413 57.1578 26.2021C57.1578 26.3629 57.2258 26.5083 57.3649 26.6289H57.3618Z" fill="black"/>
<path d="M59.6746 25.0453V24.6649H60.1105V25.0453H59.6746ZM59.6746 25.3051H60.1105V27.3123H59.6746V25.3051Z" fill="black"/>
<path d="M60.7721 27.3124V25.3052H61.205V25.4877C61.3225 25.4011 61.4307 25.3423 61.5296 25.3114C61.6131 25.2835 61.7089 25.2681 61.8202 25.2681C62.114 25.2681 62.3428 25.3454 62.5035 25.4969C62.6674 25.6547 62.7509 25.8773 62.7509 26.1681V27.3093H62.3057V26.2454C62.3057 26.0382 62.2624 25.8866 62.1789 25.7907C62.0923 25.6918 61.9594 25.6423 61.777 25.6423C61.5698 25.6423 61.4214 25.7041 61.3348 25.8248C61.2545 25.9423 61.2143 26.131 61.2143 26.3907V27.3062H60.769L60.7721 27.3124Z" fill="black"/>
<path d="M63.7866 26.4588C63.8453 26.6227 63.9443 26.7495 64.0772 26.8423C64.204 26.932 64.3524 26.9753 64.5255 26.9753C64.6492 26.9753 64.7698 26.9505 64.8811 26.898C64.98 26.8485 65.0666 26.7835 65.1408 26.7031H65.6479C65.5335 26.9134 65.382 27.0743 65.1872 27.1887C64.9924 27.3031 64.7729 27.3619 64.5286 27.3619C64.3555 27.3619 64.1978 27.334 64.0525 27.2815C63.9103 27.2289 63.7804 27.1547 63.6691 27.0526C63.5578 26.9505 63.4743 26.8361 63.4156 26.7031C63.3568 26.5732 63.3259 26.4402 63.3259 26.3042C63.3259 26.1619 63.3538 26.0258 63.4063 25.9021C63.4589 25.7815 63.5423 25.667 63.6506 25.565C63.768 25.4567 63.901 25.3763 64.0432 25.3206C64.1854 25.2681 64.34 25.2402 64.5101 25.2402C64.711 25.2402 64.9027 25.2804 65.0821 25.3609C65.2614 25.4444 65.4098 25.5588 65.5242 25.7072C65.5922 25.8 65.6417 25.899 65.6788 26.0103C65.7097 26.1186 65.7282 26.2423 65.7282 26.3846V26.4588H63.7959H63.7866ZM64.1051 25.7413C63.9814 25.8217 63.8824 25.9423 63.8082 26.1H65.2181C65.1439 25.9361 65.0511 25.8155 64.9337 25.7382C64.8193 25.6639 64.6863 25.6268 64.5286 25.6268C64.371 25.6268 64.2256 25.6639 64.102 25.7444L64.1051 25.7413Z" fill="black"/>
<path d="M66.6713 26.4588C66.73 26.6227 66.829 26.7495 66.9619 26.8423C67.0887 26.932 67.2371 26.9753 67.4102 26.9753C67.5339 26.9753 67.6545 26.9505 67.7658 26.898C67.8647 26.8485 67.9513 26.7835 68.0255 26.7031H68.5325C68.4181 26.9134 68.2666 27.0743 68.0719 27.1887C67.8771 27.3031 67.6576 27.3619 67.4133 27.3619C67.2402 27.3619 67.0825 27.334 66.9372 27.2815C66.795 27.2289 66.6651 27.1547 66.5538 27.0526C66.4425 26.9505 66.359 26.8361 66.2972 26.7031C66.2384 26.5732 66.2075 26.4402 66.2075 26.3042C66.2075 26.1619 66.2353 26.0258 66.2879 25.9021C66.3405 25.7815 66.4239 25.667 66.5322 25.565C66.6496 25.4567 66.7826 25.3763 66.9248 25.3206C67.067 25.265 67.2216 25.2402 67.3917 25.2402C67.5926 25.2402 67.7843 25.2804 67.9637 25.3609C68.143 25.4444 68.2914 25.5588 68.4058 25.7072C68.4738 25.8 68.5233 25.899 68.5604 26.0103C68.5913 26.1186 68.6098 26.2423 68.6098 26.3846V26.4588H66.6775H66.6713ZM66.9928 25.7413C66.8692 25.8217 66.7702 25.9423 66.696 26.1H68.1059C68.0317 25.9361 67.9389 25.8155 67.8214 25.7382C67.707 25.6639 67.5741 25.6268 67.4164 25.6268C67.2587 25.6268 67.1134 25.6639 66.9897 25.7444L66.9928 25.7413Z" fill="black"/>
<path d="M69.1787 27.3124V25.3051H69.5961V25.4783C69.6301 25.4041 69.7105 25.3484 69.8342 25.3082C69.9269 25.2835 70.0259 25.2711 70.1341 25.2711V25.6794C69.9393 25.6886 69.8033 25.735 69.726 25.8154C69.6548 25.8928 69.6208 26.0196 69.6208 26.1959V27.3124H69.1787Z" fill="black"/>
<path d="M70.5979 25.0453V24.6649H71.0338V25.0453H70.5979ZM70.5979 25.3051H71.0338V27.3123H70.5979V25.3051Z" fill="black"/>
<path d="M71.6955 27.3124V25.3052H72.1283V25.4877C72.2458 25.4011 72.354 25.3423 72.453 25.3114C72.5364 25.2835 72.6323 25.2681 72.7436 25.2681C73.0373 25.2681 73.2661 25.3454 73.4269 25.4969C73.5907 25.6547 73.6742 25.8773 73.6742 26.1681V27.3093H73.229V26.2454C73.229 26.0382 73.1857 25.8866 73.1022 25.7907C73.0157 25.6918 72.8827 25.6423 72.7003 25.6423C72.4932 25.6423 72.3448 25.7041 72.2582 25.8248C72.1778 25.9423 72.1376 26.131 72.1376 26.3907V27.3062H71.6924L71.6955 27.3124Z" fill="black"/>
<path d="M74.7996 27.2938C74.8614 27.3619 74.9449 27.4114 75.05 27.4454C75.149 27.4794 75.2696 27.4949 75.4056 27.4949C75.6004 27.4949 75.7581 27.4454 75.8817 27.3495C76.0147 27.2475 76.092 27.1052 76.1198 26.9196C76.0394 26.9969 75.9219 27.0619 75.7704 27.1083C75.6313 27.1547 75.5014 27.1794 75.3778 27.1794C75.0469 27.1794 74.7718 27.0866 74.5584 26.898C74.3451 26.7124 74.24 26.4804 74.24 26.2052C74.24 26.0722 74.2647 25.9454 74.3173 25.8279C74.3698 25.7072 74.444 25.6052 74.5492 25.5155C74.6543 25.4165 74.7718 25.3454 74.8985 25.3021C75.0315 25.2557 75.183 25.231 75.3561 25.231C75.4891 25.231 75.6097 25.2495 75.7179 25.2835C75.8354 25.3206 75.9621 25.3887 76.1074 25.4846V25.3052H76.5619V26.8268C76.5619 27.1392 76.4692 27.3835 76.2837 27.5598C76.0951 27.7392 75.8323 27.832 75.4953 27.832C75.2294 27.832 74.9975 27.7856 74.7996 27.6897C74.5925 27.5969 74.4471 27.4639 74.3668 27.2938H74.8027H74.7996ZM74.9047 26.6289C75.0408 26.7495 75.2077 26.8083 75.3994 26.8083C75.5695 26.8083 75.724 26.7495 75.8601 26.6289C75.9992 26.5083 76.0703 26.3753 76.0703 26.2268C76.0703 26.0598 75.9992 25.9145 75.8601 25.7938C75.724 25.6732 75.5633 25.6145 75.387 25.6145C75.1984 25.6145 75.0377 25.6732 74.9016 25.7877C74.7656 25.9021 74.7007 26.0413 74.7007 26.2021C74.7007 26.3629 74.7687 26.5083 74.9078 26.6289H74.9047Z" fill="black"/>
<path d="M80.5441 26.8237C80.4112 27.0093 80.2721 27.1453 80.1236 27.2319C79.9783 27.3185 79.8176 27.3618 79.6475 27.3618C79.4002 27.3618 79.1868 27.2814 79.0075 27.1237C78.8344 26.969 78.7478 26.7835 78.7478 26.567C78.7478 26.4185 78.788 26.2855 78.8746 26.168C78.9611 26.0474 79.1003 25.9299 79.2951 25.8154C79.1776 25.7196 79.091 25.6299 79.0384 25.5433C78.989 25.4598 78.9642 25.3701 78.9642 25.2742C78.9642 25.0886 79.0353 24.934 79.1745 24.8134C79.3198 24.6897 79.5022 24.6278 79.7155 24.6278C79.9041 24.6278 80.068 24.6897 80.2102 24.8134C80.3524 24.9371 80.4236 25.0855 80.4236 25.2556C80.4236 25.367 80.3864 25.469 80.3153 25.5618C80.2411 25.6546 80.1267 25.7505 79.966 25.8464L80.3741 26.1958L80.6616 25.5526H81.1378L80.7265 26.4618L81.4346 27.0154L81.1501 27.2969L80.5379 26.8206L80.5441 26.8237ZM79.9443 26.8608C80.0371 26.7958 80.1206 26.6969 80.1948 26.5608L79.6011 26.0629C79.4589 26.1402 79.3569 26.2175 79.292 26.2979C79.2332 26.3721 79.2023 26.4587 79.2023 26.5546C79.2023 26.666 79.2425 26.7618 79.3229 26.8361C79.4064 26.9134 79.5146 26.9536 79.6413 26.9536C79.7526 26.9536 79.8516 26.9227 79.9412 26.8577L79.9443 26.8608ZM79.4651 25.4412C79.5022 25.4938 79.5702 25.5556 79.6661 25.6206C79.7805 25.5618 79.8608 25.5062 79.9134 25.4505C79.966 25.3948 79.9907 25.333 79.9907 25.268C79.9907 25.1938 79.9629 25.135 79.9041 25.0855C79.8516 25.0361 79.7836 25.0113 79.7032 25.0113C79.6228 25.0113 79.5517 25.033 79.496 25.0794C79.4404 25.1227 79.4125 25.1845 79.4125 25.2618C79.4125 25.3299 79.4311 25.3886 79.4651 25.4412Z" fill="black"/>
<path d="M85.5928 27.1733C85.361 27.3031 85.092 27.3681 84.7859 27.3681C84.5633 27.3681 84.353 27.3279 84.1583 27.2475C83.9635 27.1702 83.7903 27.0588 83.6357 26.9104C83.509 26.7836 83.4131 26.6413 83.3451 26.4836C83.2802 26.3227 83.2493 26.1526 83.2493 25.9733C83.2493 25.7939 83.2895 25.6114 83.3668 25.4475C83.4441 25.2805 83.5615 25.132 83.7192 24.9959C83.8676 24.8691 84.0315 24.7733 84.2077 24.7083C84.3901 24.6434 84.588 24.6124 84.7952 24.6124C85.1043 24.6124 85.3795 24.6774 85.6114 24.8073C85.8495 24.9403 86.0319 25.1289 86.1586 25.3763H85.6114C85.5125 25.2588 85.3919 25.1722 85.2497 25.1135C85.1105 25.0609 84.9559 25.033 84.7828 25.033C84.6437 25.033 84.5107 25.0547 84.387 25.0949C84.2572 25.1413 84.1459 25.2093 84.0562 25.2959C83.9511 25.3856 83.8707 25.4908 83.812 25.6114C83.7594 25.7289 83.7316 25.8495 83.7316 25.9733C83.7316 26.1062 83.7563 26.233 83.8089 26.3506C83.8614 26.4712 83.9356 26.5732 84.0315 26.6598C84.1304 26.7495 84.2479 26.8207 84.3809 26.8702C84.5138 26.9227 84.6468 26.9475 84.7859 26.9475C84.9528 26.9475 85.1043 26.9196 85.2435 26.864C85.3795 26.8083 85.4939 26.7279 85.5867 26.6196H86.1525C86.0133 26.8578 85.8247 27.0434 85.5897 27.1702L85.5928 27.1733Z" fill="black"/>
<path d="M86.7308 25.9114C86.7833 25.7908 86.8668 25.6794 86.975 25.5774C87.0894 25.4722 87.2316 25.3887 87.4017 25.33C87.5594 25.2743 87.7232 25.2465 87.8902 25.2465C88.0571 25.2465 88.1932 25.2712 88.323 25.3238C88.4405 25.3702 88.5642 25.4475 88.6879 25.5526C88.8023 25.6547 88.8888 25.7722 88.9507 25.899C89.0125 26.0258 89.0434 26.1557 89.0434 26.2949C89.0434 26.4341 89.0125 26.564 88.9538 26.6939C88.8981 26.8269 88.8208 26.9382 88.7219 27.031C88.6013 27.1423 88.4653 27.2258 88.3169 27.2846C88.1685 27.3465 88.0139 27.3774 87.85 27.3774C87.6861 27.3774 87.5223 27.3496 87.377 27.297C87.2316 27.2444 87.1018 27.1671 86.9936 27.065C86.8823 26.966 86.7957 26.8516 86.7339 26.7186C86.6782 26.5887 86.6504 26.4557 86.6504 26.3166C86.6504 26.1774 86.6782 26.0382 86.7308 25.9145V25.9114ZM87.3151 26.7929C87.4573 26.9227 87.6367 26.9877 87.85 26.9877C88.0633 26.9877 88.2272 26.9227 88.3632 26.7929C88.5055 26.663 88.5766 26.5021 88.5766 26.3104C88.5766 26.1186 88.5055 25.9485 88.3632 25.8217C88.2241 25.7011 88.0541 25.6392 87.8438 25.6392C87.6336 25.6392 87.4573 25.7011 87.3182 25.8248C87.176 25.9516 87.1049 26.1155 87.1049 26.3135C87.1049 26.5114 87.176 26.663 87.3151 26.7929Z" fill="black"/>
<path d="M89.6061 27.3124V25.3052H90.039V25.4877C90.1565 25.4011 90.2647 25.3423 90.3636 25.3114C90.4471 25.2835 90.5429 25.2681 90.6542 25.2681C90.948 25.2681 91.1768 25.3454 91.3375 25.4969C91.5014 25.6547 91.5849 25.8773 91.5849 26.1681V27.3093H91.1396V26.2454C91.1396 26.0382 91.0964 25.8866 91.0129 25.7907C90.9263 25.6918 90.7934 25.6423 90.611 25.6423C90.4038 25.6423 90.2554 25.7041 90.1688 25.8248C90.0884 25.9423 90.0482 26.131 90.0482 26.3907V27.3062H89.603L89.6061 27.3124Z" fill="black"/>
<path d="M92.4535 26.6382C92.4535 26.7465 92.4844 26.8331 92.5494 26.898C92.6112 26.963 92.6916 26.997 92.7874 26.997C92.8771 26.997 92.9482 26.9722 93.007 26.9228C93.0657 26.8764 93.0966 26.8145 93.0966 26.7434C93.0966 26.6784 93.075 26.6228 93.0317 26.5764C92.9915 26.5331 92.9266 26.4959 92.8369 26.465L92.7442 26.4341C92.6421 26.4032 92.571 26.3815 92.5308 26.363C92.4659 26.3382 92.4164 26.3135 92.3855 26.2887C92.2989 26.23 92.2371 26.1619 92.1938 26.0877C92.1567 26.0135 92.1382 25.9331 92.1382 25.8372C92.1382 25.6702 92.2031 25.5279 92.336 25.4104C92.469 25.2959 92.6298 25.2372 92.8184 25.2372C93.0193 25.2372 93.177 25.2898 93.2914 25.3918C93.4089 25.497 93.4738 25.6454 93.4831 25.8403H93.0595C93.0533 25.7599 93.0286 25.7011 92.9853 25.664C92.942 25.6269 92.8802 25.6083 92.8029 25.6083C92.7287 25.6083 92.6699 25.6269 92.6236 25.664C92.5803 25.7042 92.5586 25.7568 92.5586 25.8186C92.5586 25.8805 92.5834 25.9362 92.6359 25.9702C92.6699 25.9918 92.7472 26.0197 92.8616 26.0599L93.0317 26.1155C93.2048 26.1805 93.3285 26.2578 93.4027 26.3506C93.48 26.4434 93.5202 26.5702 93.5202 26.7248C93.5202 26.9042 93.4491 27.0557 93.3069 27.1795C93.1646 27.3001 92.9853 27.3619 92.772 27.3619C92.5586 27.3619 92.3855 27.297 92.2495 27.1671C92.1134 27.0372 92.0423 26.8578 92.0361 26.6351H92.4535V26.6382Z" fill="black"/>
<path d="M95.5981 27.3155V27.1392C95.4806 27.2227 95.3724 27.2784 95.2796 27.3124C95.1899 27.3465 95.0941 27.3619 94.989 27.3619C94.6891 27.3619 94.4572 27.2846 94.2933 27.1269C94.1326 26.9691 94.0491 26.7465 94.0491 26.4619V25.3114H94.4943V26.3629C94.4943 26.5733 94.5345 26.7279 94.6211 26.8269C94.7045 26.9289 94.8375 26.9815 95.0168 26.9815C95.1281 26.9815 95.227 26.9599 95.3136 26.9135C95.3909 26.8702 95.4527 26.8083 95.4991 26.731C95.5331 26.6753 95.5579 26.6042 95.5733 26.5176C95.5826 26.4526 95.5888 26.3599 95.5888 26.2331V25.3114H96.0247V27.3186H95.5981V27.3155Z" fill="black"/>
<path d="M96.677 24.6649H97.1129V27.3123H96.677V24.6649Z" fill="black"/>
<path d="M97.9262 25.6639H97.6016V25.3051H97.9262V24.6649H98.3683V25.3051H98.693V25.6639H98.3683V27.3123H97.9262V25.6639Z" fill="black"/>
<path d="M99.4318 27.0495C99.203 26.8484 99.0886 26.5979 99.0886 26.301C99.0886 26.1587 99.1165 26.0258 99.1721 25.8959C99.2278 25.7722 99.3112 25.6577 99.4225 25.5587C99.54 25.4567 99.6668 25.3794 99.8028 25.3268C99.942 25.2773 100.1 25.2526 100.273 25.2526C100.403 25.2526 100.523 25.2711 100.638 25.3082C100.761 25.3484 100.897 25.4165 101.046 25.5124V25.3082H101.488V27.3154H101.04V27.0959C100.897 27.1917 100.764 27.2598 100.644 27.3C100.532 27.3371 100.418 27.3557 100.301 27.3557C99.9512 27.3557 99.6637 27.2536 99.4349 27.0495H99.4318ZM100.826 25.8278C100.681 25.6979 100.508 25.633 100.307 25.633C100.106 25.633 99.9203 25.6948 99.7719 25.8185C99.6204 25.9484 99.5462 26.1062 99.5462 26.2948C99.5462 26.4835 99.6204 26.6536 99.7688 26.7835C99.9172 26.9134 100.1 26.9814 100.31 26.9814C100.505 26.9814 100.675 26.9165 100.823 26.7835C100.975 26.6505 101.049 26.4959 101.049 26.3196C101.049 26.1247 100.975 25.9608 100.823 25.8278H100.826Z" fill="black"/>
<path d="M102.143 27.3124V25.3052H102.576V25.4877C102.694 25.4011 102.802 25.3423 102.901 25.3114C102.984 25.2835 103.08 25.2681 103.191 25.2681C103.485 25.2681 103.714 25.3454 103.875 25.4969C104.038 25.6547 104.122 25.8773 104.122 26.1681V27.3093H103.677V26.2454C103.677 26.0382 103.633 25.8866 103.55 25.7907C103.463 25.6918 103.33 25.6423 103.148 25.6423C102.941 25.6423 102.793 25.7041 102.706 25.8248C102.626 25.9423 102.585 26.131 102.585 26.3907V27.3062H102.14L102.143 27.3124Z" fill="black"/>
<path d="M104.929 25.6639H104.604V25.3051H104.929V24.6649H105.371V25.3051H105.696V25.6639H105.371V27.3123H104.929V25.6639Z" fill="black"/>
<path d="M106.394 26.6382C106.394 26.7465 106.425 26.8331 106.49 26.898C106.552 26.963 106.633 26.997 106.728 26.997C106.818 26.997 106.889 26.9722 106.948 26.9228C107.007 26.8764 107.038 26.8145 107.038 26.7434C107.038 26.6784 107.016 26.6228 106.973 26.5764C106.932 26.5331 106.867 26.4959 106.778 26.465L106.685 26.4341C106.583 26.4032 106.512 26.3815 106.472 26.363C106.407 26.3382 106.357 26.3135 106.326 26.2887C106.24 26.23 106.178 26.1619 106.135 26.0877C106.098 26.0135 106.079 25.9331 106.079 25.8372C106.079 25.6702 106.144 25.5279 106.277 25.4104C106.41 25.2959 106.571 25.2372 106.759 25.2372C106.96 25.2372 107.118 25.2898 107.232 25.3918C107.35 25.497 107.415 25.6454 107.424 25.8403H107C106.994 25.7599 106.97 25.7011 106.926 25.664C106.883 25.6269 106.821 25.6083 106.744 25.6083C106.67 25.6083 106.611 25.6269 106.564 25.664C106.521 25.7042 106.5 25.7568 106.5 25.8186C106.5 25.8805 106.524 25.9362 106.577 25.9702C106.611 25.9918 106.688 26.0197 106.803 26.0599L106.973 26.1155C107.146 26.1805 107.269 26.2578 107.344 26.3506C107.421 26.4434 107.461 26.5702 107.461 26.7248C107.461 26.9042 107.39 27.0557 107.248 27.1795C107.106 27.3001 106.926 27.3619 106.713 27.3619C106.5 27.3619 106.326 27.297 106.19 27.1671C106.054 27.0372 105.983 26.8578 105.977 26.6351H106.394V26.6382Z" fill="black"/>
<path d="M111.623 27.1733C111.391 27.3031 111.122 27.3681 110.816 27.3681C110.593 27.3681 110.383 27.3279 110.188 27.2475C109.993 27.1702 109.82 27.0588 109.666 26.9104C109.539 26.7836 109.443 26.6413 109.375 26.4836C109.31 26.3227 109.279 26.1526 109.279 25.9733C109.279 25.7939 109.319 25.6114 109.397 25.4475C109.474 25.2805 109.591 25.132 109.749 24.9959C109.897 24.8691 110.061 24.7733 110.237 24.7083C110.42 24.6434 110.618 24.6124 110.825 24.6124C111.134 24.6124 111.409 24.6774 111.641 24.8073C111.879 24.9403 112.062 25.1289 112.188 25.3763H111.641C111.542 25.2588 111.422 25.1722 111.279 25.1135C111.14 25.0609 110.986 25.033 110.813 25.033C110.673 25.033 110.54 25.0547 110.417 25.0949C110.287 25.1413 110.176 25.2093 110.086 25.2959C109.981 25.3856 109.9 25.4908 109.842 25.6114C109.789 25.7289 109.761 25.8495 109.761 25.9733C109.761 26.1062 109.786 26.233 109.839 26.3506C109.891 26.4712 109.965 26.5732 110.061 26.6598C110.16 26.7495 110.278 26.8207 110.411 26.8702C110.544 26.9227 110.677 26.9475 110.816 26.9475C110.983 26.9475 111.134 26.9196 111.273 26.864C111.409 26.8083 111.524 26.7279 111.616 26.6196H112.182C112.043 26.8578 111.855 27.0434 111.62 27.1702L111.623 27.1733Z" fill="black"/>
<path d="M112.761 25.9114C112.813 25.7908 112.897 25.6794 113.005 25.5774C113.119 25.4722 113.261 25.3887 113.431 25.33C113.589 25.2743 113.753 25.2465 113.92 25.2465C114.087 25.2465 114.223 25.2712 114.353 25.3238C114.47 25.3702 114.594 25.4475 114.718 25.5526C114.832 25.6547 114.919 25.7722 114.98 25.899C115.042 26.0258 115.073 26.1557 115.073 26.2949C115.073 26.4341 115.042 26.564 114.984 26.6939C114.928 26.8269 114.851 26.9382 114.752 27.031C114.631 27.1423 114.495 27.2258 114.347 27.2846C114.198 27.3465 114.044 27.3774 113.88 27.3774C113.716 27.3774 113.552 27.3496 113.407 27.297C113.261 27.2444 113.132 27.1671 113.023 27.065C112.912 26.966 112.825 26.8516 112.764 26.7186C112.708 26.5887 112.68 26.4557 112.68 26.3166C112.68 26.1774 112.708 26.0382 112.761 25.9145V25.9114ZM113.348 26.7929C113.49 26.9227 113.67 26.9877 113.883 26.9877C114.096 26.9877 114.26 26.9227 114.396 26.7929C114.538 26.663 114.609 26.5021 114.609 26.3104C114.609 26.1186 114.538 25.9485 114.396 25.8217C114.257 25.7011 114.087 25.6392 113.877 25.6392C113.666 25.6392 113.49 25.7011 113.351 25.8248C113.209 25.9516 113.138 26.1155 113.138 26.3135C113.138 26.5114 113.209 26.663 113.348 26.7929Z" fill="black"/>
<path d="M115.75 27.3124V26.833H116.199V27.3124H115.75Z" fill="black"/>
<path d="M116.971 27.3092V24.6649H117.444V26.9103H118.425V27.3092H116.971Z" fill="black"/>
<path d="M119.074 25.6639H118.749V25.3051H119.074V24.6649H119.516V25.3051H119.841V25.6639H119.516V27.3123H119.074V25.6639Z" fill="black"/>
<path d="M120.589 27.0495C120.363 26.8485 120.249 26.598 120.249 26.3011C120.249 26.1588 120.277 26.0258 120.332 25.8959C120.388 25.7691 120.471 25.6578 120.58 25.5588C120.697 25.4537 120.824 25.3763 120.96 25.3269C121.099 25.2774 121.257 25.2526 121.43 25.2526C121.56 25.2526 121.683 25.2712 121.798 25.3083C121.918 25.3485 122.054 25.4165 122.203 25.5124V24.6681H122.645V27.3155H122.2V27.0959C122.054 27.1918 121.921 27.2598 121.798 27.3C121.686 27.3372 121.572 27.3557 121.455 27.3557C121.108 27.3557 120.821 27.2537 120.589 27.0495ZM121.989 25.8279C121.844 25.698 121.671 25.633 121.47 25.633C121.26 25.633 121.08 25.6949 120.932 25.8186C120.784 25.9485 120.709 26.1062 120.709 26.2949C120.709 26.4836 120.784 26.6537 120.932 26.7836C121.08 26.9135 121.263 26.9815 121.473 26.9815C121.665 26.9815 121.835 26.9165 121.986 26.7836C122.138 26.6506 122.212 26.4959 122.212 26.3196C122.212 26.1248 122.138 25.9609 121.986 25.8279H121.989Z" fill="black"/>
<path d="M123.418 27.3124V26.833H123.866V27.3124H123.418Z" fill="black"/>
<path fill-rule="evenodd" clip-rule="evenodd" d="M24.7467 4.70101C24.7467 3.44225 23.7264 2.42163 22.4681 2.42163C21.2097 2.42163 20.1894 3.44225 20.1894 4.70101C20.1894 5.95978 21.2097 6.98039 22.4681 6.98039C23.7264 6.98039 24.7467 5.95978 24.7467 4.70101ZM19.3145 8.8206V7.76905H14.7572V8.8206H19.3145ZM4.15234 7.76905V8.8206H8.70964V7.76905H4.15234ZM20.1894 7.76905V8.8206H24.7467V7.76905H20.1894ZM4.15234 10.4876V11.9783H8.70964V10.4876H4.15234ZM14.7572 10.4876V11.9783H19.3145V10.4876H14.7572ZM20.1894 10.4876V11.9783H24.7467V10.4876H20.1894ZM20.1894 13.6422V16.0979H24.7467V13.6422H20.1894ZM14.7572 13.6422V15.2196H8.70964V13.6422H4.15234V16.0979H19.3145V13.6422H14.7572ZM4.15234 27.3185H8.70964V18.5505H14.7572V27.3185H19.3145V17.499H4.15234V27.3185ZM24.7467 17.499H20.1894V27.3185H24.7467V17.499Z" fill="#0000FF"/>
</g>
<defs>
<clipPath id="clip0_96_151">
<rect width="128" height="30" fill="white"/>
</clipPath>
</defs>
</svg>
