<svg width="104" height="28" viewBox="0 0 104 28" fill="none" xmlns="http://www.w3.org/2000/svg">
<g clip-path="url(#clip0_64_148)">
<path d="M51.8244 14.6073V17.6088H48.1391C50.23 19.5298 51.6673 21.6368 49.7762 24.4002C46.3624 29.3867 32.1781 29.3387 29.868 23.3517C28.8846 20.8024 30.4654 19.1136 32.2343 17.6088H28.1611V14.6073H51.8244ZM34.6297 23.1416C36.5344 25.2626 43.5616 25.2606 45.5207 23.2116C46.4614 22.2291 46.4594 20.9905 45.5284 20.002C43.5519 17.9029 37.7661 17.991 35.4308 19.4037C34.0362 20.2461 33.4058 21.7769 34.6297 23.1416Z" fill="#2E008B"/>
<path d="M99.7328 7.00347V2.20106H104V14.9074L103.709 15.2076H99.7328V10.005H96.1446C94.1972 15.3737 87.0206 16.5863 82.7942 13.3727C79.3941 10.7854 79.4717 6.44519 82.7651 3.80787C86.8208 0.560243 94.0129 1.77085 96.0437 6.90742L99.7309 7.00547L99.7328 7.00347ZM87.4609 5.05049C83.0619 5.82488 83.9172 12.5763 88.5529 12.1881C93.5629 11.7698 92.8007 4.11002 87.4609 5.05049Z" fill="#2E008B"/>
<path d="M42.3204 0V2.4012H51.4366V5.4027H48.5272C52.1892 10.7914 45.612 13.5608 41.2634 13.8169C37.4637 14.041 29.6237 12.7224 30.7274 7.14958C30.8709 6.42721 31.5226 6.07104 31.6526 5.4027H28.7432V2.4012H38.0533V0H42.3204ZM38.5925 5.45873C37.3104 5.61681 34.7618 6.47324 34.7501 8.10005C34.721 11.984 45.29 11.8519 45.4374 8.30015C45.5557 5.48074 40.4662 5.22661 38.5925 5.45873Z" fill="#2E008B"/>
<path d="M87.9012 16.6083V18.6093H99.7328V16.6083H103.806V26.2131H84.3129C84.2334 26.2131 83.634 25.4167 83.634 25.3126V16.6083H87.9012ZM99.7328 23.2116L99.7018 21.9409L99.4419 21.6108H87.9012V23.2116H99.7328Z" fill="#2E008B"/>
<path d="M17.2993 5.40267H11.0925C11.3738 9.39267 13.0011 13.1145 16.9114 14.4092C16.9909 14.7113 16.8357 14.7393 16.7213 14.9094C16.5099 15.2236 15.1444 16.7964 14.8806 16.8024C13.455 16.8304 9.23826 12.9204 8.95702 11.2056C7.67106 13.0105 6.0767 14.6473 4.17006 15.7679C3.6483 16.074 2.20329 16.9765 1.68348 16.6243C1.53413 16.5222 0.0871774 14.8214 0.0386871 14.7033C-0.0970857 14.3712 0.168641 14.4332 0.285018 14.3612C3.12073 12.6363 5.07586 11.7218 6.09997 8.15405C6.31333 7.40767 6.74586 6.02298 6.34048 5.40067H0.42467V2.39917H17.0083C17.6116 3.15155 17.1713 4.4522 17.2993 5.40067V5.40267Z" fill="#2E008B"/>
<path d="M68.0203 2.60132C68.1172 2.62933 68.8058 3.37571 68.8543 3.54379C69.4401 5.58081 67.6537 10.9175 66.7944 12.9425C65.0216 17.1146 62.056 21.2647 58.361 23.7819L55.2441 22.025L55.1257 21.6148C60.2211 18.023 63.9839 11.7979 64.6279 5.40272H55.5117V2.60132H68.0222H68.0203Z" fill="#2E008B"/>
<path d="M76.2636 2.00098H72.1904V26.4132H76.2636V2.00098Z" fill="#2E008B"/>
<path d="M7.40728 23.6118H23.5061V26.6133H3.819C3.77051 26.6133 3.14014 25.963 3.14014 25.913V18.2091H7.11634L7.40728 18.5093V23.6118Z" fill="#2E008B"/>
<path d="M23.5062 19.0095H19.239V2.00098H23.2152L23.5062 2.30113V19.0095Z" fill="#2E008B"/>
</g>
<defs>
<clipPath id="clip0_64_148">
<rect width="104" height="28" fill="white"/>
</clipPath>
</defs>
</svg>
