<svg width="104" height="28" viewBox="0 0 104 28" fill="none" xmlns="http://www.w3.org/2000/svg">
<g clip-path="url(#clip0_110_54)">
<path d="M51.8244 14.6074V17.6089H48.1392C50.2301 19.5299 51.6673 21.6369 49.7762 24.4003C46.3625 29.3868 32.1781 29.3388 29.8681 23.3518C28.8847 20.8025 30.4655 19.1137 32.2344 17.6089H28.1612V14.6074H51.8244ZM34.6298 23.1417C36.5345 25.2627 43.5617 25.2607 45.5207 23.2117C46.4614 22.2292 46.4595 20.9906 45.5285 20.0021C43.552 17.9031 37.7661 17.9911 35.4309 19.4038C34.0363 20.2462 33.4059 21.777 34.6298 23.1417Z" fill="#2E008B"/>
<path d="M99.7328 7.00334V2.20094H104V14.9073L103.709 15.2074H99.7328V10.0048H96.1446C94.1972 15.3735 87.0206 16.5861 82.7942 13.3725C79.3941 10.7852 79.4717 6.44506 82.7651 3.80775C86.8208 0.560121 94.0129 1.77073 96.0437 6.9073L99.7309 7.00534L99.7328 7.00334ZM87.4609 5.05037C83.0619 5.82475 83.9172 12.5761 88.5529 12.1879C93.5629 11.7697 92.8007 4.1099 87.4609 5.05037Z" fill="#2E008B"/>
<path d="M42.3204 0V2.4012H51.4366V5.4027H48.5271C52.1891 10.7914 45.6119 13.5608 41.2633 13.8169C37.4636 14.041 29.6237 12.7224 30.7273 7.14958C30.8709 6.42721 31.5226 6.07104 31.6525 5.4027H28.7431V2.4012H38.0532V0H42.3204ZM38.5924 5.45873C37.3104 5.61681 34.7617 6.47324 34.7501 8.10005C34.721 11.984 45.2899 11.8519 45.4373 8.30015C45.5556 5.48074 40.4661 5.22661 38.5924 5.45873Z" fill="#2E008B"/>
<path d="M87.9012 16.6084V18.6094H99.7329V16.6084H103.806V26.2132H84.313C84.2334 26.2132 83.6341 25.4168 83.6341 25.3128V16.6084H87.9012ZM99.7329 23.2117L99.7018 21.9411L99.4419 21.6109H87.9012V23.2117H99.7329Z" fill="#2E008B"/>
<path d="M17.2994 5.40292H11.0927C11.3739 9.39291 13.0012 13.1148 16.9115 14.4094C16.991 14.7116 16.8358 14.7396 16.7214 14.9097C16.51 15.2238 15.1445 16.7966 14.8807 16.8026C13.4551 16.8306 9.23838 12.9207 8.95714 11.2058C7.67118 13.0107 6.07682 14.6475 4.17018 15.7681C3.64842 16.0743 2.20341 16.9767 1.6836 16.6245C1.53425 16.5225 0.0872994 14.8216 0.0388092 14.7036C-0.0969636 14.3714 0.168763 14.4334 0.28514 14.3614C3.12085 12.6365 5.07598 11.7221 6.10009 8.15429C6.31345 7.40792 6.74598 6.02323 6.3406 5.40092H0.424792V2.39941H17.0085C17.6117 3.15179 17.1714 4.45244 17.2994 5.40092V5.40292Z" fill="#2E008B"/>
<path d="M68.0202 2.60107C68.1172 2.62909 68.8057 3.37546 68.8542 3.54355C69.44 5.58056 67.6536 10.9172 66.7944 12.9422C65.0216 17.1143 62.0559 21.2644 58.3609 23.7817L55.244 22.0248L55.1257 21.6146C60.221 18.0228 63.9839 11.7977 64.6278 5.40248H55.5117V2.60107H68.0221H68.0202Z" fill="#2E008B"/>
<path d="M76.2636 2.00098H72.1904V26.4132H76.2636V2.00098Z" fill="#2E008B"/>
<path d="M7.4074 23.6117H23.5062V26.6132H3.81912C3.77063 26.6132 3.14026 25.9629 3.14026 25.9128V18.209H7.11646L7.4074 18.5091V23.6117Z" fill="#2E008B"/>
<path d="M23.5062 19.0095H19.239V2.00098H23.2152L23.5062 2.30113V19.0095Z" fill="#2E008B"/>
</g>
<defs>
<clipPath id="clip0_110_54">
<rect width="104" height="28" fill="white"/>
</clipPath>
</defs>
</svg>
