<svg width="79" height="79" viewBox="0 0 79 79" fill="none" xmlns="http://www.w3.org/2000/svg">
<path d="M20.7154 48.7276V39.6119L18.1489 33.6079C16.6613 30.1307 11.7168 30.1307 10.2293 33.6079L2.35153 52.0273C1.13634 54.857 3.22101 58 6.31134 58H22.0773C23.2296 58 24.2457 57.5614 25 56.8618C22.4125 55.0763 20.7259 52.0899 20.7259 48.7172L20.7154 48.7276Z" fill="#35763C"/>
<path d="M77.7842 51.7962L70.1077 25.0482C68.5581 19.6506 61.0459 19.6506 59.4962 25.0482L55.6683 38.4013C57.5771 40.5834 58.7368 43.4544 58.7368 46.6074C58.7368 51.0341 56.438 54.9179 53 57.1103C53.9955 58.2587 55.4528 59 57.1256 59H72.4681C76.1524 59 78.8104 55.3981 77.7739 51.7962H77.7842Z" fill="#648943"/>
<path d="M33.9515 46.592C33.9515 42.0828 36.3751 38.1491 40 35.973V32.9285C40 27.4464 35.5216 23 30 23C24.4784 23 20 27.4464 20 32.9285V39.9276L25.353 52.3775C26.1117 54.1561 25.5743 56.0497 24.3098 57.2215C25.9326 58.3409 27.8925 59 30.0105 59C33.098 59 35.8588 57.6085 37.7028 55.422C35.4057 53.1726 33.9726 50.0445 33.9726 46.5815L33.9515 46.592Z" fill="#A4BC49"/>
<path d="M25.6365 52.2384L20 40V48.9782C20 52.3001 21.7975 55.2311 24.5269 57C25.8695 55.8482 26.4354 53.9867 25.6254 52.2384H25.6365Z" fill="#245F2E"/>
<path d="M52.0883 51.7413L56 38.2246C53.7304 35.6435 50.4149 34 46.7124 34C44.3591 34 42.1732 34.6743 40.301 35.8121V49.0021C40.301 51.4357 39.4329 53.6692 38 55.397C40.2382 57.6199 43.3132 59 46.7124 59C49.1284 59 51.3771 58.2941 53.2807 57.0931C52.0569 55.7025 51.5026 53.7219 52.0779 51.7413H52.0883Z" fill="#68AC45"/>
<path d="M58.9899 46.3384C58.9899 43.1346 57.8431 40.2172 55.9819 38L52.2193 51.6108C51.666 53.6052 52.1992 55.5997 53.3762 57C56.7465 54.7722 59 50.8364 59 46.3277L58.9899 46.3384Z" fill="#35763C"/>
<path d="M40 36C36.4146 38.1247 34 41.9656 34 46.3683C34 49.7495 35.4112 52.8038 37.7003 55C39.1324 53.3145 40 51.1591 40 48.7995V36.0102V36Z" fill="#458C39"/>
</svg>
