<svg width="226" height="57" viewBox="0 0 226 57" fill="none" xmlns="http://www.w3.org/2000/svg">
<g clip-path="url(#clip0_26_406)">
<path d="M189.618 14.4863C189.618 14.9925 189.694 15.5177 189.894 16.0047C190.779 18.2106 193.037 19.5666 195.904 18.4111C196.589 18.1342 215.571 10.4661 215.571 10.4661C215.571 10.4661 208.094 29.4693 207.809 30.1759C206.723 32.907 208.028 35.3612 210.247 36.192C210.742 36.3734 211.257 36.4594 211.761 36.4594C213.58 36.4594 215.181 35.3803 215.971 33.2317C216.085 32.907 225.438 7.17155 225.648 6.55085C225.771 6.18797 225.981 5.31898 225.99 4.72692C225.99 3.44731 225.524 2.25364 224.619 1.34646C223.724 0.458368 222.543 0 221.286 0C220.676 0 220.181 0.105043 219.428 0.353326C218.981 0.496566 194.884 9.49204 192.818 10.256C190.751 11.0295 189.618 12.672 189.618 14.4959" fill="#ED1C24"/>
<path d="M112.148 48.2911V45.3404C115.291 44.5191 117.586 42.0363 117.586 39.0951C117.586 37.233 116.662 35.5618 115.195 34.3682H118.405V31.0068H112.281V27.7505H107.509V31.0068H101.242V34.3682H104.595C103.128 35.5618 102.204 37.233 102.204 39.0951C102.204 41.9504 104.376 44.3663 107.385 45.2544V48.2816H100.233V51.7384H116.538C117.938 51.7384 119.481 51.5283 119.491 51.5188V48.1479C119.491 48.1479 118.348 48.2816 116.929 48.2816H112.157L112.148 48.2911ZM109.89 35.4282C111.643 35.4282 113.062 37.0324 113.062 39.0092C113.062 40.9859 111.633 42.5902 109.89 42.5902C108.147 42.5902 106.719 40.9859 106.719 39.0092C106.719 37.0324 108.147 35.4282 109.89 35.4282Z" fill="#454B52"/>
<path d="M125.358 28.5142H120.586V56.9903H125.358V40.6227H130.044V37.1754H125.358V28.5142Z" fill="#454B52"/>
<path d="M183.179 43.6882C184.579 43.6882 186.113 43.4781 186.132 43.4781V40.1072C186.132 40.1072 184.989 40.2408 183.56 40.2408H176.16C175.055 40.2217 174.503 39.7347 174.484 38.7511V32.8592H183.846V29.4023H169.655V39.6106C169.655 42.1603 171.922 43.6882 174.103 43.6882H183.17H183.179Z" fill="#454B52"/>
<path d="M62.6788 50.3061H50.5355V46.811C54.4976 45.942 57.4405 42.9626 57.4405 39.4294C57.4405 37.5291 56.5929 35.7911 55.1928 34.4542H60.2597V30.9973H50.545V27.7314H45.7734V30.9973H36.0587V34.4542H41.1256C39.7255 35.7911 38.8778 37.5291 38.8778 39.4294C38.8778 42.9626 41.8113 45.942 45.7734 46.811V50.3061H33.63V53.7629H62.6788V50.3061ZM43.7828 39.3243C43.7828 36.9657 45.7448 35.0462 48.1544 35.0462C50.5641 35.0462 52.526 36.9657 52.526 39.3243C52.526 41.683 50.5641 43.6024 48.1544 43.6024C45.7448 43.6024 43.7828 41.683 43.7828 39.3243Z" fill="#454B52"/>
<path d="M9.00038 56.9712H23.7724V46.1423C23.7724 45.5502 23.2962 45.0728 22.7152 45.0728H4.54305V52.8937C4.54305 55.2523 6.41931 56.9617 8.99085 56.9617M9.31467 48.5392H19.0008V53.5239H10.9909C9.82898 53.5239 9.33372 53.0655 9.31467 52.0533V48.5392Z" fill="#454B52"/>
<path d="M29.0488 38.923H23.1057C23.3915 37.8439 24.0963 34.5017 24.0963 28.6575V28.4951H4.28589V31.952H19.096C19.096 32.1812 19.096 32.4676 19.096 32.7446C19.096 35.9627 18.9341 38.0731 18.8484 38.923H0V42.3799H29.0488V38.923Z" fill="#454B52"/>
<path d="M75.5461 52.0535V47.4507H70.7173V52.9129C70.7173 55.4626 72.984 56.9905 75.1651 56.9905H90.4991V53.5432H77.2223C76.1175 53.5241 75.5651 53.037 75.5461 52.0535Z" fill="#454B52"/>
<path d="M66.5076 45.4071H79.2129V50.7642H83.9845V45.4071H95.5564V41.9502H66.5076V45.4071Z" fill="#454B52"/>
<path d="M75.6413 39.8685H90.4133V28.5239H71.184V35.8005C71.184 38.1592 73.0602 39.8685 75.6413 39.8685ZM75.9556 31.9712H85.6417V36.4117H77.6319C76.4699 36.4117 75.9746 35.9533 75.9556 34.9411V31.9712Z" fill="#454B52"/>
<path d="M178.665 52.0727V46.2285H173.893V52.9322C173.893 55.2908 175.769 57.0002 178.35 57.0002H193.046V53.5529H180.341C179.179 53.5529 178.684 53.0945 178.665 52.0727Z" fill="#454B52"/>
<path d="M192.98 28.4951H188.303V46.6389H192.98V37.7962H197.665V34.3393H192.98V28.4951Z" fill="#454B52"/>
<path d="M157.188 37.1277H155.34V28.5142H150.921V56.9903H155.34V40.6609H157.188V56.9903H161.607V28.5142H157.188V37.1277Z" fill="#454B52"/>
<path d="M144.168 32.9451H149.13V29.4883H135.082V32.9451H139.815L134.549 48.501H139.082L141.949 39.7156C144.863 42.8765 145.559 48.501 145.559 48.501H149.606C149.606 48.501 149.397 41.1003 143.473 35.0364L144.158 32.9356L144.168 32.9451Z" fill="#454B52"/>
</g>
<defs>
<clipPath id="clip0_26_406">
<rect width="226" height="57" fill="white"/>
</clipPath>
</defs>
</svg>
