<svg width="40" height="40" viewBox="0 0 40 40" fill="none" xmlns="http://www.w3.org/2000/svg">
<path fill-rule="evenodd" clip-rule="evenodd" d="M35 5.2959C35 3.47578 33.5137 2 31.6807 2C29.8476 2 28.3614 3.47578 28.3614 5.2959C28.3614 7.11602 29.8476 8.5918 31.6807 8.5918C33.5137 8.5918 35 7.11602 35 5.2959ZM27.0868 11.2527V9.73217H20.4481V11.2527H27.0868ZM5 9.73217V11.2527H11.6386V9.73217H5ZM28.3614 9.73217V11.2527H35V9.73217H28.3614ZM5 13.6631V15.8186H11.6386V13.6631H5ZM20.4481 13.6631V15.8186H27.0868V13.6631H20.4481ZM28.3614 13.6631V15.8186H35V13.6631H28.3614ZM28.3614 18.2246V21.7754H35V18.2246H28.3614ZM20.4481 18.2246V20.5053H11.6386V18.2246H5V21.7754H27.0868V18.2246H20.4481ZM5 38H11.6386V25.3217H20.4481V38H27.0868V23.8012H5V38ZM35 23.8012H28.3614V38H35V23.8012Z" fill="#0000FF"/>
</svg>
