<svg width="16" height="9" viewBox="0 0 16 9" fill="none" xmlns="http://www.w3.org/2000/svg">
<path d="M8.00544 6.65311L14.207 0.322967C14.418 0.107656 14.6641 0.00358804 14.9453 0.0107654C15.2266 0.0179427 15.4727 0.129186 15.6836 0.344497C15.8945 0.559808 16 0.811005 16 1.09809C16 1.38517 15.8945 1.63636 15.6836 1.85167L9.20779 8.48325C9.03904 8.6555 8.8492 8.78469 8.63826 8.87081C8.42732 8.95694 8.21638 9 8.00544 9C7.79451 9 7.58357 8.95694 7.37263 8.87081C7.16169 8.78469 6.97185 8.6555 6.8031 8.48325L0.306201 1.85168C0.0952624 1.63636 -0.00669105 1.38158 0.000340223 1.08732C0.0073715 0.793063 0.116356 0.538279 0.327294 0.322968C0.538233 0.107656 0.784327 9.1939e-07 1.06558 9.07096e-07C1.34683 8.94803e-07 1.59292 0.107656 1.80386 0.322967L8.00544 6.65311Z" fill="#1C1B1F"/>
</svg>
