<svg width="6" height="12" viewBox="0 0 6 12" fill="none" xmlns="http://www.w3.org/2000/svg">
<path d="M4.73478 5.59832L0.175785 1.03932C0.0555475 0.919082 -0.0030081 0.775947 0.000118892 0.609914C0.00324588 0.443881 0.0649284 0.300695 0.185166 0.180356C0.305404 0.0601186 0.448539 0 0.614572 0C0.780605 0 0.923791 0.0601186 1.04413 0.180356L5.67757 4.82318C5.78691 4.93262 5.86796 5.05523 5.92072 5.191C5.97357 5.32677 6 5.46254 6 5.59832C6 5.73409 5.97357 5.86986 5.92072 6.00563C5.86796 6.1414 5.78691 6.26401 5.67757 6.37346L1.03475 11.0163C0.914511 11.1365 0.772939 11.1951 0.610033 11.1919C0.447026 11.1888 0.305404 11.1271 0.185166 11.0069C0.0649284 10.8867 0.00480934 10.7435 0.00480934 10.5775C0.00480934 10.4115 0.0649284 10.2683 0.185166 10.1479L4.73478 5.59832Z" fill="white"/>
</svg>
