<svg width="18" height="18" viewBox="0 0 18 18" fill="none" xmlns="http://www.w3.org/2000/svg">
<path d="M9 10.4949L1.8034 17.6918C1.60693 17.888 1.35997 17.9885 1.06254 17.9933C0.765339 17.9978 0.513891 17.8973 0.308193 17.6918C0.102731 17.4861 0 17.2369 0 16.9442C0 16.6515 0.102731 16.4023 0.308193 16.1966L7.50514 9L0.308193 1.80341C0.111952 1.60693 0.0114672 1.35997 0.00673847 1.06254C0.00224622 0.765339 0.102731 0.513891 0.308193 0.308193C0.513891 0.102731 0.763093 0 1.0558 0C1.3485 0 1.59771 0.102731 1.8034 0.308193L9 7.50514L16.1966 0.308193C16.3931 0.111952 16.64 0.0114672 16.9375 0.00673847C17.2347 0.00224622 17.4861 0.102731 17.6918 0.308193C17.8973 0.513891 18 0.763093 18 1.0558C18 1.34851 17.8973 1.59771 17.6918 1.80341L10.4949 9L17.6918 16.1966C17.888 16.3931 17.9885 16.64 17.9933 16.9375C17.9978 17.2347 17.8973 17.4861 17.6918 17.6918C17.4861 17.8973 17.2369 18 16.9442 18C16.6515 18 16.4023 17.8973 16.1966 17.6918L9 10.4949Z" fill="white"/>
</svg>
