<svg width="100" height="24" viewBox="0 0 100 24" fill="none" xmlns="http://www.w3.org/2000/svg">
<path d="M79.9761 4.62109H77.861V14.2821H79.9761V4.62109Z" fill="white"/>
<path d="M65.9908 13.2178C65.9908 13.804 66.4649 14.2784 67.0544 14.2784H77.2117V12.859H68.1099V9.23064H77.0524V5.71791C77.0325 5.16767 76.5903 4.7251 76.0366 4.70117H65.9908V6.12062H74.9333V7.80721H65.9908V13.2178Z" fill="white"/>
<path d="M28.7114 4.62109V8.73989H18.4824V4.62109H16.3633V8.9233C16.3633 9.50942 16.8413 9.9839 17.4268 9.9839H28.7114V12.3324C27.6279 11.3715 26.2099 10.7853 24.6564 10.7853C21.2468 10.7853 18.4864 13.5923 18.4864 17.0572C18.4864 20.5221 21.2507 23.3331 24.6564 23.3331C28.0621 23.3331 30.8066 20.546 30.8265 17.0971V4.62109H28.7114ZM24.6564 22.5197C22.4178 22.5197 20.5975 20.0755 20.5975 17.0572C20.5975 14.0389 22.4139 11.5947 24.6564 11.5947C26.899 11.5947 28.7154 14.0389 28.7154 17.0572C28.7154 20.0755 26.899 22.5197 24.6564 22.5197Z" fill="white"/>
<path d="M99.8327 8.22656C99.8088 8.22656 99.7848 8.23454 99.7609 8.24251C99.7609 8.24251 94.5429 10.3677 93.1965 18.3302H93.2045C93.2045 18.3302 93.1965 18.3501 93.1965 18.3581C93.1965 18.4498 93.2722 18.5255 93.3638 18.5255C93.3718 18.5255 93.3758 18.5255 93.3837 18.5215H93.3877C93.3877 18.5215 99.6255 18.6212 99.9999 8.39403C99.9999 8.30232 99.9243 8.22656 99.8327 8.22656Z" fill="white"/>
<path d="M94.3996 11.2246C94.3439 11.2246 94.2921 11.2366 94.2483 11.2605C94.2045 11.2725 93.3998 11.4918 91.7866 11.4918H91.7787C90.1694 11.4918 89.3608 11.2725 89.317 11.2605C89.2692 11.2406 89.2174 11.2246 89.1656 11.2246C88.9665 11.2246 88.8071 11.3881 88.8071 11.5835C88.8071 11.6752 88.843 11.7549 88.8948 11.8187C91.0736 15.4511 91.2489 18.1743 91.2489 18.1743C91.2489 18.4694 91.4879 18.7086 91.7826 18.7086C92.0774 18.7086 92.3204 18.4694 92.3204 18.1743C92.3204 18.1743 92.4956 15.4511 94.6705 11.8187C94.7263 11.7549 94.7581 11.6752 94.7581 11.5835C94.7581 11.3841 94.5988 11.2246 94.3996 11.2246Z" fill="white"/>
<path d="M83.7641 8.24642C83.7442 8.23845 83.7203 8.23047 83.6924 8.23047C83.6008 8.23047 83.5251 8.30622 83.5251 8.39792C83.8996 18.6251 90.1374 18.5294 90.1374 18.5294C90.1374 18.5294 90.1533 18.5294 90.1613 18.5294C90.2529 18.5294 90.3286 18.4537 90.3286 18.362C90.3286 18.354 90.3246 18.346 90.3246 18.3381H90.3286C88.9822 10.3716 83.7641 8.24642 83.7641 8.24642Z" fill="white"/>
<path d="M98.5622 2.36469C96.6622 -0.825078 91.7309 0.135829 91.7309 0.135829C91.7309 0.135829 86.7996 -0.825078 84.8996 2.36469C84.8996 2.36469 81.478 5.49464 85.6883 8.22588C85.6883 8.22588 87.8512 10.6621 91.7309 10.6621C95.6106 10.6621 97.7695 8.22588 97.7695 8.22588C101.984 5.49066 98.5622 2.36469 98.5622 2.36469ZM97.2397 3.20599C96.937 3.29769 95.1844 3.87584 93.9416 5.1039C93.9177 5.11985 93.8938 5.14378 93.8779 5.1677C93.842 5.21554 93.8221 5.27535 93.8221 5.33915C93.8221 5.4787 93.9217 5.59034 94.0531 5.61426C94.2244 5.6661 95.2999 6.02495 96.471 7.03371C96.5028 7.06561 96.5267 7.10947 96.5267 7.15731C96.5267 7.24902 96.4511 7.32477 96.3594 7.32477C96.3316 7.32477 96.3037 7.3168 96.2798 7.30484C96.2001 7.25699 94.8657 6.47948 91.7388 6.47948C88.612 6.47948 87.2776 7.25699 87.1939 7.30484C87.17 7.3168 87.1461 7.32477 87.1183 7.32477C87.0227 7.32477 86.951 7.24902 86.951 7.15731C86.951 7.10947 86.9749 7.06561 87.0067 7.03371C88.1778 6.02495 89.2533 5.6661 89.4206 5.61426C89.552 5.59034 89.6556 5.4787 89.6556 5.33915C89.6556 5.27535 89.6317 5.21554 89.5959 5.17168C89.5759 5.14775 89.556 5.12383 89.5321 5.10788C88.2893 3.87982 86.5367 3.30168 86.234 3.20998C86.1543 3.19802 86.0946 3.13023 86.0946 3.0465C86.0946 2.95479 86.1702 2.87903 86.2619 2.87903C88.7076 2.87903 90.285 4.03134 90.5837 4.26659C90.5996 4.28253 90.6116 4.2945 90.6315 4.30646C90.6753 4.33437 90.7231 4.35031 90.7789 4.35031C90.8984 4.35031 91.0019 4.27058 91.0418 4.15893H91.0458C91.2688 3.63262 91.5715 1.74667 91.5715 1.74667C91.5715 1.65496 91.6472 1.57921 91.7388 1.57921C91.8305 1.57921 91.9062 1.65496 91.9062 1.74667C91.9062 1.74667 92.2089 3.63262 92.4319 4.15893C92.4718 4.27058 92.5713 4.35031 92.6948 4.35031C92.7466 4.35031 92.7984 4.33437 92.8422 4.30646C92.8581 4.2945 92.8741 4.28253 92.89 4.26659C93.1848 4.03134 94.7621 2.87903 97.2118 2.87903C97.3035 2.87903 97.3792 2.95479 97.3792 3.0465C97.3792 3.13023 97.3194 3.19403 97.2397 3.20998V3.20599Z" fill="white"/>
<path d="M46.3135 4.62109C46.899 4.62109 47.3731 5.09557 47.3731 5.68169V6.76224V7.95042H32.87V6.76224H45.254V5.80929H33.105V4.62109H46.3135Z" fill="white"/>
<path d="M33.9295 14.2868C33.344 14.2868 32.87 13.8123 32.87 13.2262V11.0612H45.254V10.2478H32.87V9.05957H47.3731V12.2493H34.9851V13.1026H47.3731V14.2908H36.0367H33.9335L33.9295 14.2868Z" fill="white"/>
<path d="M8.27323 12.8587V9.98789H14.2282V5.68169C14.2322 5.09557 13.7582 4.62109 13.1726 4.62109H0.199163V8.92729C0.199163 9.51341 0.673173 9.98789 1.25871 9.98789H6.07448V12.8587H0V14.2781H14.5031V12.8587H8.26925H8.27323ZM2.43775 8.73989V5.86909H12.1131V8.73989H2.43775Z" fill="white"/>
<path d="M63.9872 8.41693V5.83321C63.9952 5.78536 64.0032 5.74151 64.0032 5.68968C64.0032 5.09957 63.5292 4.62109 62.9436 4.62109C62.9237 4.62109 62.9118 4.62508 62.8918 4.62508L49.6953 4.62109V5.93289H61.8761V7.09317H51.5874V7.08121H49.4683V9.90415H49.4802C49.524 10.4544 49.9741 10.885 50.5318 10.885C50.5517 10.885 50.5676 10.881 50.5836 10.881H55.6144V12.8627H49.4683V14.2622H63.9713V12.8627H57.8132V10.881H63.9872V9.56922H51.5834V8.40894H61.8721L63.9833 8.41293L63.9872 8.41693Z" fill="white"/>
</svg>
