<svg width="180" height="42" viewBox="0 0 180 42" fill="none" xmlns="http://www.w3.org/2000/svg">
<path d="M143.957 8.31836H140.15V25.7081H143.957V8.31836Z" fill="black"/>
<path d="M118.784 23.7918C118.784 24.8468 119.637 25.7009 120.698 25.7009H138.981V23.1459H122.598V16.6149H138.694V10.292C138.659 9.30161 137.863 8.50498 136.866 8.46191H118.784V11.0169H134.88V14.0527H118.784V23.7918Z" fill="black"/>
<path d="M51.6805 8.31836V15.7321H33.2682V8.31836H29.4539V16.0623C29.4539 17.1173 30.3142 17.9713 31.3682 17.9713H51.6805V22.1985C49.7303 20.4689 47.1778 19.4139 44.3815 19.4139C38.2441 19.4139 33.2754 24.4664 33.2754 30.7032C33.2754 36.9399 38.2513 41.9997 44.3815 41.9997C50.5118 41.9997 55.4518 36.983 55.4877 30.775V8.31836H51.6805ZM44.3815 40.5356C40.3521 40.5356 37.0754 36.1361 37.0754 30.7032C37.0754 25.2703 40.3449 20.8708 44.3815 20.8708C48.4182 20.8708 51.6876 25.2703 51.6876 30.7032C51.6876 36.1361 48.4182 40.5356 44.3815 40.5356Z" fill="black"/>
<path d="M179.699 14.8066C179.656 14.8066 179.613 14.821 179.57 14.8354C179.57 14.8354 170.177 18.6606 167.754 32.993H167.768C167.768 32.993 167.754 33.0289 167.754 33.0432C167.754 33.2083 167.89 33.3446 168.055 33.3446C168.069 33.3446 168.076 33.3446 168.091 33.3375H168.098C168.098 33.3375 179.326 33.5169 180 15.1081C180 14.943 179.864 14.8066 179.699 14.8066Z" fill="black"/>
<path d="M169.919 20.2031C169.819 20.2031 169.726 20.2247 169.647 20.2677C169.568 20.2893 168.12 20.684 165.216 20.684H165.202C162.305 20.684 160.849 20.2893 160.771 20.2677C160.685 20.2319 160.591 20.2031 160.498 20.2031C160.14 20.2031 159.853 20.4974 159.853 20.8491C159.853 21.0141 159.917 21.1577 160.011 21.2725C163.932 27.8107 164.248 32.7125 164.248 32.7125C164.248 33.2436 164.678 33.6742 165.209 33.6742C165.739 33.6742 166.177 33.2436 166.177 32.7125C166.177 32.7125 166.492 27.8107 170.407 21.2725C170.507 21.1577 170.565 21.0141 170.565 20.8491C170.565 20.4902 170.278 20.2031 169.919 20.2031Z" fill="black"/>
<path d="M150.775 14.8422C150.74 14.8278 150.697 14.8135 150.646 14.8135C150.481 14.8135 150.345 14.9498 150.345 15.1149C151.019 33.5237 162.247 33.3515 162.247 33.3515C162.247 33.3515 162.276 33.3515 162.29 33.3515C162.455 33.3515 162.591 33.2151 162.591 33.05C162.591 33.0357 162.584 33.0213 162.584 33.007H162.591C160.168 18.6675 150.775 14.8422 150.775 14.8422Z" fill="black"/>
<path d="M177.412 4.25641C173.992 -1.48513 165.115 0.244491 165.115 0.244491C165.115 0.244491 156.239 -1.48513 152.819 4.25641C152.819 4.25641 146.66 9.89028 154.239 14.8065C154.239 14.8065 158.132 19.1916 165.115 19.1916C172.099 19.1916 175.985 14.8065 175.985 14.8065C183.571 9.8831 177.412 4.25641 177.412 4.25641ZM175.031 5.77073C174.486 5.9358 171.332 6.97646 169.095 9.18695C169.052 9.21566 169.009 9.25872 168.98 9.30179C168.915 9.38791 168.88 9.49556 168.88 9.61039C168.88 9.86158 169.059 10.0625 169.295 10.1056C169.604 10.1989 171.54 10.8448 173.648 12.6606C173.705 12.718 173.748 12.7969 173.748 12.8831C173.748 13.0481 173.612 13.1845 173.447 13.1845C173.397 13.1845 173.346 13.1701 173.303 13.1486C173.16 13.0625 170.758 11.663 165.13 11.663C159.501 11.663 157.1 13.0625 156.949 13.1486C156.906 13.1701 156.863 13.1845 156.813 13.1845C156.641 13.1845 156.512 13.0481 156.512 12.8831C156.512 12.7969 156.555 12.718 156.612 12.6606C158.72 10.8448 160.656 10.1989 160.957 10.1056C161.194 10.0625 161.38 9.86158 161.38 9.61039C161.38 9.49556 161.337 9.38789 161.272 9.30895C161.237 9.26589 161.201 9.22282 161.158 9.19411C158.921 6.98362 155.766 5.94298 155.221 5.77791C155.078 5.75638 154.97 5.63437 154.97 5.48366C154.97 5.31859 155.106 5.18222 155.271 5.18222C159.674 5.18222 162.513 7.25636 163.051 7.67979C163.079 7.7085 163.101 7.73004 163.137 7.75157C163.215 7.80181 163.301 7.8305 163.402 7.8305C163.617 7.8305 163.803 7.68698 163.875 7.48602H163.882C164.284 6.53867 164.829 3.14397 164.829 3.14397C164.829 2.9789 164.965 2.84256 165.13 2.84256C165.295 2.84256 165.431 2.9789 165.431 3.14397C165.431 3.14397 165.976 6.53867 166.377 7.48602C166.449 7.68698 166.628 7.8305 166.851 7.8305C166.944 7.8305 167.037 7.80181 167.116 7.75157C167.145 7.73004 167.173 7.7085 167.202 7.67979C167.732 7.25636 170.572 5.18222 174.981 5.18222C175.146 5.18222 175.282 5.31859 175.282 5.48366C175.282 5.63437 175.175 5.74921 175.031 5.77791V5.77073Z" fill="black"/>
<path d="M83.3643 8.31836C84.4183 8.31836 85.2715 9.17242 85.2715 10.2274V12.1724V14.3111H59.166V12.1724H81.4572V10.4571H59.589V8.31836H83.3643Z" fill="black"/>
<path d="M61.0732 25.7156C60.0192 25.7156 59.166 24.8615 59.166 23.8065V19.9095H81.4572V18.4454H59.166V16.3066H85.2715V22.0482H62.9732V23.5841H85.2715V25.7228H64.8661H61.0804L61.0732 25.7156Z" fill="black"/>
<path d="M14.8918 23.1459V17.9785H25.6108V10.2274C25.618 9.17242 24.7647 8.31836 23.7108 8.31836H0.358494V16.0694C0.358494 17.1245 1.21171 17.9785 2.26568 17.9785H10.9341V23.1459H0V25.7009H26.1055V23.1459H14.8847H14.8918ZM4.38796 15.7321V10.5647H21.8036V15.7321H4.38796Z" fill="black"/>
<path d="M115.177 15.1508V10.5002C115.191 10.414 115.206 10.3351 115.206 10.2418C115.206 9.17961 114.353 8.31836 113.299 8.31836C113.263 8.31836 113.241 8.32554 113.205 8.32554L89.4517 8.31836V10.6796H111.377V12.7681H92.8573V12.7465H89.043V17.8278H89.0645C89.1433 18.8182 89.9535 19.5933 90.9573 19.5933C90.9932 19.5933 91.0218 19.5861 91.0505 19.5861H100.106V23.1531H89.043V25.6722H115.148V23.1531H104.064V19.5861H115.177V17.2249H92.8502V15.1364H111.37L115.17 15.1436L115.177 15.1508Z" fill="black"/>
</svg>
