<svg width="32" height="32" viewBox="0 0 32 32" fill="none" xmlns="http://www.w3.org/2000/svg">
<path d="M16.15 17.4167L14.725 18.8417C14.4347 19.1319 14.2896 19.5014 14.2896 19.95C14.2896 20.3986 14.4347 20.7681 14.725 21.0583C15.0153 21.3486 15.3847 21.4937 15.8333 21.4937C16.2819 21.4937 16.6514 21.3486 16.9417 21.0583L21.0583 16.9417C21.375 16.625 21.5333 16.2556 21.5333 15.8333C21.5333 15.4111 21.375 15.0417 21.0583 14.725L16.9417 10.6083C16.6514 10.3181 16.2819 10.1729 15.8333 10.1729C15.3847 10.1729 15.0153 10.3181 14.725 10.6083C14.4347 10.8986 14.2896 11.2681 14.2896 11.7167C14.2896 12.1653 14.4347 12.5347 14.725 12.825L16.15 14.25H11.0833C10.6347 14.25 10.2587 14.4017 9.95521 14.7052C9.65174 15.0087 9.5 15.3847 9.5 15.8333C9.5 16.2819 9.65174 16.658 9.95521 16.9615C10.2587 17.2649 10.6347 17.4167 11.0833 17.4167H16.15ZM15.8333 31.6667C13.6431 31.6667 11.5847 31.251 9.65833 30.4198C7.73194 29.5885 6.05625 28.4604 4.63125 27.0354C3.20625 25.6104 2.07812 23.9347 1.24687 22.0083C0.415625 20.0819 0 18.0236 0 15.8333C0 13.6431 0.415625 11.5847 1.24687 9.65833C2.07812 7.73194 3.20625 6.05625 4.63125 4.63125C6.05625 3.20625 7.73194 2.07812 9.65833 1.24687C11.5847 0.415625 13.6431 0 15.8333 0C18.0236 0 20.0819 0.415625 22.0083 1.24687C23.9347 2.07812 25.6104 3.20625 27.0354 4.63125C28.4604 6.05625 29.5885 7.73194 30.4198 9.65833C31.251 11.5847 31.6667 13.6431 31.6667 15.8333C31.6667 18.0236 31.251 20.0819 30.4198 22.0083C29.5885 23.9347 28.4604 25.6104 27.0354 27.0354C25.6104 28.4604 23.9347 29.5885 22.0083 30.4198C20.0819 31.251 18.0236 31.6667 15.8333 31.6667ZM15.8333 28.5C19.3694 28.5 22.3646 27.2729 24.8187 24.8187C27.2729 22.3646 28.5 19.3694 28.5 15.8333C28.5 12.2972 27.2729 9.30208 24.8187 6.84792C22.3646 4.39375 19.3694 3.16667 15.8333 3.16667C12.2972 3.16667 9.30208 4.39375 6.84792 6.84792C4.39375 9.30208 3.16667 12.2972 3.16667 15.8333C3.16667 19.3694 4.39375 22.3646 6.84792 24.8187C9.30208 27.2729 12.2972 28.5 15.8333 28.5Z" fill="white"/>
</svg>
